<ttFont>
    <TTGlyph name="A" xMin="-4" yMin="-70" xMax="1526" yMax="1430">
      <contour>
        <pt x="1290" y="-57" on="1"/>
        <pt x="1261" y="45" on="0"/>
        <pt x="1199" y="246" on="0"/>
        <pt x="1165" y="348" on="1"/>
        <pt x="360" y="313" on="1"/>
        <pt x="323" y="217" on="0"/>
        <pt x="255" y="27" on="0"/>
        <pt x="223" y="-70" on="1"/>
        <pt x="-4" y="-39" on="1"/>
        <pt x="137" y="339" on="0"/>
        <pt x="480" y="1071" on="0"/>
        <pt x="674" y="1430" on="1"/>
        <pt x="954" y="1425" on="1"/>
        <pt x="1126" y="1078" on="0"/>
        <pt x="1410" y="357" on="0"/>
        <pt x="1526" y="-23" on="1"/>
      </contour>
      <contour>
        <pt x="793" y="1264" on="1"/>
        <pt x="692" y="1072" on="0"/>
        <pt x="512" y="685" on="0"/>
        <pt x="430" y="487" on="1"/>
        <pt x="1106" y="516" on="1"/>
        <pt x="1038" y="708" on="0"/>
        <pt x="882" y="1078" on="0"/>
      </contour>
    </TTGlyph>
    <TTGlyph name="AE" xMin="0" yMin="-70" xMax="2056" yMax="1434">
      <contour>
        <pt x="1772" y="539" on="1"/>
        <pt x="1178" y="510" on="1"/>
        <pt x="1182" y="197" on="1"/>
        <pt x="2046" y="246" on="1"/>
        <pt x="2050" y="49" on="1"/>
        <pt x="993" y="-8" on="1"/>
        <pt x="987" y="340" on="1"/>
        <pt x="406" y="313" on="1"/>
        <pt x="352" y="213" on="0"/>
        <pt x="253" y="20" on="0"/>
        <pt x="211" y="-70" on="1"/>
        <pt x="0" y="-39" on="1"/>
        <pt x="43" y="56" on="0"/>
        <pt x="157" y="278" on="0"/>
        <pt x="286" y="513" on="0"/>
        <pt x="423" y="750" on="0"/>
        <pt x="555" y="971" on="0"/>
        <pt x="675" y="1166" on="0"/>
        <pt x="768" y="1316" on="0"/>
        <pt x="829" y="1411" on="0"/>
        <pt x="836" y="1421" on="1"/>
        <pt x="2056" y="1434" on="1"/>
        <pt x="2050" y="1243" on="1"/>
        <pt x="1167" y="1229" on="1"/>
        <pt x="1174" y="707" on="1"/>
        <pt x="1767" y="731" on="1"/>
      </contour>
      <contour>
        <pt x="973" y="1266" on="1"/>
        <pt x="860" y="1095" on="0"/>
        <pt x="617" y="697" on="0"/>
        <pt x="502" y="489" on="1"/>
        <pt x="985" y="508" on="1"/>
      </contour>
    </TTGlyph>
    <TTGlyph name="AEacute" xMin="0" yMin="-70" xMax="2056" yMax="1946">
      <component glyphName="AE" x="0" y="0" flags="0x204"/>
      <component glyphName="acute" x="983" y="344" flags="0x4"/>
    </TTGlyph>
    <TTGlyph name="Aacute" xMin="-4" yMin="-70" xMax="1526" yMax="1938">
      <component glyphName="A" x="0" y="0" flags="0x204"/>
      <component glyphName="acute" x="743" y="336" flags="0x4"/>
    </TTGlyph>
    <TTGlyph name="Abreve" xMin="-4" yMin="-70" xMax="1526" yMax="1905">
      <component glyphName="A" x="0" y="0" flags="0x204"/>
      <component glyphName="breve" x="461" y="326" flags="0x4"/>
    </TTGlyph>
    <TTGlyph name="Acircumflex" xMin="-4" yMin="-70" xMax="1526" yMax="1921">
      <component glyphName="A" x="0" y="0" flags="0x204"/>
      <component glyphName="circumflex" x="467" y="379" flags="0x4"/>
    </TTGlyph>
    <TTGlyph name="Adieresis" xMin="-4" yMin="-70" xMax="1526" yMax="1735">
      <component glyphName="A" x="0" y="0" flags="0x204"/>
      <component glyphName="dieresis" x="440" y="291" flags="0x4"/>
    </TTGlyph>
    <TTGlyph name="Agrave" xMin="-4" yMin="-70" xMax="1526" yMax="1923">
      <component glyphName="A" x="0" y="0" flags="0x204"/>
      <component glyphName="grave" x="459" y="303" flags="0x4"/>
    </TTGlyph>
    <TTGlyph name="Amacron" xMin="-4" yMin="-70" xMax="1526" yMax="1743">
      <component glyphName="A" x="0" y="0" flags="0x204"/>
      <component glyphName="macron" x="406" y="305" flags="0x4"/>
    </TTGlyph>
    <TTGlyph name="Aogonek" xMin="-4" yMin="-512" xMax="1593" yMax="1430">
      <contour>
        <pt x="1593" y="-377" on="1"/>
        <pt x="1561" y="-415" on="0"/>
        <pt x="1497" y="-467" on="0"/>
        <pt x="1437" y="-499" on="0"/>
        <pt x="1380" y="-512" on="0"/>
        <pt x="1354" y="-512" on="1"/>
        <pt x="1309" y="-512" on="0"/>
        <pt x="1226" y="-482" on="0"/>
        <pt x="1161" y="-426" on="0"/>
        <pt x="1122" y="-346" on="0"/>
        <pt x="1122" y="-297" on="1"/>
        <pt x="1122" y="-269" on="0"/>
        <pt x="1135" y="-201" on="0"/>
        <pt x="1169" y="-124" on="0"/>
        <pt x="1226" y="-38" on="0"/>
        <pt x="1270" y="10" on="1"/>
        <pt x="1245" y="95" on="0"/>
        <pt x="1193" y="263" on="0"/>
        <pt x="1165" y="348" on="1"/>
        <pt x="360" y="313" on="1"/>
        <pt x="323" y="217" on="0"/>
        <pt x="255" y="27" on="0"/>
        <pt x="223" y="-70" on="1"/>
        <pt x="-4" y="-39" on="1"/>
        <pt x="137" y="339" on="0"/>
        <pt x="480" y="1071" on="0"/>
        <pt x="674" y="1430" on="1"/>
        <pt x="954" y="1425" on="1"/>
        <pt x="1126" y="1078" on="0"/>
        <pt x="1410" y="357" on="0"/>
        <pt x="1526" y="-23" on="1"/>
        <pt x="1469" y="-46" on="0"/>
        <pt x="1389" y="-96" on="0"/>
        <pt x="1335" y="-147" on="0"/>
        <pt x="1305" y="-196" on="0"/>
        <pt x="1298" y="-218" on="1"/>
        <pt x="1281" y="-271" on="0"/>
        <pt x="1298" y="-322" on="1"/>
        <pt x="1305" y="-331" on="0"/>
        <pt x="1315" y="-337" on="1"/>
        <pt x="1323" y="-343" on="0"/>
        <pt x="1347" y="-352" on="0"/>
        <pt x="1364" y="-352" on="1"/>
        <pt x="1390" y="-352" on="0"/>
        <pt x="1461" y="-315" on="0"/>
        <pt x="1507" y="-264" on="1"/>
      </contour>
      <contour>
        <pt x="793" y="1264" on="1"/>
        <pt x="692" y="1072" on="0"/>
        <pt x="512" y="685" on="0"/>
        <pt x="430" y="487" on="1"/>
        <pt x="1106" y="516" on="1"/>
        <pt x="1038" y="708" on="0"/>
        <pt x="882" y="1078" on="0"/>
      </contour>
    </TTGlyph>
    <TTGlyph name="Aring" xMin="-4" yMin="-70" xMax="1526" yMax="1829">
      <contour>
        <pt x="1063" y="1561" on="1"/>
        <pt x="1063" y="1504" on="0"/>
        <pt x="1019" y="1405" on="0"/>
        <pt x="981" y="1370" on="1"/>
        <pt x="1304" y="703" on="0"/>
        <pt x="1526" y="-23" on="1"/>
        <pt x="1290" y="-57" on="1"/>
        <pt x="1261" y="45" on="0"/>
        <pt x="1199" y="246" on="0"/>
        <pt x="1165" y="348" on="1"/>
        <pt x="360" y="313" on="1"/>
        <pt x="323" y="217" on="0"/>
        <pt x="255" y="27" on="0"/>
        <pt x="223" y="-70" on="1"/>
        <pt x="-4" y="-39" on="1"/>
        <pt x="129" y="317" on="0"/>
        <pt x="449" y="1012" on="0"/>
        <pt x="631" y="1352" on="1"/>
        <pt x="584" y="1389" on="0"/>
        <pt x="530" y="1498" on="0"/>
        <pt x="530" y="1561" on="1"/>
        <pt x="530" y="1616" on="0"/>
        <pt x="572" y="1714" on="0"/>
        <pt x="644" y="1787" on="0"/>
        <pt x="741" y="1829" on="0"/>
        <pt x="797" y="1829" on="1"/>
        <pt x="852" y="1829" on="0"/>
        <pt x="949" y="1787" on="0"/>
        <pt x="1021" y="1714" on="0"/>
        <pt x="1063" y="1616" on="0"/>
      </contour>
      <contour>
        <pt x="793" y="1264" on="1"/>
        <pt x="692" y="1072" on="0"/>
        <pt x="512" y="685" on="0"/>
        <pt x="430" y="487" on="1"/>
        <pt x="1106" y="516" on="1"/>
        <pt x="1038" y="708" on="0"/>
        <pt x="882" y="1078" on="0"/>
      </contour>
      <contour>
        <pt x="913" y="1554" on="1"/>
        <pt x="913" y="1579" on="0"/>
        <pt x="895" y="1621" on="0"/>
        <pt x="864" y="1653" on="0"/>
        <pt x="821" y="1671" on="0"/>
        <pt x="797" y="1671" on="1"/>
        <pt x="772" y="1671" on="0"/>
        <pt x="729" y="1653" on="0"/>
        <pt x="697" y="1621" on="0"/>
        <pt x="678" y="1579" on="0"/>
        <pt x="678" y="1554" on="1"/>
        <pt x="678" y="1530" on="0"/>
        <pt x="697" y="1487" on="0"/>
        <pt x="729" y="1455" on="0"/>
        <pt x="772" y="1436" on="0"/>
        <pt x="797" y="1436" on="1"/>
        <pt x="821" y="1436" on="0"/>
        <pt x="864" y="1455" on="0"/>
        <pt x="895" y="1487" on="0"/>
        <pt x="913" y="1530" on="0"/>
      </contour>
    </TTGlyph>
    <TTGlyph name="Atilde" xMin="-4" yMin="-70" xMax="1526" yMax="1890">
      <component glyphName="A" x="0" y="0" flags="0x204"/>
      <component glyphName="tilde" x="387" y="319" flags="0x4"/>
    </TTGlyph>
    <TTGlyph name="B" xMin="166" yMin="-76" xMax="1441" yMax="1445">
      <contour>
        <pt x="1438" y="391" on="1"/>
        <pt x="1441" y="285" on="0"/>
        <pt x="1367" y="133" on="0"/>
        <pt x="1240" y="30" on="0"/>
        <pt x="1071" y="-33" on="0"/>
        <pt x="886" y="-66" on="0"/>
        <pt x="698" y="-76" on="0"/>
        <pt x="616" y="-76" on="1"/>
        <pt x="533" y="-76" on="0"/>
        <pt x="330" y="-67" on="0"/>
        <pt x="209" y="-57" on="1"/>
        <pt x="166" y="1399" on="1"/>
        <pt x="270" y="1418" on="0"/>
        <pt x="466" y="1437" on="0"/>
        <pt x="543" y="1441" on="1"/>
        <pt x="633" y="1445" on="0"/>
        <pt x="713" y="1444" on="1"/>
        <pt x="789" y="1442" on="0"/>
        <pt x="943" y="1428" on="0"/>
        <pt x="1084" y="1395" on="0"/>
        <pt x="1206" y="1337" on="0"/>
        <pt x="1296" y="1247" on="0"/>
        <pt x="1348" y="1120" on="0"/>
        <pt x="1348" y="1034" on="1"/>
        <pt x="1348" y="922" on="0"/>
        <pt x="1266" y="763" on="0"/>
        <pt x="1200" y="711" on="1"/>
        <pt x="1242" y="697" on="0"/>
        <pt x="1308" y="656" on="0"/>
        <pt x="1357" y="606" on="0"/>
        <pt x="1392" y="551" on="0"/>
        <pt x="1404" y="524" on="1"/>
        <pt x="1431" y="462" on="0"/>
      </contour>
      <contour>
        <pt x="717" y="1262" on="1"/>
        <pt x="670" y="1262" on="0"/>
        <pt x="615" y="1259" on="1"/>
        <pt x="568" y="1257" on="0"/>
        <pt x="447" y="1245" on="0"/>
        <pt x="379" y="1235" on="1"/>
        <pt x="395" y="725" on="1"/>
        <pt x="481" y="727" on="0"/>
        <pt x="622" y="734" on="0"/>
        <pt x="673" y="737" on="1"/>
        <pt x="733" y="741" on="0"/>
        <pt x="780" y="745" on="1"/>
        <pt x="854" y="749" on="0"/>
        <pt x="989" y="790" on="0"/>
        <pt x="1089" y="862" on="0"/>
        <pt x="1144" y="966" on="0"/>
        <pt x="1137" y="1034" on="1"/>
        <pt x="1131" y="1084" on="0"/>
        <pt x="1088" y="1159" on="0"/>
        <pt x="1023" y="1212" on="0"/>
        <pt x="940" y="1245" on="0"/>
        <pt x="851" y="1262" on="0"/>
        <pt x="759" y="1265" on="0"/>
      </contour>
      <contour>
        <pt x="907" y="584" on="1"/>
        <pt x="882" y="582" on="0"/>
        <pt x="845" y="579" on="0"/>
        <pt x="818" y="577" on="0"/>
        <pt x="797" y="575" on="0"/>
        <pt x="788" y="575" on="1"/>
        <pt x="733" y="570" on="0"/>
        <pt x="670" y="566" on="1"/>
        <pt x="616" y="562" on="0"/>
        <pt x="476" y="553" on="0"/>
        <pt x="401" y="549" on="1"/>
        <pt x="416" y="106" on="1"/>
        <pt x="444" y="104" on="0"/>
        <pt x="498" y="104" on="0"/>
        <pt x="524" y="104" on="1"/>
        <pt x="571" y="104" on="0"/>
        <pt x="714" y="105" on="0"/>
        <pt x="871" y="118" on="0"/>
        <pt x="1028" y="151" on="0"/>
        <pt x="1153" y="214" on="0"/>
        <pt x="1228" y="314" on="0"/>
        <pt x="1225" y="389" on="1"/>
        <pt x="1216" y="443" on="0"/>
        <pt x="1179" y="486" on="1"/>
        <pt x="1163" y="504" on="0"/>
        <pt x="1116" y="540" on="0"/>
        <pt x="1050" y="567" on="0"/>
        <pt x="963" y="584" on="0"/>
      </contour>
    </TTGlyph>
    <TTGlyph name="C" xMin="82" yMin="-61" xMax="1452" yMax="1487">
      <contour>
        <pt x="1452" y="262" on="1"/>
        <pt x="1401" y="188" on="0"/>
        <pt x="1267" y="69" on="0"/>
        <pt x="1110" y="-15" on="0"/>
        <pt x="933" y="-61" on="0"/>
        <pt x="838" y="-61" on="1"/>
        <pt x="733" y="-61" on="0"/>
        <pt x="540" y="-6" on="0"/>
        <pt x="372" y="95" on="0"/>
        <pt x="234" y="236" on="0"/>
        <pt x="136" y="408" on="0"/>
        <pt x="82" y="606" on="0"/>
        <pt x="82" y="713" on="1"/>
        <pt x="82" y="820" on="0"/>
        <pt x="136" y="1018" on="0"/>
        <pt x="234" y="1190" on="0"/>
        <pt x="372" y="1331" on="0"/>
        <pt x="540" y="1432" on="0"/>
        <pt x="734" y="1487" on="0"/>
        <pt x="838" y="1487" on="1"/>
        <pt x="927" y="1487" on="0"/>
        <pt x="1093" y="1447" on="0"/>
        <pt x="1243" y="1373" on="0"/>
        <pt x="1373" y="1267" on="0"/>
        <pt x="1425" y="1202" on="1"/>
        <pt x="1272" y="1077" on="1"/>
        <pt x="1194" y="1174" on="0"/>
        <pt x="971" y="1288" on="0"/>
        <pt x="838" y="1288" on="1"/>
        <pt x="722" y="1288" on="0"/>
        <pt x="520" y="1197" on="0"/>
        <pt x="368" y="1041" on="0"/>
        <pt x="281" y="832" on="0"/>
        <pt x="281" y="713" on="1"/>
        <pt x="281" y="594" on="0"/>
        <pt x="368" y="384" on="0"/>
        <pt x="520" y="228" on="0"/>
        <pt x="722" y="137" on="0"/>
        <pt x="838" y="137" on="1"/>
        <pt x="908" y="137" on="0"/>
        <pt x="1038" y="171" on="0"/>
        <pt x="1153" y="233" on="0"/>
        <pt x="1252" y="321" on="0"/>
        <pt x="1290" y="375" on="1"/>
      </contour>
    </TTGlyph>
    <TTGlyph name="Cacute" xMin="82" yMin="-61" xMax="1452" yMax="1991">
      <component glyphName="C" x="0" y="0" flags="0x204"/>
      <component glyphName="acute" x="739" y="389" flags="0x4"/>
    </TTGlyph>
    <TTGlyph name="Ccaron" xMin="82" yMin="-61" xMax="1452" yMax="2005">
      <component glyphName="C" x="0" y="0" flags="0x204"/>
      <component glyphName="caron" x="477" y="418" flags="0x4"/>
    </TTGlyph>
    <TTGlyph name="Ccedilla" xMin="84" yMin="-590" xMax="1454" yMax="1487">
      <contour>
        <pt x="989" y="-410" on="1"/>
        <pt x="981" y="-461" on="0"/>
        <pt x="932" y="-530" on="0"/>
        <pt x="864" y="-572" on="0"/>
        <pt x="784" y="-590" on="0"/>
        <pt x="745" y="-590" on="1"/>
        <pt x="679" y="-590" on="0"/>
        <pt x="569" y="-543" on="0"/>
        <pt x="510" y="-506" on="1"/>
        <pt x="567" y="-377" on="1"/>
        <pt x="601" y="-406" on="0"/>
        <pt x="666" y="-437" on="0"/>
        <pt x="692" y="-445" on="1"/>
        <pt x="722" y="-454" on="0"/>
        <pt x="750" y="-455" on="1"/>
        <pt x="790" y="-455" on="0"/>
        <pt x="836" y="-403" on="0"/>
        <pt x="836" y="-369" on="1"/>
        <pt x="836" y="-343" on="0"/>
        <pt x="805" y="-293" on="0"/>
        <pt x="770" y="-276" on="1"/>
        <pt x="743" y="-265" on="0"/>
        <pt x="712" y="-257" on="1"/>
        <pt x="686" y="-250" on="0"/>
        <pt x="619" y="-244" on="0"/>
        <pt x="584" y="-250" on="1"/>
        <pt x="678" y="-43" on="1"/>
        <pt x="550" y="-15" on="0"/>
        <pt x="333" y="124" on="0"/>
        <pt x="174" y="324" on="0"/>
        <pt x="84" y="574" on="0"/>
        <pt x="84" y="713" on="1"/>
        <pt x="84" y="820" on="0"/>
        <pt x="138" y="1018" on="0"/>
        <pt x="236" y="1190" on="0"/>
        <pt x="374" y="1331" on="0"/>
        <pt x="542" y="1432" on="0"/>
        <pt x="736" y="1487" on="0"/>
        <pt x="840" y="1487" on="1"/>
        <pt x="929" y="1487" on="0"/>
        <pt x="1095" y="1447" on="0"/>
        <pt x="1245" y="1373" on="0"/>
        <pt x="1375" y="1267" on="0"/>
        <pt x="1427" y="1202" on="1"/>
        <pt x="1274" y="1077" on="1"/>
        <pt x="1196" y="1174" on="0"/>
        <pt x="973" y="1288" on="0"/>
        <pt x="840" y="1288" on="1"/>
        <pt x="724" y="1288" on="0"/>
        <pt x="522" y="1197" on="0"/>
        <pt x="370" y="1041" on="0"/>
        <pt x="283" y="832" on="0"/>
        <pt x="283" y="713" on="1"/>
        <pt x="283" y="594" on="0"/>
        <pt x="370" y="384" on="0"/>
        <pt x="522" y="228" on="0"/>
        <pt x="724" y="137" on="0"/>
        <pt x="840" y="137" on="1"/>
        <pt x="910" y="137" on="0"/>
        <pt x="1040" y="171" on="0"/>
        <pt x="1155" y="233" on="0"/>
        <pt x="1254" y="321" on="0"/>
        <pt x="1292" y="375" on="1"/>
        <pt x="1454" y="262" on="1"/>
        <pt x="1403" y="188" on="0"/>
        <pt x="1269" y="69" on="0"/>
        <pt x="1112" y="-15" on="0"/>
        <pt x="935" y="-61" on="0"/>
        <pt x="840" y="-61" on="1"/>
        <pt x="824" y="-61" on="0"/>
        <pt x="796" y="-59" on="0"/>
        <pt x="780" y="-57" on="1"/>
        <pt x="748" y="-154" on="1"/>
        <pt x="800" y="-157" on="0"/>
        <pt x="876" y="-182" on="0"/>
        <pt x="930" y="-219" on="0"/>
        <pt x="963" y="-265" on="0"/>
        <pt x="973" y="-288" on="1"/>
        <pt x="995" y="-343" on="0"/>
      </contour>
    </TTGlyph>
    <TTGlyph name="Ccircumflex" xMin="82" yMin="-61" xMax="1452" yMax="1945">
      <component glyphName="C" x="0" y="0" flags="0x204"/>
      <component glyphName="circumflex" x="483" y="403" flags="0x4"/>
    </TTGlyph>
    <TTGlyph name="Cdotaccent" xMin="82" yMin="-61" xMax="1452" yMax="1825">
      <component glyphName="C" x="0" y="0" flags="0x204"/>
      <component glyphName="dotaccent" x="694" y="381" flags="0x4"/>
    </TTGlyph>
    <TTGlyph name="D" xMin="170" yMin="-47" xMax="1460" yMax="1460">
      <contour>
        <pt x="1460" y="735" on="1"/>
        <pt x="1460" y="595" on="0"/>
        <pt x="1363" y="370" on="0"/>
        <pt x="1198" y="196" on="0"/>
        <pt x="978" y="71" on="0"/>
        <pt x="734" y="-9" on="0"/>
        <pt x="480" y="-47" on="0"/>
        <pt x="362" y="-47" on="1"/>
        <pt x="322" y="-47" on="0"/>
        <pt x="244" y="-43" on="0"/>
        <pt x="209" y="-37" on="1"/>
        <pt x="170" y="1448" on="1"/>
        <pt x="248" y="1454" on="0"/>
        <pt x="392" y="1460" on="0"/>
        <pt x="455" y="1460" on="1"/>
        <pt x="566" y="1460" on="0"/>
        <pt x="802" y="1443" on="0"/>
        <pt x="1025" y="1390" on="0"/>
        <pt x="1224" y="1292" on="0"/>
        <pt x="1373" y="1131" on="0"/>
        <pt x="1460" y="897" on="0"/>
      </contour>
      <contour>
        <pt x="1272" y="745" on="1"/>
        <pt x="1269" y="842" on="0"/>
        <pt x="1209" y="999" on="0"/>
        <pt x="1106" y="1119" on="0"/>
        <pt x="968" y="1206" on="0"/>
        <pt x="808" y="1262" on="0"/>
        <pt x="632" y="1288" on="0"/>
        <pt x="543" y="1288" on="1"/>
        <pt x="505" y="1288" on="0"/>
        <pt x="420" y="1283" on="0"/>
        <pt x="375" y="1278" on="1"/>
        <pt x="406" y="147" on="1"/>
        <pt x="423" y="145" on="0"/>
        <pt x="458" y="145" on="0"/>
        <pt x="475" y="145" on="1"/>
        <pt x="575" y="145" on="0"/>
        <pt x="773" y="181" on="0"/>
        <pt x="952" y="251" on="0"/>
        <pt x="1104" y="354" on="0"/>
        <pt x="1214" y="487" on="0"/>
        <pt x="1275" y="650" on="0"/>
      </contour>
    </TTGlyph>
    <TTGlyph name="Dcaron" xMin="170" yMin="-47" xMax="1460" yMax="1990">
      <component glyphName="D" x="0" y="0" flags="0x204"/>
      <component glyphName="caron" x="446" y="403" flags="0x4"/>
    </TTGlyph>
    <TTGlyph name="Dcroat" xMin="27" yMin="-47" xMax="1483" yMax="1460">
      <component glyphName="Eth" x="0" y="0" flags="0x204"/>
    </TTGlyph>
    <TTGlyph name="E" xMin="176" yMin="-8" xMax="1262" yMax="1434">
      <contour>
        <pt x="977" y="539" on="1"/>
        <pt x="383" y="510" on="1"/>
        <pt x="387" y="197" on="1"/>
        <pt x="1251" y="246" on="1"/>
        <pt x="1255" y="49" on="1"/>
        <pt x="199" y="-8" on="1"/>
        <pt x="176" y="1417" on="1"/>
        <pt x="1262" y="1434" on="1"/>
        <pt x="1255" y="1243" on="1"/>
        <pt x="373" y="1229" on="1"/>
        <pt x="379" y="707" on="1"/>
        <pt x="973" y="731" on="1"/>
      </contour>
    </TTGlyph>
    <TTGlyph name="Eacute" xMin="176" yMin="-8" xMax="1262" yMax="1905">
      <component glyphName="E" x="0" y="0" flags="0x204"/>
      <component glyphName="acute" x="625" y="303" flags="0x4"/>
    </TTGlyph>
    <TTGlyph name="Ebreve" xMin="176" yMin="-8" xMax="1262" yMax="1919">
      <component glyphName="E" x="0" y="0" flags="0x204"/>
      <component glyphName="breve" x="334" y="340" flags="0x4"/>
    </TTGlyph>
    <TTGlyph name="Ecaron" xMin="176" yMin="-8" xMax="1262" yMax="1947">
      <component glyphName="E" x="0" y="0" flags="0x204"/>
      <component glyphName="caron" x="348" y="360" flags="0x4"/>
    </TTGlyph>
    <TTGlyph name="Ecircumflex" xMin="176" yMin="-8" xMax="1262" yMax="1925">
      <component glyphName="E" x="0" y="0" flags="0x204"/>
      <component glyphName="circumflex" x="387" y="383" flags="0x4"/>
    </TTGlyph>
    <TTGlyph name="Edieresis" xMin="176" yMin="-8" xMax="1262" yMax="1751">
      <component glyphName="E" x="0" y="0" flags="0x204"/>
      <component glyphName="dieresis" x="348" y="307" flags="0x4"/>
    </TTGlyph>
    <TTGlyph name="Edotaccent" xMin="176" yMin="-8" xMax="1262" yMax="1766">
      <component glyphName="E" x="0" y="0" flags="0x204"/>
      <component glyphName="dotaccent" x="557" y="322" flags="0x4"/>
    </TTGlyph>
    <TTGlyph name="Egrave" xMin="176" yMin="-8" xMax="1262" yMax="1927">
      <component glyphName="E" x="0" y="0" flags="0x204"/>
      <component glyphName="grave" x="379" y="307" flags="0x4"/>
    </TTGlyph>
    <TTGlyph name="Emacron" xMin="176" yMin="-8" xMax="1262" yMax="1745">
      <component glyphName="E" x="0" y="0" flags="0x204"/>
      <component glyphName="macron" x="279" y="307" flags="0x4"/>
    </TTGlyph>
    <TTGlyph name="Eng" xMin="180" yMin="-729" xMax="1505" yMax="1440">
      <contour>
        <pt x="1501" y="-147" on="1"/>
        <pt x="1501" y="-271" on="0"/>
        <pt x="1415" y="-476" on="0"/>
        <pt x="1262" y="-626" on="0"/>
        <pt x="1054" y="-714" on="0"/>
        <pt x="932" y="-721" on="1"/>
        <pt x="791" y="-729" on="0"/>
        <pt x="578" y="-638" on="0"/>
        <pt x="433" y="-466" on="0"/>
        <pt x="357" y="-227" on="0"/>
        <pt x="354" y="-88" on="1"/>
        <pt x="565" y="-66" on="1"/>
        <pt x="562" y="-157" on="0"/>
        <pt x="589" y="-293" on="0"/>
        <pt x="639" y="-391" on="0"/>
        <pt x="705" y="-455" on="0"/>
        <pt x="740" y="-475" on="1"/>
        <pt x="822" y="-522" on="0"/>
        <pt x="928" y="-520" on="1"/>
        <pt x="1045" y="-511" on="0"/>
        <pt x="1192" y="-418" on="0"/>
        <pt x="1274" y="-280" on="0"/>
        <pt x="1303" y="-113" on="0"/>
        <pt x="1303" y="-29" on="1"/>
        <pt x="1303" y="-28" on="0"/>
        <pt x="1299" y="-20" on="0"/>
        <pt x="1278" y="9" on="0"/>
        <pt x="1231" y="69" on="0"/>
        <pt x="1146" y="175" on="0"/>
        <pt x="1014" y="337" on="0"/>
        <pt x="823" y="570" on="0"/>
        <pt x="565" y="882" on="0"/>
        <pt x="395" y="1087" on="1"/>
        <pt x="408" y="8" on="1"/>
        <pt x="199" y="0" on="1"/>
        <pt x="180" y="1430" on="1"/>
        <pt x="391" y="1440" on="1"/>
        <pt x="1286" y="332" on="1"/>
        <pt x="1270" y="1425" on="1"/>
        <pt x="1493" y="1409" on="1"/>
        <pt x="1505" y="35" on="1"/>
        <pt x="1501" y="35" on="1"/>
      </contour>
    </TTGlyph>
    <TTGlyph name="Eogonek" xMin="176" yMin="-459" xMax="1309" yMax="1434">
      <contour>
        <pt x="1309" y="-324" on="1"/>
        <pt x="1277" y="-362" on="0"/>
        <pt x="1213" y="-414" on="0"/>
        <pt x="1153" y="-446" on="0"/>
        <pt x="1095" y="-459" on="0"/>
        <pt x="1069" y="-459" on="1"/>
        <pt x="1024" y="-459" on="0"/>
        <pt x="941" y="-429" on="0"/>
        <pt x="877" y="-373" on="0"/>
        <pt x="838" y="-293" on="0"/>
        <pt x="838" y="-244" on="1"/>
        <pt x="838" y="-219" on="0"/>
        <pt x="849" y="-158" on="0"/>
        <pt x="876" y="-88" on="0"/>
        <pt x="923" y="-10" on="0"/>
        <pt x="958" y="33" on="1"/>
        <pt x="199" y="-8" on="1"/>
        <pt x="176" y="1417" on="1"/>
        <pt x="1262" y="1434" on="1"/>
        <pt x="1255" y="1243" on="1"/>
        <pt x="373" y="1229" on="1"/>
        <pt x="379" y="707" on="1"/>
        <pt x="973" y="731" on="1"/>
        <pt x="977" y="539" on="1"/>
        <pt x="383" y="510" on="1"/>
        <pt x="387" y="197" on="1"/>
        <pt x="1251" y="246" on="1"/>
        <pt x="1255" y="49" on="1"/>
        <pt x="1199" y="32" on="0"/>
        <pt x="1119" y="-13" on="0"/>
        <pt x="1064" y="-64" on="0"/>
        <pt x="1032" y="-118" on="0"/>
        <pt x="1023" y="-143" on="1"/>
        <pt x="1003" y="-203" on="0"/>
        <pt x="1014" y="-268" on="1"/>
        <pt x="1020" y="-277" on="0"/>
        <pt x="1030" y="-284" on="1"/>
        <pt x="1038" y="-290" on="0"/>
        <pt x="1062" y="-299" on="0"/>
        <pt x="1079" y="-299" on="1"/>
        <pt x="1105" y="-299" on="0"/>
        <pt x="1176" y="-262" on="0"/>
        <pt x="1223" y="-211" on="1"/>
      </contour>
    </TTGlyph>
    <TTGlyph name="Eth" xMin="27" yMin="-47" xMax="1483" yMax="1460">
      <contour>
        <pt x="1483" y="735" on="1"/>
        <pt x="1483" y="595" on="0"/>
        <pt x="1386" y="370" on="0"/>
        <pt x="1220" y="196" on="0"/>
        <pt x="1001" y="71" on="0"/>
        <pt x="757" y="-9" on="0"/>
        <pt x="503" y="-47" on="0"/>
        <pt x="385" y="-47" on="1"/>
        <pt x="345" y="-47" on="0"/>
        <pt x="267" y="-43" on="0"/>
        <pt x="231" y="-37" on="1"/>
        <pt x="215" y="625" on="1"/>
        <pt x="33" y="621" on="1"/>
        <pt x="27" y="829" on="1"/>
        <pt x="209" y="834" on="1"/>
        <pt x="193" y="1448" on="1"/>
        <pt x="349" y="1460" on="0"/>
        <pt x="477" y="1460" on="1"/>
        <pt x="589" y="1460" on="0"/>
        <pt x="825" y="1443" on="0"/>
        <pt x="1048" y="1390" on="0"/>
        <pt x="1247" y="1292" on="0"/>
        <pt x="1396" y="1131" on="0"/>
        <pt x="1483" y="897" on="0"/>
      </contour>
      <contour>
        <pt x="823" y="643" on="1"/>
        <pt x="416" y="631" on="1"/>
        <pt x="428" y="147" on="1"/>
        <pt x="445" y="145" on="0"/>
        <pt x="481" y="145" on="0"/>
        <pt x="498" y="145" on="1"/>
        <pt x="598" y="145" on="0"/>
        <pt x="796" y="181" on="0"/>
        <pt x="974" y="251" on="0"/>
        <pt x="1127" y="354" on="0"/>
        <pt x="1237" y="487" on="0"/>
        <pt x="1297" y="650" on="0"/>
        <pt x="1294" y="745" on="1"/>
        <pt x="1291" y="842" on="0"/>
        <pt x="1231" y="999" on="0"/>
        <pt x="1129" y="1119" on="0"/>
        <pt x="991" y="1206" on="0"/>
        <pt x="830" y="1262" on="0"/>
        <pt x="654" y="1288" on="0"/>
        <pt x="565" y="1288" on="1"/>
        <pt x="527" y="1288" on="0"/>
        <pt x="442" y="1283" on="0"/>
        <pt x="397" y="1278" on="1"/>
        <pt x="410" y="840" on="1"/>
        <pt x="823" y="852" on="1"/>
      </contour>
    </TTGlyph>
    <TTGlyph name="Euro" xMin="76" yMin="-61" xMax="1788" yMax="1487">
      <contour>
        <pt x="1147" y="805" on="1"/>
        <pt x="621" y="793" on="1"/>
        <pt x="619" y="773" on="0"/>
        <pt x="616" y="733" on="0"/>
        <pt x="616" y="713" on="1"/>
        <pt x="616" y="682" on="0"/>
        <pt x="623" y="623" on="0"/>
        <pt x="629" y="594" on="1"/>
        <pt x="1100" y="592" on="1"/>
        <pt x="1042" y="418" on="1"/>
        <pt x="696" y="414" on="1"/>
        <pt x="733" y="352" on="0"/>
        <pt x="835" y="250" on="0"/>
        <pt x="957" y="177" on="0"/>
        <pt x="1098" y="137" on="0"/>
        <pt x="1174" y="137" on="1"/>
        <pt x="1244" y="137" on="0"/>
        <pt x="1374" y="171" on="0"/>
        <pt x="1489" y="233" on="0"/>
        <pt x="1588" y="321" on="0"/>
        <pt x="1626" y="375" on="1"/>
        <pt x="1788" y="262" on="1"/>
        <pt x="1737" y="188" on="0"/>
        <pt x="1603" y="69" on="0"/>
        <pt x="1446" y="-15" on="0"/>
        <pt x="1269" y="-61" on="0"/>
        <pt x="1174" y="-61" on="1"/>
        <pt x="1056" y="-61" on="0"/>
        <pt x="841" y="8" on="0"/>
        <pt x="660" y="133" on="0"/>
        <pt x="520" y="307" on="0"/>
        <pt x="477" y="412" on="1"/>
        <pt x="76" y="408" on="1"/>
        <pt x="133" y="596" on="1"/>
        <pt x="426" y="594" on="1"/>
        <pt x="421" y="623" on="0"/>
        <pt x="418" y="682" on="0"/>
        <pt x="418" y="713" on="1"/>
        <pt x="418" y="731" on="0"/>
        <pt x="418" y="770" on="0"/>
        <pt x="420" y="788" on="1"/>
        <pt x="168" y="782" on="1"/>
        <pt x="213" y="950" on="1"/>
        <pt x="455" y="954" on="1"/>
        <pt x="492" y="1070" on="0"/>
        <pt x="632" y="1266" on="0"/>
        <pt x="820" y="1408" on="0"/>
        <pt x="1048" y="1487" on="0"/>
        <pt x="1174" y="1487" on="1"/>
        <pt x="1263" y="1487" on="0"/>
        <pt x="1429" y="1447" on="0"/>
        <pt x="1579" y="1373" on="0"/>
        <pt x="1709" y="1267" on="0"/>
        <pt x="1761" y="1202" on="1"/>
        <pt x="1608" y="1077" on="1"/>
        <pt x="1530" y="1174" on="0"/>
        <pt x="1307" y="1288" on="0"/>
        <pt x="1174" y="1288" on="1"/>
        <pt x="1091" y="1288" on="0"/>
        <pt x="938" y="1240" on="0"/>
        <pt x="807" y="1153" on="0"/>
        <pt x="704" y="1033" on="0"/>
        <pt x="670" y="961" on="1"/>
        <pt x="1198" y="973" on="1"/>
      </contour>
    </TTGlyph>
    <TTGlyph name="F" xMin="176" yMin="-8" xMax="1262" yMax="1434">
      <contour>
        <pt x="977" y="539" on="1"/>
        <pt x="383" y="510" on="1"/>
        <pt x="391" y="0" on="1"/>
        <pt x="199" y="-8" on="1"/>
        <pt x="176" y="1417" on="1"/>
        <pt x="1262" y="1434" on="1"/>
        <pt x="1255" y="1243" on="1"/>
        <pt x="373" y="1229" on="1"/>
        <pt x="381" y="707" on="1"/>
        <pt x="973" y="731" on="1"/>
      </contour>
    </TTGlyph>
    <TTGlyph name="G" xMin="82" yMin="-61" xMax="1452" yMax="1487">
      <contour>
        <pt x="1452" y="262" on="1"/>
        <pt x="1401" y="188" on="0"/>
        <pt x="1267" y="69" on="0"/>
        <pt x="1110" y="-15" on="0"/>
        <pt x="933" y="-61" on="0"/>
        <pt x="838" y="-61" on="1"/>
        <pt x="733" y="-61" on="0"/>
        <pt x="540" y="-6" on="0"/>
        <pt x="372" y="95" on="0"/>
        <pt x="234" y="236" on="0"/>
        <pt x="136" y="408" on="0"/>
        <pt x="82" y="606" on="0"/>
        <pt x="82" y="713" on="1"/>
        <pt x="82" y="820" on="0"/>
        <pt x="136" y="1018" on="0"/>
        <pt x="234" y="1190" on="0"/>
        <pt x="372" y="1331" on="0"/>
        <pt x="540" y="1432" on="0"/>
        <pt x="734" y="1487" on="0"/>
        <pt x="838" y="1487" on="1"/>
        <pt x="927" y="1487" on="0"/>
        <pt x="1093" y="1447" on="0"/>
        <pt x="1243" y="1373" on="0"/>
        <pt x="1373" y="1267" on="0"/>
        <pt x="1425" y="1202" on="1"/>
        <pt x="1272" y="1077" on="1"/>
        <pt x="1194" y="1174" on="0"/>
        <pt x="971" y="1288" on="0"/>
        <pt x="838" y="1288" on="1"/>
        <pt x="722" y="1288" on="0"/>
        <pt x="520" y="1197" on="0"/>
        <pt x="368" y="1041" on="0"/>
        <pt x="281" y="832" on="0"/>
        <pt x="281" y="713" on="1"/>
        <pt x="281" y="594" on="0"/>
        <pt x="368" y="384" on="0"/>
        <pt x="520" y="228" on="0"/>
        <pt x="722" y="137" on="0"/>
        <pt x="838" y="137" on="1"/>
        <pt x="959" y="137" on="0"/>
        <pt x="1168" y="234" on="0"/>
        <pt x="1245" y="319" on="1"/>
        <pt x="1241" y="532" on="1"/>
        <pt x="629" y="508" on="1"/>
        <pt x="629" y="717" on="1"/>
        <pt x="1436" y="743" on="1"/>
      </contour>
    </TTGlyph>
    <TTGlyph name="Gbreve" xMin="82" yMin="-61" xMax="1452" yMax="1954">
      <component glyphName="G" x="0" y="0" flags="0x204"/>
      <component glyphName="breve" x="440" y="375" flags="0x4"/>
    </TTGlyph>
    <TTGlyph name="Gcircumflex" xMin="82" yMin="-61" xMax="1452" yMax="1945">
      <component glyphName="G" x="0" y="0" flags="0x204"/>
      <component glyphName="circumflex" x="442" y="403" flags="0x4"/>
    </TTGlyph>
    <TTGlyph name="Gcommaaccent" xMin="82" yMin="-514" xMax="1452" yMax="1487">
      <component glyphName="G" x="0" y="0" flags="0x204"/>
      <component glyphName="uni0326" x="604" y="0" flags="0x4"/>
    </TTGlyph>
    <TTGlyph name="Gdotaccent" xMin="82" yMin="-61" xMax="1452" yMax="1809">
      <component glyphName="G" x="0" y="0" flags="0x204"/>
      <component glyphName="dotaccent" x="670" y="365" flags="0x4"/>
    </TTGlyph>
    <TTGlyph name="H" xMin="180" yMin="0" xMax="1505" yMax="1440">
      <contour>
        <pt x="399" y="639" on="1"/>
        <pt x="1280" y="682" on="1"/>
        <pt x="1270" y="1425" on="1"/>
        <pt x="1493" y="1409" on="1"/>
        <pt x="1505" y="35" on="1"/>
        <pt x="1290" y="18" on="1"/>
        <pt x="1284" y="496" on="1"/>
        <pt x="401" y="457" on="1"/>
        <pt x="408" y="8" on="1"/>
        <pt x="199" y="0" on="1"/>
        <pt x="180" y="1430" on="1"/>
        <pt x="391" y="1440" on="1"/>
      </contour>
    </TTGlyph>
    <TTGlyph name="Hbar" xMin="104" yMin="0" xMax="1581" yMax="1440">
      <contour>
        <pt x="395" y="1016" on="1"/>
        <pt x="1274" y="1040" on="1"/>
        <pt x="1270" y="1425" on="1"/>
        <pt x="1493" y="1409" on="1"/>
        <pt x="1495" y="1047" on="1"/>
        <pt x="1581" y="1049" on="1"/>
        <pt x="1581" y="879" on="1"/>
        <pt x="1497" y="877" on="1"/>
        <pt x="1505" y="35" on="1"/>
        <pt x="1290" y="18" on="1"/>
        <pt x="1284" y="496" on="1"/>
        <pt x="401" y="457" on="1"/>
        <pt x="408" y="8" on="1"/>
        <pt x="199" y="0" on="1"/>
        <pt x="186" y="840" on="1"/>
        <pt x="104" y="838" on="1"/>
        <pt x="104" y="1008" on="1"/>
        <pt x="184" y="1010" on="1"/>
        <pt x="180" y="1430" on="1"/>
        <pt x="391" y="1440" on="1"/>
      </contour>
      <contour>
        <pt x="1276" y="870" on="1"/>
        <pt x="397" y="846" on="1"/>
        <pt x="399" y="639" on="1"/>
        <pt x="1280" y="682" on="1"/>
      </contour>
    </TTGlyph>
    <TTGlyph name="Hcircumflex" xMin="180" yMin="0" xMax="1505" yMax="1833">
      <component glyphName="H" x="0" y="0" flags="0x204"/>
      <component glyphName="circumflex" x="512" y="291" flags="0x4"/>
    </TTGlyph>
    <TTGlyph name="I" xMin="172" yMin="35" xMax="408" yMax="1425">
      <contour>
        <pt x="408" y="35" on="1"/>
        <pt x="207" y="35" on="1"/>
        <pt x="172" y="1425" on="1"/>
        <pt x="395" y="1417" on="1"/>
      </contour>
    </TTGlyph>
    <TTGlyph name="IJ" xMin="172" yMin="-66" xMax="1782" yMax="1438">
      <component glyphName="I" x="0" y="0" flags="0x4"/>
      <component glyphName="J" x="590" y="0" flags="0x4"/>
    </TTGlyph>
    <TTGlyph name="Iacute" xMin="172" yMin="35" xMax="615" yMax="1921">
      <component glyphName="I" x="0" y="0" flags="0x204"/>
      <component glyphName="acute" x="236" y="319" flags="0x4"/>
    </TTGlyph>
    <TTGlyph name="Ibreve" xMin="-44" yMin="35" xMax="633" yMax="1919">
      <component glyphName="I" x="0" y="0" flags="0x204"/>
      <component glyphName="breve" x="-44" y="340" flags="0x4"/>
    </TTGlyph>
    <TTGlyph name="Icircumflex" xMin="-46" yMin="35" xMax="616" yMax="1925">
      <component glyphName="I" x="0" y="0" flags="0x204"/>
      <component glyphName="circumflex" x="-46" y="383" flags="0x4"/>
    </TTGlyph>
    <TTGlyph name="Idieresis" xMin="-12" yMin="35" xMax="592" yMax="1774">
      <contour>
        <pt x="592" y="1657" on="1"/>
        <pt x="592" y="1632" on="0"/>
        <pt x="574" y="1589" on="0"/>
        <pt x="542" y="1557" on="0"/>
        <pt x="500" y="1538" on="0"/>
        <pt x="475" y="1538" on="1"/>
        <pt x="451" y="1538" on="0"/>
        <pt x="407" y="1557" on="0"/>
        <pt x="375" y="1589" on="0"/>
        <pt x="356" y="1632" on="0"/>
        <pt x="356" y="1657" on="1"/>
        <pt x="356" y="1681" on="0"/>
        <pt x="375" y="1724" on="0"/>
        <pt x="407" y="1756" on="0"/>
        <pt x="451" y="1774" on="0"/>
        <pt x="475" y="1774" on="1"/>
        <pt x="500" y="1774" on="0"/>
        <pt x="542" y="1756" on="0"/>
        <pt x="574" y="1724" on="0"/>
        <pt x="592" y="1681" on="0"/>
      </contour>
      <contour>
        <pt x="223" y="1657" on="1"/>
        <pt x="223" y="1632" on="0"/>
        <pt x="204" y="1589" on="0"/>
        <pt x="172" y="1557" on="0"/>
        <pt x="129" y="1538" on="0"/>
        <pt x="104" y="1538" on="1"/>
        <pt x="80" y="1538" on="0"/>
        <pt x="38" y="1557" on="0"/>
        <pt x="7" y="1589" on="0"/>
        <pt x="-12" y="1632" on="0"/>
        <pt x="-12" y="1657" on="1"/>
        <pt x="-12" y="1681" on="0"/>
        <pt x="7" y="1724" on="0"/>
        <pt x="38" y="1756" on="0"/>
        <pt x="80" y="1774" on="0"/>
        <pt x="104" y="1774" on="1"/>
        <pt x="129" y="1774" on="0"/>
        <pt x="172" y="1756" on="0"/>
        <pt x="204" y="1724" on="0"/>
        <pt x="223" y="1681" on="0"/>
      </contour>
      <contour>
        <pt x="408" y="35" on="1"/>
        <pt x="207" y="35" on="1"/>
        <pt x="172" y="1425" on="1"/>
        <pt x="395" y="1417" on="1"/>
      </contour>
    </TTGlyph>
    <TTGlyph name="Idotaccent" xMin="162" yMin="35" xMax="408" yMax="1780">
      <component glyphName="I" x="0" y="0" flags="0x204"/>
      <component glyphName="dotaccent" x="162" y="336" flags="0x4"/>
    </TTGlyph>
    <TTGlyph name="Igrave" xMin="-48" yMin="35" xMax="408" yMax="1929">
      <component glyphName="I" x="0" y="0" flags="0x204"/>
      <component glyphName="grave" x="-48" y="309" flags="0x4"/>
    </TTGlyph>
    <TTGlyph name="Imacron" xMin="-99" yMin="35" xMax="694" yMax="1770">
      <component glyphName="I" x="0" y="0" flags="0x204"/>
      <component glyphName="macron" x="-99" y="332" flags="0x4"/>
    </TTGlyph>
    <TTGlyph name="Iogonek" xMin="100" yMin="-444" xMax="571" yMax="1425">
      <contour>
        <pt x="571" y="-309" on="1"/>
        <pt x="506" y="-386" on="0"/>
        <pt x="384" y="-444" on="0"/>
        <pt x="332" y="-444" on="1"/>
        <pt x="287" y="-444" on="0"/>
        <pt x="204" y="-414" on="0"/>
        <pt x="139" y="-358" on="0"/>
        <pt x="100" y="-278" on="0"/>
        <pt x="100" y="-229" on="1"/>
        <pt x="100" y="-205" on="0"/>
        <pt x="110" y="-147" on="0"/>
        <pt x="136" y="-80" on="0"/>
        <pt x="179" y="-6" on="0"/>
        <pt x="211" y="35" on="1"/>
        <pt x="207" y="35" on="1"/>
        <pt x="172" y="1425" on="1"/>
        <pt x="395" y="1417" on="1"/>
        <pt x="408" y="35" on="1"/>
        <pt x="372" y="5" on="0"/>
        <pt x="322" y="-52" on="0"/>
        <pt x="290" y="-104" on="0"/>
        <pt x="273" y="-151" on="0"/>
        <pt x="270" y="-170" on="1"/>
        <pt x="262" y="-216" on="0"/>
        <pt x="276" y="-254" on="1"/>
        <pt x="283" y="-263" on="0"/>
        <pt x="293" y="-270" on="1"/>
        <pt x="301" y="-276" on="0"/>
        <pt x="325" y="-285" on="0"/>
        <pt x="342" y="-285" on="1"/>
        <pt x="368" y="-285" on="0"/>
        <pt x="439" y="-248" on="0"/>
        <pt x="485" y="-197" on="1"/>
      </contour>
    </TTGlyph>
    <TTGlyph name="Itilde" xMin="-116" yMin="35" xMax="707" yMax="1974">
      <component glyphName="I" x="0" y="0" flags="0x204"/>
      <component glyphName="tilde" x="-116" y="403" flags="0x4"/>
    </TTGlyph>
    <TTGlyph name="J" xMin="45" yMin="-66" xMax="1192" yMax="1438">
      <contour>
        <pt x="1192" y="516" on="1"/>
        <pt x="1192" y="392" on="0"/>
        <pt x="1106" y="187" on="0"/>
        <pt x="953" y="38" on="0"/>
        <pt x="745" y="-50" on="0"/>
        <pt x="623" y="-57" on="1"/>
        <pt x="482" y="-66" on="0"/>
        <pt x="269" y="26" on="0"/>
        <pt x="124" y="198" on="0"/>
        <pt x="48" y="436" on="0"/>
        <pt x="45" y="575" on="1"/>
        <pt x="256" y="598" on="1"/>
        <pt x="253" y="507" on="0"/>
        <pt x="280" y="371" on="0"/>
        <pt x="329" y="273" on="0"/>
        <pt x="395" y="209" on="0"/>
        <pt x="430" y="189" on="1"/>
        <pt x="512" y="142" on="0"/>
        <pt x="618" y="143" on="1"/>
        <pt x="696" y="149" on="0"/>
        <pt x="813" y="196" on="0"/>
        <pt x="896" y="268" on="0"/>
        <pt x="950" y="361" on="0"/>
        <pt x="981" y="466" on="0"/>
        <pt x="993" y="579" on="0"/>
        <pt x="993" y="635" on="1"/>
        <pt x="993" y="693" on="0"/>
        <pt x="988" y="856" on="0"/>
        <pt x="981" y="1034" on="0"/>
        <pt x="972" y="1210" on="0"/>
        <pt x="963" y="1349" on="0"/>
        <pt x="955" y="1434" on="0"/>
        <pt x="952" y="1434" on="1"/>
        <pt x="1169" y="1438" on="1"/>
        <pt x="1171" y="1437" on="0"/>
        <pt x="1176" y="1343" on="0"/>
        <pt x="1181" y="1189" on="0"/>
        <pt x="1186" y="994" on="0"/>
        <pt x="1190" y="789" on="0"/>
        <pt x="1192" y="593" on="0"/>
      </contour>
    </TTGlyph>
    <TTGlyph name="Jcircumflex" xMin="45" yMin="-66" xMax="1362" yMax="1921">
      <component glyphName="J" x="0" y="0" flags="0x204"/>
      <component glyphName="circumflex" x="700" y="379" flags="0x4"/>
    </TTGlyph>
    <TTGlyph name="K" xMin="176" yMin="-27" xMax="1409" yMax="1434">
      <contour>
        <pt x="408" y="573" on="1"/>
        <pt x="1165" y="1434" on="1"/>
        <pt x="1389" y="1405" on="1"/>
        <pt x="920" y="870" on="1"/>
        <pt x="1409" y="8" on="1"/>
        <pt x="1174" y="-27" on="1"/>
        <pt x="788" y="721" on="1"/>
        <pt x="414" y="293" on="1"/>
        <pt x="422" y="-4" on="1"/>
        <pt x="199" y="-8" on="1"/>
        <pt x="176" y="1409" on="1"/>
        <pt x="387" y="1425" on="1"/>
      </contour>
    </TTGlyph>
    <TTGlyph name="Kcommaaccent" xMin="176" yMin="-422" xMax="1409" yMax="1434">
      <component glyphName="K" x="0" y="0" flags="0x204"/>
      <component glyphName="uni0326" x="467" y="92" flags="0x4"/>
    </TTGlyph>
    <TTGlyph name="L" xMin="184" yMin="-98" xMax="1280" yMax="1434">
      <contour>
        <pt x="1280" y="-23" on="1"/>
        <pt x="190" y="-98" on="1"/>
        <pt x="184" y="1423" on="1"/>
        <pt x="391" y="1434" on="1"/>
        <pt x="385" y="121" on="1"/>
        <pt x="1270" y="190" on="1"/>
      </contour>
    </TTGlyph>
    <TTGlyph name="Lacute" xMin="184" yMin="-98" xMax="1280" yMax="1938">
      <component glyphName="L" x="0" y="0" flags="0x204"/>
      <component glyphName="acute" x="262" y="336" flags="0x4"/>
    </TTGlyph>
    <TTGlyph name="Lcaron" xMin="184" yMin="-98" xMax="1280" yMax="1616">
      <component glyphName="L" x="0" y="0" flags="0x204"/>
      <component glyphName="uni0315" x="530" y="98" flags="0x4"/>
    </TTGlyph>
    <TTGlyph name="Lcommaaccent" xMin="184" yMin="-514" xMax="1280" yMax="1434">
      <component glyphName="L" x="0" y="0" flags="0x204"/>
      <component glyphName="uni0326" x="410" y="0" flags="0x4"/>
    </TTGlyph>
    <TTGlyph name="Ldot" xMin="184" yMin="-98" xMax="1280" yMax="1434">
      <component glyphName="L" x="0" y="0" flags="0x4"/>
      <component glyphName="periodcentered" x="842" y="0" flags="0x4"/>
    </TTGlyph>
    <TTGlyph name="Lslash" xMin="-23" yMin="-98" xMax="1305" yMax="1434">
      <contour>
        <pt x="762" y="838" on="1"/>
        <pt x="412" y="647" on="1"/>
        <pt x="410" y="121" on="1"/>
        <pt x="1294" y="190" on="1"/>
        <pt x="1305" y="-23" on="1"/>
        <pt x="215" y="-98" on="1"/>
        <pt x="213" y="539" on="1"/>
        <pt x="68" y="461" on="1"/>
        <pt x="-23" y="625" on="1"/>
        <pt x="211" y="752" on="1"/>
        <pt x="209" y="1423" on="1"/>
        <pt x="416" y="1434" on="1"/>
        <pt x="412" y="860" on="1"/>
        <pt x="678" y="1006" on="1"/>
      </contour>
    </TTGlyph>
    <TTGlyph name="M" xMin="63" yMin="-84" xMax="1815" yMax="1450">
      <contour>
        <pt x="1815" y="-43" on="1"/>
        <pt x="1608" y="-84" on="1"/>
        <pt x="1407" y="1171" on="1"/>
        <pt x="1077" y="84" on="1"/>
        <pt x="829" y="55" on="1"/>
        <pt x="455" y="1110" on="1"/>
        <pt x="274" y="-37" on="1"/>
        <pt x="63" y="-8" on="1"/>
        <pt x="340" y="1450" on="1"/>
        <pt x="547" y="1450" on="1"/>
        <pt x="950" y="297" on="1"/>
        <pt x="1309" y="1438" on="1"/>
        <pt x="1544" y="1444" on="1"/>
      </contour>
    </TTGlyph>
    <TTGlyph name="N" xMin="180" yMin="0" xMax="1505" yMax="1440">
      <contour>
        <pt x="1286" y="332" on="1"/>
        <pt x="1270" y="1425" on="1"/>
        <pt x="1493" y="1409" on="1"/>
        <pt x="1505" y="35" on="1"/>
        <pt x="1290" y="18" on="1"/>
        <pt x="395" y="1087" on="1"/>
        <pt x="408" y="8" on="1"/>
        <pt x="199" y="0" on="1"/>
        <pt x="180" y="1430" on="1"/>
        <pt x="391" y="1440" on="1"/>
      </contour>
    </TTGlyph>
    <TTGlyph name="Nacute" xMin="180" yMin="0" xMax="1505" yMax="1883">
      <component glyphName="N" x="0" y="0" flags="0x204"/>
      <component glyphName="acute" x="745" y="281" flags="0x4"/>
    </TTGlyph>
    <TTGlyph name="Ncaron" xMin="180" yMin="0" xMax="1505" yMax="1880">
      <component glyphName="N" x="0" y="0" flags="0x204"/>
      <component glyphName="caron" x="516" y="293" flags="0x4"/>
    </TTGlyph>
    <TTGlyph name="Ncommaaccent" xMin="180" yMin="-426" xMax="1505" yMax="1440">
      <component glyphName="N" x="0" y="0" flags="0x204"/>
      <component glyphName="uni0326" x="590" y="88" flags="0x4"/>
    </TTGlyph>
    <TTGlyph name="Ntilde" xMin="180" yMin="0" xMax="1505" yMax="1852">
      <component glyphName="N" x="0" y="0" flags="0x204"/>
      <component glyphName="tilde" x="393" y="281" flags="0x4"/>
    </TTGlyph>
    <TTGlyph name="O" xMin="82" yMin="-68" xMax="1595" yMax="1481">
      <contour>
        <pt x="1595" y="707" on="1"/>
        <pt x="1595" y="600" on="0"/>
        <pt x="1541" y="403" on="0"/>
        <pt x="1442" y="231" on="0"/>
        <pt x="1304" y="89" on="0"/>
        <pt x="1135" y="-12" on="0"/>
        <pt x="942" y="-68" on="0"/>
        <pt x="838" y="-68" on="1"/>
        <pt x="733" y="-68" on="0"/>
        <pt x="540" y="-12" on="0"/>
        <pt x="372" y="89" on="0"/>
        <pt x="234" y="231" on="0"/>
        <pt x="136" y="403" on="0"/>
        <pt x="82" y="600" on="0"/>
        <pt x="82" y="707" on="1"/>
        <pt x="82" y="814" on="0"/>
        <pt x="136" y="1012" on="0"/>
        <pt x="234" y="1184" on="0"/>
        <pt x="372" y="1325" on="0"/>
        <pt x="540" y="1426" on="0"/>
        <pt x="734" y="1481" on="0"/>
        <pt x="838" y="1481" on="1"/>
        <pt x="942" y="1481" on="0"/>
        <pt x="1135" y="1426" on="0"/>
        <pt x="1304" y="1325" on="0"/>
        <pt x="1442" y="1184" on="0"/>
        <pt x="1541" y="1012" on="0"/>
        <pt x="1595" y="814" on="0"/>
      </contour>
      <contour>
        <pt x="1397" y="707" on="1"/>
        <pt x="1397" y="786" on="0"/>
        <pt x="1357" y="933" on="0"/>
        <pt x="1284" y="1061" on="0"/>
        <pt x="1182" y="1166" on="0"/>
        <pt x="1058" y="1241" on="0"/>
        <pt x="915" y="1282" on="0"/>
        <pt x="838" y="1282" on="1"/>
        <pt x="722" y="1282" on="0"/>
        <pt x="520" y="1191" on="0"/>
        <pt x="368" y="1035" on="0"/>
        <pt x="281" y="826" on="0"/>
        <pt x="281" y="707" on="1"/>
        <pt x="281" y="588" on="0"/>
        <pt x="368" y="378" on="0"/>
        <pt x="520" y="222" on="0"/>
        <pt x="722" y="131" on="0"/>
        <pt x="838" y="131" on="1"/>
        <pt x="915" y="131" on="0"/>
        <pt x="1058" y="172" on="0"/>
        <pt x="1182" y="247" on="0"/>
        <pt x="1284" y="352" on="0"/>
        <pt x="1357" y="480" on="0"/>
        <pt x="1397" y="627" on="0"/>
      </contour>
    </TTGlyph>
    <TTGlyph name="OE" xMin="82" yMin="-68" xMax="2482" yMax="1481">
      <contour>
        <pt x="2198" y="539" on="1"/>
        <pt x="1604" y="510" on="1"/>
        <pt x="1608" y="197" on="1"/>
        <pt x="2472" y="246" on="1"/>
        <pt x="2476" y="49" on="1"/>
        <pt x="1419" y="-8" on="1"/>
        <pt x="1415" y="207" on="1"/>
        <pt x="1363" y="144" on="0"/>
        <pt x="1234" y="42" on="0"/>
        <pt x="1087" y="-29" on="0"/>
        <pt x="925" y="-68" on="0"/>
        <pt x="838" y="-68" on="1"/>
        <pt x="733" y="-68" on="0"/>
        <pt x="540" y="-12" on="0"/>
        <pt x="372" y="89" on="0"/>
        <pt x="234" y="231" on="0"/>
        <pt x="136" y="403" on="0"/>
        <pt x="82" y="600" on="0"/>
        <pt x="82" y="707" on="1"/>
        <pt x="82" y="814" on="0"/>
        <pt x="136" y="1012" on="0"/>
        <pt x="234" y="1184" on="0"/>
        <pt x="372" y="1325" on="0"/>
        <pt x="540" y="1426" on="0"/>
        <pt x="734" y="1481" on="0"/>
        <pt x="838" y="1481" on="1"/>
        <pt x="921" y="1481" on="0"/>
        <pt x="1078" y="1445" on="0"/>
        <pt x="1221" y="1379" on="0"/>
        <pt x="1347" y="1284" on="0"/>
        <pt x="1399" y="1225" on="1"/>
        <pt x="1397" y="1417" on="1"/>
        <pt x="2482" y="1434" on="1"/>
        <pt x="2476" y="1243" on="1"/>
        <pt x="1593" y="1229" on="1"/>
        <pt x="1599" y="707" on="1"/>
        <pt x="2193" y="731" on="1"/>
      </contour>
      <contour>
        <pt x="1397" y="707" on="1"/>
        <pt x="1397" y="786" on="0"/>
        <pt x="1357" y="933" on="0"/>
        <pt x="1284" y="1061" on="0"/>
        <pt x="1182" y="1166" on="0"/>
        <pt x="1058" y="1241" on="0"/>
        <pt x="915" y="1282" on="0"/>
        <pt x="838" y="1282" on="1"/>
        <pt x="722" y="1282" on="0"/>
        <pt x="520" y="1191" on="0"/>
        <pt x="368" y="1035" on="0"/>
        <pt x="281" y="826" on="0"/>
        <pt x="281" y="707" on="1"/>
        <pt x="281" y="588" on="0"/>
        <pt x="368" y="378" on="0"/>
        <pt x="520" y="222" on="0"/>
        <pt x="722" y="131" on="0"/>
        <pt x="838" y="131" on="1"/>
        <pt x="915" y="131" on="0"/>
        <pt x="1058" y="172" on="0"/>
        <pt x="1182" y="247" on="0"/>
        <pt x="1284" y="352" on="0"/>
        <pt x="1357" y="480" on="0"/>
        <pt x="1397" y="627" on="0"/>
      </contour>
    </TTGlyph>
    <TTGlyph name="Oacute" xMin="82" yMin="-68" xMax="1595" yMax="1952">
      <component glyphName="O" x="0" y="0" flags="0x204"/>
      <component glyphName="acute" x="791" y="350" flags="0x4"/>
    </TTGlyph>
    <TTGlyph name="Obreve" xMin="82" yMin="-68" xMax="1595" yMax="1954">
      <component glyphName="O" x="0" y="0" flags="0x204"/>
      <component glyphName="breve" x="498" y="375" flags="0x4"/>
    </TTGlyph>
    <TTGlyph name="Ocircumflex" xMin="82" yMin="-68" xMax="1595" yMax="1972">
      <component glyphName="O" x="0" y="0" flags="0x204"/>
      <component glyphName="circumflex" x="508" y="430" flags="0x4"/>
    </TTGlyph>
    <TTGlyph name="Odieresis" xMin="82" yMin="-68" xMax="1595" yMax="1800">
      <component glyphName="O" x="0" y="0" flags="0x204"/>
      <component glyphName="dieresis" x="475" y="356" flags="0x4"/>
    </TTGlyph>
    <TTGlyph name="Ograve" xMin="82" yMin="-68" xMax="1595" yMax="1970">
      <component glyphName="O" x="0" y="0" flags="0x204"/>
      <component glyphName="grave" x="395" y="350" flags="0x4"/>
    </TTGlyph>
    <TTGlyph name="Ohungarumlaut" xMin="82" yMin="-68" xMax="1595" yMax="2085">
      <component glyphName="O" x="0" y="0" flags="0x204"/>
      <component glyphName="hungarumlaut" x="608" y="365" flags="0x4"/>
    </TTGlyph>
    <TTGlyph name="Omacron" xMin="82" yMin="-68" xMax="1595" yMax="1788">
      <component glyphName="O" x="0" y="0" flags="0x204"/>
      <component glyphName="macron" x="442" y="350" flags="0x4"/>
    </TTGlyph>
    <TTGlyph name="Oslash" xMin="82" yMin="-100" xMax="1595" yMax="1509">
      <contour>
        <pt x="1470" y="1479" on="1"/>
        <pt x="1341" y="1284" on="1"/>
        <pt x="1399" y="1231" on="0"/>
        <pt x="1493" y="1102" on="0"/>
        <pt x="1559" y="955" on="0"/>
        <pt x="1595" y="793" on="0"/>
        <pt x="1595" y="707" on="1"/>
        <pt x="1595" y="600" on="0"/>
        <pt x="1541" y="403" on="0"/>
        <pt x="1442" y="231" on="0"/>
        <pt x="1304" y="89" on="0"/>
        <pt x="1135" y="-12" on="0"/>
        <pt x="942" y="-68" on="0"/>
        <pt x="838" y="-68" on="1"/>
        <pt x="744" y="-68" on="0"/>
        <pt x="569" y="-24" on="0"/>
        <pt x="492" y="18" on="1"/>
        <pt x="412" y="-100" on="1"/>
        <pt x="225" y="-68" on="1"/>
        <pt x="346" y="119" on="1"/>
        <pt x="285" y="172" on="0"/>
        <pt x="188" y="302" on="0"/>
        <pt x="119" y="452" on="0"/>
        <pt x="82" y="618" on="0"/>
        <pt x="82" y="707" on="1"/>
        <pt x="82" y="814" on="0"/>
        <pt x="136" y="1012" on="0"/>
        <pt x="234" y="1184" on="0"/>
        <pt x="372" y="1325" on="0"/>
        <pt x="540" y="1426" on="0"/>
        <pt x="734" y="1481" on="0"/>
        <pt x="838" y="1481" on="1"/>
        <pt x="931" y="1481" on="0"/>
        <pt x="1103" y="1437" on="0"/>
        <pt x="1182" y="1397" on="1"/>
        <pt x="1255" y="1509" on="1"/>
      </contour>
      <contour>
        <pt x="281" y="707" on="1"/>
        <pt x="281" y="582" on="0"/>
        <pt x="375" y="367" on="0"/>
        <pt x="457" y="287" on="1"/>
        <pt x="1071" y="1229" on="1"/>
        <pt x="1017" y="1254" on="0"/>
        <pt x="901" y="1282" on="0"/>
        <pt x="838" y="1282" on="1"/>
        <pt x="722" y="1282" on="0"/>
        <pt x="520" y="1191" on="0"/>
        <pt x="368" y="1035" on="0"/>
        <pt x="281" y="826" on="0"/>
      </contour>
      <contour>
        <pt x="1397" y="707" on="1"/>
        <pt x="1397" y="827" on="0"/>
        <pt x="1306" y="1038" on="0"/>
        <pt x="1229" y="1116" on="1"/>
        <pt x="602" y="184" on="1"/>
        <pt x="656" y="158" on="0"/>
        <pt x="775" y="131" on="0"/>
        <pt x="838" y="131" on="1"/>
        <pt x="915" y="131" on="0"/>
        <pt x="1058" y="172" on="0"/>
        <pt x="1182" y="247" on="0"/>
        <pt x="1284" y="352" on="0"/>
        <pt x="1357" y="480" on="0"/>
        <pt x="1397" y="627" on="0"/>
      </contour>
    </TTGlyph>
    <TTGlyph name="Oslashacute" xMin="82" yMin="-100" xMax="1595" yMax="1962">
      <component glyphName="Oslash" x="0" y="0" flags="0x204"/>
      <component glyphName="acute" x="784" y="360" flags="0x4"/>
    </TTGlyph>
    <TTGlyph name="Otilde" xMin="82" yMin="-68" xMax="1595" yMax="1927">
      <component glyphName="O" x="0" y="0" flags="0x204"/>
      <component glyphName="tilde" x="416" y="356" flags="0x4"/>
    </TTGlyph>
    <TTGlyph name="P" xMin="186" yMin="-10" xMax="1435" yMax="1497">
      <contour>
        <pt x="1430" y="899" on="1"/>
        <pt x="1426" y="804" on="0"/>
        <pt x="1357" y="653" on="0"/>
        <pt x="1244" y="537" on="0"/>
        <pt x="1096" y="455" on="0"/>
        <pt x="929" y="402" on="0"/>
        <pt x="751" y="377" on="0"/>
        <pt x="666" y="377" on="1"/>
        <pt x="610" y="377" on="0"/>
        <pt x="472" y="385" on="0"/>
        <pt x="393" y="399" on="1"/>
        <pt x="397" y="-2" on="1"/>
        <pt x="186" y="-10" on="1"/>
        <pt x="186" y="1405" on="1"/>
        <pt x="292" y="1440" on="0"/>
        <pt x="487" y="1476" on="0"/>
        <pt x="562" y="1485" on="1"/>
        <pt x="650" y="1495" on="0"/>
        <pt x="727" y="1497" on="1"/>
        <pt x="792" y="1497" on="0"/>
        <pt x="949" y="1476" on="0"/>
        <pt x="1109" y="1424" on="0"/>
        <pt x="1258" y="1336" on="0"/>
        <pt x="1371" y="1203" on="0"/>
        <pt x="1435" y="1020" on="0"/>
      </contour>
      <contour>
        <pt x="727" y="1276" on="1"/>
        <pt x="670" y="1276" on="0"/>
        <pt x="612" y="1272" on="1"/>
        <pt x="561" y="1268" on="0"/>
        <pt x="443" y="1247" on="0"/>
        <pt x="387" y="1227" on="1"/>
        <pt x="391" y="604" on="1"/>
        <pt x="453" y="592" on="0"/>
        <pt x="574" y="584" on="0"/>
        <pt x="627" y="584" on="1"/>
        <pt x="684" y="584" on="0"/>
        <pt x="814" y="595" on="0"/>
        <pt x="942" y="624" on="0"/>
        <pt x="1060" y="676" on="0"/>
        <pt x="1150" y="757" on="0"/>
        <pt x="1204" y="871" on="0"/>
        <pt x="1204" y="948" on="1"/>
        <pt x="1204" y="1025" on="0"/>
        <pt x="1137" y="1145" on="0"/>
        <pt x="1012" y="1228" on="0"/>
        <pt x="836" y="1274" on="0"/>
      </contour>
    </TTGlyph>
    <TTGlyph name="Q" xMin="82" yMin="-258" xMax="1595" yMax="1460">
      <contour>
        <pt x="1430" y="-258" on="1"/>
        <pt x="1188" y="0" on="1"/>
        <pt x="1109" y="-42" on="0"/>
        <pt x="932" y="-88" on="0"/>
        <pt x="838" y="-88" on="1"/>
        <pt x="733" y="-88" on="0"/>
        <pt x="540" y="-33" on="0"/>
        <pt x="372" y="68" on="0"/>
        <pt x="234" y="210" on="0"/>
        <pt x="136" y="382" on="0"/>
        <pt x="82" y="580" on="0"/>
        <pt x="82" y="686" on="1"/>
        <pt x="82" y="793" on="0"/>
        <pt x="136" y="991" on="0"/>
        <pt x="234" y="1163" on="0"/>
        <pt x="372" y="1304" on="0"/>
        <pt x="540" y="1405" on="0"/>
        <pt x="734" y="1460" on="0"/>
        <pt x="838" y="1460" on="1"/>
        <pt x="942" y="1460" on="0"/>
        <pt x="1135" y="1405" on="0"/>
        <pt x="1304" y="1304" on="0"/>
        <pt x="1442" y="1163" on="0"/>
        <pt x="1541" y="991" on="0"/>
        <pt x="1595" y="793" on="0"/>
        <pt x="1595" y="686" on="1"/>
        <pt x="1595" y="601" on="0"/>
        <pt x="1560" y="440" on="0"/>
        <pt x="1495" y="293" on="0"/>
        <pt x="1401" y="164" on="0"/>
        <pt x="1343" y="111" on="1"/>
        <pt x="1573" y="-131" on="1"/>
      </contour>
      <contour>
        <pt x="1397" y="686" on="1"/>
        <pt x="1397" y="765" on="0"/>
        <pt x="1357" y="913" on="0"/>
        <pt x="1284" y="1041" on="0"/>
        <pt x="1182" y="1146" on="0"/>
        <pt x="1058" y="1221" on="0"/>
        <pt x="915" y="1262" on="0"/>
        <pt x="838" y="1262" on="1"/>
        <pt x="722" y="1262" on="0"/>
        <pt x="520" y="1171" on="0"/>
        <pt x="368" y="1015" on="0"/>
        <pt x="281" y="805" on="0"/>
        <pt x="281" y="686" on="1"/>
        <pt x="281" y="567" on="0"/>
        <pt x="368" y="358" on="0"/>
        <pt x="520" y="202" on="0"/>
        <pt x="722" y="111" on="0"/>
        <pt x="838" y="111" on="1"/>
        <pt x="948" y="111" on="0"/>
        <pt x="1044" y="152" on="1"/>
        <pt x="856" y="354" on="1"/>
        <pt x="991" y="485" on="1"/>
        <pt x="1208" y="254" on="1"/>
        <pt x="1295" y="334" on="0"/>
        <pt x="1397" y="556" on="0"/>
      </contour>
    </TTGlyph>
    <TTGlyph name="R" xMin="186" yMin="-45" xMax="1382" yMax="1473">
      <contour>
        <pt x="1378" y="899" on="1"/>
        <pt x="1375" y="822" on="0"/>
        <pt x="1319" y="694" on="0"/>
        <pt x="1227" y="591" on="0"/>
        <pt x="1105" y="510" on="0"/>
        <pt x="1036" y="481" on="1"/>
        <pt x="1327" y="23" on="1"/>
        <pt x="1120" y="-45" on="1"/>
        <pt x="840" y="422" on="1"/>
        <pt x="792" y="413" on="0"/>
        <pt x="689" y="401" on="0"/>
        <pt x="627" y="401" on="1"/>
        <pt x="577" y="401" on="0"/>
        <pt x="458" y="410" on="0"/>
        <pt x="393" y="422" on="1"/>
        <pt x="397" y="-2" on="1"/>
        <pt x="186" y="-10" on="1"/>
        <pt x="186" y="1405" on="1"/>
        <pt x="272" y="1431" on="0"/>
        <pt x="444" y="1457" on="0"/>
        <pt x="515" y="1464" on="1"/>
        <pt x="597" y="1471" on="0"/>
        <pt x="674" y="1473" on="1"/>
        <pt x="739" y="1473" on="0"/>
        <pt x="897" y="1455" on="0"/>
        <pt x="1056" y="1409" on="0"/>
        <pt x="1205" y="1327" on="0"/>
        <pt x="1318" y="1200" on="0"/>
        <pt x="1382" y="1020" on="0"/>
      </contour>
      <contour>
        <pt x="674" y="1272" on="1"/>
        <pt x="628" y="1272" on="0"/>
        <pt x="579" y="1268" on="1"/>
        <pt x="537" y="1265" on="0"/>
        <pt x="435" y="1254" on="0"/>
        <pt x="387" y="1243" on="1"/>
        <pt x="391" y="606" on="1"/>
        <pt x="438" y="597" on="0"/>
        <pt x="533" y="590" on="0"/>
        <pt x="578" y="590" on="1"/>
        <pt x="698" y="590" on="0"/>
        <pt x="913" y="645" on="0"/>
        <pt x="1075" y="741" on="0"/>
        <pt x="1171" y="872" on="0"/>
        <pt x="1171" y="948" on="1"/>
        <pt x="1171" y="1025" on="0"/>
        <pt x="1098" y="1145" on="0"/>
        <pt x="966" y="1228" on="0"/>
        <pt x="783" y="1272" on="0"/>
      </contour>
    </TTGlyph>
    <TTGlyph name="Racute" xMin="186" yMin="-45" xMax="1382" yMax="1944">
      <component glyphName="R" x="0" y="0" flags="0x204"/>
      <component glyphName="acute" x="672" y="342" flags="0x4"/>
    </TTGlyph>
    <TTGlyph name="Rcaron" xMin="186" yMin="-45" xMax="1382" yMax="1990">
      <component glyphName="R" x="0" y="0" flags="0x204"/>
      <component glyphName="caron" x="403" y="403" flags="0x4"/>
    </TTGlyph>
    <TTGlyph name="Rcommaaccent" xMin="186" yMin="-422" xMax="1382" yMax="1473">
      <component glyphName="R" x="0" y="0" flags="0x204"/>
      <component glyphName="uni0326" x="479" y="92" flags="0x4"/>
    </TTGlyph>
    <TTGlyph name="S" xMin="75" yMin="-127" xMax="1258" yMax="1514">
      <contour>
        <pt x="1247" y="236" on="1"/>
        <pt x="1237" y="166" on="0"/>
        <pt x="1178" y="57" on="0"/>
        <pt x="1090" y="-23" on="0"/>
        <pt x="981" y="-78" on="0"/>
        <pt x="862" y="-112" on="0"/>
        <pt x="740" y="-127" on="0"/>
        <pt x="684" y="-127" on="1"/>
        <pt x="607" y="-127" on="0"/>
        <pt x="457" y="-94" on="0"/>
        <pt x="312" y="-35" on="0"/>
        <pt x="171" y="47" on="0"/>
        <pt x="102" y="96" on="1"/>
        <pt x="248" y="268" on="1"/>
        <pt x="326" y="199" on="0"/>
        <pt x="479" y="120" on="0"/>
        <pt x="540" y="100" on="1"/>
        <pt x="611" y="76" on="0"/>
        <pt x="676" y="68" on="1"/>
        <pt x="748" y="64" on="0"/>
        <pt x="872" y="94" on="0"/>
        <pt x="965" y="151" on="0"/>
        <pt x="1021" y="230" on="0"/>
        <pt x="1026" y="274" on="1"/>
        <pt x="1029" y="311" on="0"/>
        <pt x="997" y="372" on="0"/>
        <pt x="935" y="423" on="0"/>
        <pt x="851" y="462" on="0"/>
        <pt x="756" y="493" on="0"/>
        <pt x="655" y="516" on="0"/>
        <pt x="608" y="524" on="1"/>
        <pt x="551" y="534" on="0"/>
        <pt x="425" y="567" on="0"/>
        <pt x="303" y="621" on="0"/>
        <pt x="195" y="701" on="0"/>
        <pt x="116" y="814" on="0"/>
        <pt x="75" y="964" on="0"/>
        <pt x="82" y="1061" on="1"/>
        <pt x="88" y="1141" on="0"/>
        <pt x="143" y="1270" on="0"/>
        <pt x="230" y="1372" on="0"/>
        <pt x="343" y="1445" on="0"/>
        <pt x="471" y="1493" on="0"/>
        <pt x="608" y="1514" on="0"/>
        <pt x="676" y="1513" on="1"/>
        <pt x="770" y="1508" on="0"/>
        <pt x="865" y="1484" on="1"/>
        <pt x="905" y="1474" on="0"/>
        <pt x="994" y="1443" on="0"/>
        <pt x="1084" y="1400" on="0"/>
        <pt x="1172" y="1341" on="0"/>
        <pt x="1212" y="1303" on="1"/>
        <pt x="1100" y="1126" on="1"/>
        <pt x="1068" y="1162" on="0"/>
        <pt x="996" y="1216" on="0"/>
        <pt x="923" y="1256" on="0"/>
        <pt x="851" y="1284" on="0"/>
        <pt x="819" y="1293" on="1"/>
        <pt x="742" y="1314" on="0"/>
        <pt x="668" y="1317" on="1"/>
        <pt x="577" y="1317" on="0"/>
        <pt x="435" y="1262" on="0"/>
        <pt x="338" y="1175" on="0"/>
        <pt x="287" y="1068" on="0"/>
        <pt x="287" y="1016" on="1"/>
        <pt x="287" y="965" on="0"/>
        <pt x="348" y="869" on="0"/>
        <pt x="456" y="791" on="0"/>
        <pt x="602" y="736" on="0"/>
        <pt x="686" y="725" on="1"/>
        <pt x="759" y="717" on="0"/>
        <pt x="904" y="681" on="0"/>
        <pt x="1036" y="625" on="0"/>
        <pt x="1147" y="546" on="0"/>
        <pt x="1223" y="443" on="0"/>
        <pt x="1258" y="314" on="0"/>
      </contour>
    </TTGlyph>
    <TTGlyph name="Sacute" xMin="75" yMin="-127" xMax="1258" yMax="2005">
      <component glyphName="S" x="0" y="0" flags="0x204"/>
      <component glyphName="acute" x="471" y="403" flags="0x4"/>
    </TTGlyph>
    <TTGlyph name="Scaron" xMin="75" yMin="-127" xMax="1258" yMax="2007">
      <component glyphName="S" x="0" y="0" flags="0x204"/>
      <component glyphName="caron" x="348" y="420" flags="0x4"/>
    </TTGlyph>
    <TTGlyph name="Scedilla" xMin="75" yMin="-602" xMax="1258" yMax="1514">
      <contour>
        <pt x="881" y="-422" on="1"/>
        <pt x="872" y="-473" on="0"/>
        <pt x="823" y="-542" on="0"/>
        <pt x="756" y="-584" on="0"/>
        <pt x="676" y="-602" on="0"/>
        <pt x="637" y="-602" on="1"/>
        <pt x="571" y="-602" on="0"/>
        <pt x="460" y="-555" on="0"/>
        <pt x="401" y="-518" on="1"/>
        <pt x="459" y="-389" on="1"/>
        <pt x="493" y="-418" on="0"/>
        <pt x="558" y="-449" on="0"/>
        <pt x="584" y="-457" on="1"/>
        <pt x="614" y="-466" on="0"/>
        <pt x="641" y="-467" on="1"/>
        <pt x="681" y="-467" on="0"/>
        <pt x="727" y="-415" on="0"/>
        <pt x="727" y="-381" on="1"/>
        <pt x="727" y="-340" on="0"/>
        <pt x="672" y="-289" on="0"/>
        <pt x="594" y="-263" on="0"/>
        <pt x="507" y="-258" on="0"/>
        <pt x="475" y="-262" on="1"/>
        <pt x="543" y="-113" on="1"/>
        <pt x="427" y="-90" on="0"/>
        <pt x="208" y="21" on="0"/>
        <pt x="102" y="96" on="1"/>
        <pt x="248" y="268" on="1"/>
        <pt x="326" y="199" on="0"/>
        <pt x="479" y="120" on="0"/>
        <pt x="540" y="100" on="1"/>
        <pt x="611" y="76" on="0"/>
        <pt x="676" y="68" on="1"/>
        <pt x="748" y="64" on="0"/>
        <pt x="872" y="94" on="0"/>
        <pt x="965" y="151" on="0"/>
        <pt x="1021" y="230" on="0"/>
        <pt x="1026" y="274" on="1"/>
        <pt x="1029" y="311" on="0"/>
        <pt x="997" y="372" on="0"/>
        <pt x="935" y="423" on="0"/>
        <pt x="851" y="462" on="0"/>
        <pt x="756" y="493" on="0"/>
        <pt x="655" y="516" on="0"/>
        <pt x="608" y="524" on="1"/>
        <pt x="551" y="534" on="0"/>
        <pt x="425" y="567" on="0"/>
        <pt x="303" y="621" on="0"/>
        <pt x="195" y="701" on="0"/>
        <pt x="116" y="814" on="0"/>
        <pt x="75" y="964" on="0"/>
        <pt x="82" y="1061" on="1"/>
        <pt x="88" y="1141" on="0"/>
        <pt x="143" y="1270" on="0"/>
        <pt x="230" y="1372" on="0"/>
        <pt x="343" y="1445" on="0"/>
        <pt x="471" y="1493" on="0"/>
        <pt x="608" y="1514" on="0"/>
        <pt x="676" y="1513" on="1"/>
        <pt x="770" y="1508" on="0"/>
        <pt x="865" y="1484" on="1"/>
        <pt x="905" y="1474" on="0"/>
        <pt x="994" y="1443" on="0"/>
        <pt x="1084" y="1400" on="0"/>
        <pt x="1172" y="1341" on="0"/>
        <pt x="1212" y="1303" on="1"/>
        <pt x="1100" y="1126" on="1"/>
        <pt x="1068" y="1162" on="0"/>
        <pt x="996" y="1216" on="0"/>
        <pt x="923" y="1256" on="0"/>
        <pt x="851" y="1284" on="0"/>
        <pt x="819" y="1293" on="1"/>
        <pt x="742" y="1314" on="0"/>
        <pt x="668" y="1317" on="1"/>
        <pt x="577" y="1317" on="0"/>
        <pt x="435" y="1262" on="0"/>
        <pt x="338" y="1175" on="0"/>
        <pt x="287" y="1068" on="0"/>
        <pt x="287" y="1016" on="1"/>
        <pt x="287" y="965" on="0"/>
        <pt x="348" y="869" on="0"/>
        <pt x="456" y="791" on="0"/>
        <pt x="602" y="736" on="0"/>
        <pt x="686" y="725" on="1"/>
        <pt x="759" y="717" on="0"/>
        <pt x="904" y="681" on="0"/>
        <pt x="1036" y="625" on="0"/>
        <pt x="1147" y="546" on="0"/>
        <pt x="1223" y="443" on="0"/>
        <pt x="1258" y="314" on="0"/>
        <pt x="1247" y="236" on="1"/>
        <pt x="1237" y="166" on="0"/>
        <pt x="1178" y="57" on="0"/>
        <pt x="1090" y="-23" on="0"/>
        <pt x="981" y="-78" on="0"/>
        <pt x="862" y="-112" on="0"/>
        <pt x="740" y="-127" on="0"/>
        <pt x="684" y="-127" on="1"/>
        <pt x="676" y="-127" on="0"/>
        <pt x="661" y="-125" on="0"/>
        <pt x="653" y="-125" on="1"/>
        <pt x="639" y="-166" on="1"/>
        <pt x="691" y="-169" on="0"/>
        <pt x="767" y="-194" on="0"/>
        <pt x="821" y="-231" on="0"/>
        <pt x="855" y="-277" on="0"/>
        <pt x="865" y="-300" on="1"/>
        <pt x="888" y="-355" on="0"/>
      </contour>
    </TTGlyph>
    <TTGlyph name="Scircumflex" xMin="75" yMin="-127" xMax="1258" yMax="2003">
      <component glyphName="S" x="0" y="0" flags="0x204"/>
      <component glyphName="circumflex" x="330" y="461" flags="0x4"/>
    </TTGlyph>
    <TTGlyph name="T" xMin="41" yMin="-31" xMax="1196" yMax="1444">
      <contour>
        <pt x="1196" y="1444" on="1"/>
        <pt x="1192" y="1253" on="1"/>
        <pt x="725" y="1235" on="1"/>
        <pt x="739" y="-27" on="1"/>
        <pt x="518" y="-31" on="1"/>
        <pt x="518" y="1227" on="1"/>
        <pt x="45" y="1208" on="1"/>
        <pt x="41" y="1419" on="1"/>
      </contour>
    </TTGlyph>
    <TTGlyph name="Tbar" xMin="41" yMin="-31" xMax="1196" yMax="1444">
      <contour>
        <pt x="1026" y="618" on="1"/>
        <pt x="731" y="618" on="1"/>
        <pt x="739" y="-27" on="1"/>
        <pt x="518" y="-31" on="1"/>
        <pt x="518" y="618" on="1"/>
        <pt x="205" y="618" on="1"/>
        <pt x="205" y="829" on="1"/>
        <pt x="518" y="829" on="1"/>
        <pt x="518" y="1227" on="1"/>
        <pt x="45" y="1208" on="1"/>
        <pt x="41" y="1419" on="1"/>
        <pt x="1196" y="1444" on="1"/>
        <pt x="1192" y="1253" on="1"/>
        <pt x="725" y="1235" on="1"/>
        <pt x="729" y="829" on="1"/>
        <pt x="1026" y="829" on="1"/>
      </contour>
    </TTGlyph>
    <TTGlyph name="Tcaron" xMin="41" yMin="-31" xMax="1196" yMax="1990">
      <component glyphName="T" x="0" y="0" flags="0x204"/>
      <component glyphName="caron" x="289" y="403" flags="0x4"/>
    </TTGlyph>
    <TTGlyph name="Tcommaaccent" xMin="41" yMin="-514" xMax="1196" yMax="1444">
      <component glyphName="T" x="0" y="0" flags="0x204"/>
      <component glyphName="uni0326" x="365" y="0" flags="0x4"/>
    </TTGlyph>
    <TTGlyph name="Thorn" xMin="172" yMin="-47" xMax="1415" yMax="1487">
      <contour>
        <pt x="397" y="1239" on="1"/>
        <pt x="459" y="1252" on="0"/>
        <pt x="571" y="1266" on="0"/>
        <pt x="616" y="1269" on="1"/>
        <pt x="667" y="1273" on="0"/>
        <pt x="713" y="1272" on="1"/>
        <pt x="778" y="1272" on="0"/>
        <pt x="933" y="1255" on="0"/>
        <pt x="1089" y="1210" on="0"/>
        <pt x="1234" y="1133" on="0"/>
        <pt x="1347" y="1013" on="0"/>
        <pt x="1415" y="847" on="0"/>
        <pt x="1415" y="735" on="1"/>
        <pt x="1415" y="641" on="0"/>
        <pt x="1347" y="494" on="0"/>
        <pt x="1232" y="382" on="0"/>
        <pt x="1080" y="304" on="0"/>
        <pt x="910" y="255" on="0"/>
        <pt x="733" y="233" on="0"/>
        <pt x="651" y="233" on="1"/>
        <pt x="602" y="233" on="0"/>
        <pt x="475" y="241" on="0"/>
        <pt x="406" y="252" on="1"/>
        <pt x="408" y="-47" on="1"/>
        <pt x="207" y="-47" on="1"/>
        <pt x="172" y="1487" on="1"/>
        <pt x="395" y="1479" on="1"/>
      </contour>
      <contour>
        <pt x="713" y="1051" on="1"/>
        <pt x="685" y="1051" on="0"/>
        <pt x="613" y="1049" on="0"/>
        <pt x="531" y="1043" on="0"/>
        <pt x="443" y="1031" on="0"/>
        <pt x="399" y="1022" on="1"/>
        <pt x="403" y="457" on="1"/>
        <pt x="457" y="447" on="0"/>
        <pt x="564" y="440" on="0"/>
        <pt x="610" y="440" on="1"/>
        <pt x="657" y="440" on="0"/>
        <pt x="779" y="448" on="0"/>
        <pt x="908" y="472" on="0"/>
        <pt x="1032" y="513" on="0"/>
        <pt x="1130" y="581" on="0"/>
        <pt x="1190" y="677" on="0"/>
        <pt x="1190" y="743" on="1"/>
        <pt x="1190" y="820" on="0"/>
        <pt x="1123" y="933" on="0"/>
        <pt x="998" y="1009" on="0"/>
        <pt x="822" y="1048" on="0"/>
      </contour>
    </TTGlyph>
    <TTGlyph name="U" xMin="143" yMin="-45" xMax="1291" yMax="1440">
      <contour>
        <pt x="1290" y="686" on="1"/>
        <pt x="1291" y="593" on="0"/>
        <pt x="1262" y="412" on="0"/>
        <pt x="1198" y="249" on="0"/>
        <pt x="1099" y="112" on="0"/>
        <pt x="964" y="11" on="0"/>
        <pt x="791" y="-45" on="0"/>
        <pt x="686" y="-45" on="1"/>
        <pt x="580" y="-45" on="0"/>
        <pt x="420" y="22" on="0"/>
        <pt x="301" y="137" on="0"/>
        <pt x="220" y="287" on="0"/>
        <pt x="171" y="453" on="0"/>
        <pt x="147" y="624" on="0"/>
        <pt x="145" y="702" on="1"/>
        <pt x="143" y="801" on="0"/>
        <pt x="149" y="919" on="1"/>
        <pt x="154" y="1020" on="0"/>
        <pt x="181" y="1288" on="0"/>
        <pt x="209" y="1440" on="1"/>
        <pt x="426" y="1409" on="1"/>
        <pt x="403" y="1310" on="0"/>
        <pt x="375" y="1126" on="0"/>
        <pt x="359" y="964" on="0"/>
        <pt x="354" y="830" on="0"/>
        <pt x="354" y="782" on="1"/>
        <pt x="354" y="726" on="0"/>
        <pt x="363" y="588" on="0"/>
        <pt x="390" y="445" on="0"/>
        <pt x="439" y="310" on="0"/>
        <pt x="519" y="205" on="0"/>
        <pt x="635" y="141" on="0"/>
        <pt x="715" y="141" on="1"/>
        <pt x="798" y="141" on="0"/>
        <pt x="932" y="217" on="0"/>
        <pt x="1026" y="359" on="0"/>
        <pt x="1075" y="561" on="0"/>
        <pt x="1073" y="686" on="1"/>
        <pt x="1071" y="786" on="0"/>
        <pt x="1061" y="902" on="1"/>
        <pt x="1053" y="1002" on="0"/>
        <pt x="1019" y="1260" on="0"/>
        <pt x="989" y="1405" on="1"/>
        <pt x="1202" y="1434" on="1"/>
        <pt x="1234" y="1269" on="0"/>
        <pt x="1268" y="996" on="0"/>
        <pt x="1277" y="896" on="1"/>
        <pt x="1287" y="780" on="0"/>
      </contour>
    </TTGlyph>
    <TTGlyph name="Uacute" xMin="143" yMin="-45" xMax="1291" yMax="1833">
      <component glyphName="U" x="0" y="0" flags="0x204"/>
      <component glyphName="acute" x="627" y="231" flags="0x4"/>
    </TTGlyph>
    <TTGlyph name="Ubreve" xMin="143" yMin="-45" xMax="1291" yMax="1896">
      <component glyphName="U" x="0" y="0" flags="0x204"/>
      <component glyphName="breve" x="373" y="317" flags="0x4"/>
    </TTGlyph>
    <TTGlyph name="Ucircumflex" xMin="143" yMin="-45" xMax="1291" yMax="1890">
      <component glyphName="U" x="0" y="0" flags="0x204"/>
      <component glyphName="circumflex" x="387" y="348" flags="0x4"/>
    </TTGlyph>
    <TTGlyph name="Udieresis" xMin="143" yMin="-45" xMax="1291" yMax="1757">
      <component glyphName="U" x="0" y="0" flags="0x204"/>
      <component glyphName="dieresis" x="344" y="313" flags="0x4"/>
    </TTGlyph>
    <TTGlyph name="Ugrave" xMin="143" yMin="-45" xMax="1291" yMax="1858">
      <component glyphName="U" x="0" y="0" flags="0x204"/>
      <component glyphName="grave" x="395" y="238" flags="0x4"/>
    </TTGlyph>
    <TTGlyph name="Uhungarumlaut" xMin="143" yMin="-45" xMax="1364" yMax="2027">
      <component glyphName="U" x="0" y="0" flags="0x204"/>
      <component glyphName="hungarumlaut" x="440" y="307" flags="0x4"/>
    </TTGlyph>
    <TTGlyph name="Umacron" xMin="143" yMin="-45" xMax="1291" yMax="1760">
      <component glyphName="U" x="0" y="0" flags="0x204"/>
      <component glyphName="macron" x="317" y="322" flags="0x4"/>
    </TTGlyph>
    <TTGlyph name="Uogonek" xMin="143" yMin="-518" xMax="1291" yMax="1440">
      <contour>
        <pt x="995" y="-383" on="1"/>
        <pt x="963" y="-421" on="0"/>
        <pt x="899" y="-473" on="0"/>
        <pt x="839" y="-505" on="0"/>
        <pt x="782" y="-518" on="0"/>
        <pt x="756" y="-518" on="1"/>
        <pt x="711" y="-518" on="0"/>
        <pt x="628" y="-488" on="0"/>
        <pt x="563" y="-432" on="0"/>
        <pt x="524" y="-352" on="0"/>
        <pt x="524" y="-303" on="1"/>
        <pt x="524" y="-254" on="0"/>
        <pt x="570" y="-124" on="0"/>
        <pt x="633" y="-43" on="1"/>
        <pt x="538" y="-34" on="0"/>
        <pt x="394" y="41" on="0"/>
        <pt x="287" y="157" on="0"/>
        <pt x="214" y="304" on="0"/>
        <pt x="169" y="464" on="0"/>
        <pt x="147" y="627" on="0"/>
        <pt x="145" y="702" on="1"/>
        <pt x="143" y="801" on="0"/>
        <pt x="149" y="919" on="1"/>
        <pt x="154" y="1020" on="0"/>
        <pt x="181" y="1288" on="0"/>
        <pt x="209" y="1440" on="1"/>
        <pt x="426" y="1409" on="1"/>
        <pt x="403" y="1310" on="0"/>
        <pt x="375" y="1126" on="0"/>
        <pt x="359" y="964" on="0"/>
        <pt x="354" y="830" on="0"/>
        <pt x="354" y="782" on="1"/>
        <pt x="354" y="726" on="0"/>
        <pt x="363" y="588" on="0"/>
        <pt x="390" y="445" on="0"/>
        <pt x="439" y="310" on="0"/>
        <pt x="519" y="205" on="0"/>
        <pt x="635" y="141" on="0"/>
        <pt x="715" y="141" on="1"/>
        <pt x="798" y="141" on="0"/>
        <pt x="932" y="217" on="0"/>
        <pt x="1026" y="359" on="0"/>
        <pt x="1075" y="561" on="0"/>
        <pt x="1073" y="686" on="1"/>
        <pt x="1071" y="786" on="0"/>
        <pt x="1061" y="902" on="1"/>
        <pt x="1053" y="1002" on="0"/>
        <pt x="1019" y="1260" on="0"/>
        <pt x="989" y="1405" on="1"/>
        <pt x="1202" y="1434" on="1"/>
        <pt x="1234" y="1269" on="0"/>
        <pt x="1268" y="996" on="0"/>
        <pt x="1277" y="896" on="1"/>
        <pt x="1287" y="780" on="0"/>
        <pt x="1290" y="686" on="1"/>
        <pt x="1291" y="558" on="0"/>
        <pt x="1234" y="315" on="0"/>
        <pt x="1111" y="118" on="0"/>
        <pt x="920" y="-17" on="0"/>
        <pt x="788" y="-37" on="1"/>
        <pt x="732" y="-114" on="0"/>
        <pt x="690" y="-224" on="0"/>
        <pt x="688" y="-259" on="1"/>
        <pt x="685" y="-300" on="0"/>
        <pt x="700" y="-328" on="1"/>
        <pt x="707" y="-337" on="0"/>
        <pt x="717" y="-343" on="1"/>
        <pt x="725" y="-349" on="0"/>
        <pt x="749" y="-358" on="0"/>
        <pt x="766" y="-358" on="1"/>
        <pt x="792" y="-358" on="0"/>
        <pt x="863" y="-321" on="0"/>
        <pt x="909" y="-270" on="1"/>
      </contour>
    </TTGlyph>
    <TTGlyph name="Uring" xMin="143" yMin="-45" xMax="1291" yMax="1973">
      <component glyphName="U" x="0" y="0" flags="0x204"/>
      <component glyphName="ring" x="446" y="371" flags="0x4"/>
    </TTGlyph>
    <TTGlyph name="Utilde" xMin="143" yMin="-45" xMax="1291" yMax="1893">
      <component glyphName="U" x="0" y="0" flags="0x204"/>
      <component glyphName="tilde" x="301" y="322" flags="0x4"/>
    </TTGlyph>
    <TTGlyph name="V" xMin="49" yMin="-29" xMax="1579" yMax="1470">
      <contour>
        <pt x="1579" y="1440" on="1"/>
        <pt x="1438" y="1062" on="0"/>
        <pt x="1096" y="329" on="0"/>
        <pt x="901" y="-29" on="1"/>
        <pt x="623" y="-25" on="1"/>
        <pt x="280" y="669" on="0"/>
        <pt x="49" y="1423" on="1"/>
        <pt x="285" y="1458" on="1"/>
        <pt x="333" y="1288" on="0"/>
        <pt x="439" y="964" on="0"/>
        <pt x="559" y="646" on="0"/>
        <pt x="696" y="330" on="0"/>
        <pt x="774" y="170" on="1"/>
        <pt x="944" y="474" on="0"/>
        <pt x="1237" y="1126" on="0"/>
        <pt x="1352" y="1470" on="1"/>
      </contour>
    </TTGlyph>
    <TTGlyph name="W" xMin="63" yMin="-35" xMax="1815" yMax="1499">
      <contour>
        <pt x="1815" y="1458" on="1"/>
        <pt x="1544" y="-29" on="1"/>
        <pt x="1309" y="-23" on="1"/>
        <pt x="950" y="1118" on="1"/>
        <pt x="547" y="-35" on="1"/>
        <pt x="340" y="-35" on="1"/>
        <pt x="63" y="1423" on="1"/>
        <pt x="274" y="1452" on="1"/>
        <pt x="455" y="305" on="1"/>
        <pt x="829" y="1360" on="1"/>
        <pt x="1077" y="1331" on="1"/>
        <pt x="1407" y="244" on="1"/>
        <pt x="1608" y="1499" on="1"/>
      </contour>
    </TTGlyph>
    <TTGlyph name="Wacute" xMin="63" yMin="-35" xMax="1815" yMax="1846">
      <component glyphName="W" x="0" y="0" flags="0x204"/>
      <component glyphName="acute" x="897" y="244" flags="0x4"/>
    </TTGlyph>
    <TTGlyph name="Wcircumflex" xMin="63" yMin="-35" xMax="1815" yMax="1868">
      <component glyphName="W" x="0" y="0" flags="0x204"/>
      <component glyphName="circumflex" x="618" y="326" flags="0x4"/>
    </TTGlyph>
    <TTGlyph name="Wdieresis" xMin="63" yMin="-35" xMax="1815" yMax="1698">
      <component glyphName="W" x="0" y="0" flags="0x204"/>
      <component glyphName="dieresis" x="578" y="254" flags="0x4"/>
    </TTGlyph>
    <TTGlyph name="Wgrave" xMin="63" yMin="-35" xMax="1815" yMax="1880">
      <component glyphName="W" x="0" y="0" flags="0x204"/>
      <component glyphName="grave" x="641" y="260" flags="0x4"/>
    </TTGlyph>
    <TTGlyph name="X" xMin="25" yMin="-41" xMax="1204" yMax="1423">
      <contour>
        <pt x="1149" y="1395" on="1"/>
        <pt x="727" y="731" on="1"/>
        <pt x="1204" y="-2" on="1"/>
        <pt x="989" y="-41" on="1"/>
        <pt x="608" y="543" on="1"/>
        <pt x="236" y="-41" on="1"/>
        <pt x="25" y="-2" on="1"/>
        <pt x="489" y="725" on="1"/>
        <pt x="51" y="1399" on="1"/>
        <pt x="276" y="1423" on="1"/>
        <pt x="608" y="913" on="1"/>
        <pt x="932" y="1419" on="1"/>
      </contour>
    </TTGlyph>
    <TTGlyph name="Y" xMin="6" yMin="-45" xMax="1255" yMax="1430">
      <contour>
        <pt x="1255" y="1423" on="1"/>
        <pt x="756" y="446" on="1"/>
        <pt x="756" y="-33" on="1"/>
        <pt x="549" y="-45" on="1"/>
        <pt x="565" y="451" on="1"/>
        <pt x="6" y="1403" on="1"/>
        <pt x="242" y="1430" on="1"/>
        <pt x="666" y="662" on="1"/>
        <pt x="1028" y="1430" on="1"/>
      </contour>
    </TTGlyph>
    <TTGlyph name="Yacute" xMin="6" yMin="-45" xMax="1255" yMax="1754">
      <component glyphName="Y" x="0" y="0" flags="0x204"/>
      <component glyphName="acute" x="557" y="152" flags="0x4"/>
    </TTGlyph>
    <TTGlyph name="Ycircumflex" xMin="6" yMin="-45" xMax="1255" yMax="1882">
      <component glyphName="Y" x="0" y="0" flags="0x204"/>
      <component glyphName="circumflex" x="317" y="340" flags="0x4"/>
    </TTGlyph>
    <TTGlyph name="Ydieresis" xMin="6" yMin="-45" xMax="1255" yMax="1751">
      <component glyphName="Y" x="0" y="0" flags="0x204"/>
      <component glyphName="dieresis" x="276" y="307" flags="0x4"/>
    </TTGlyph>
    <TTGlyph name="Ygrave" xMin="6" yMin="-45" xMax="1255" yMax="1864">
      <component glyphName="Y" x="0" y="0" flags="0x204"/>
      <component glyphName="grave" x="344" y="244" flags="0x4"/>
    </TTGlyph>
    <TTGlyph name="Z" xMin="74" yMin="-27" xMax="1176" yMax="1438">
      <contour>
        <pt x="1176" y="1438" on="1"/>
        <pt x="1171" y="1266" on="1"/>
        <pt x="332" y="180" on="1"/>
        <pt x="1159" y="188" on="1"/>
        <pt x="1151" y="-23" on="1"/>
        <pt x="82" y="-27" on="1"/>
        <pt x="74" y="162" on="1"/>
        <pt x="905" y="1251" on="1"/>
        <pt x="109" y="1208" on="1"/>
        <pt x="96" y="1423" on="1"/>
      </contour>
    </TTGlyph>
    <TTGlyph name="Zacute" xMin="74" yMin="-27" xMax="1176" yMax="1913">
      <component glyphName="Z" x="0" y="0" flags="0x204"/>
      <component glyphName="acute" x="528" y="311" flags="0x4"/>
    </TTGlyph>
    <TTGlyph name="Zcaron" xMin="74" yMin="-27" xMax="1176" yMax="1933">
      <component glyphName="Z" x="0" y="0" flags="0x204"/>
      <component glyphName="caron" x="334" y="346" flags="0x4"/>
    </TTGlyph>
    <TTGlyph name="Zdotaccent" xMin="74" yMin="-27" xMax="1176" yMax="1780">
      <component glyphName="Z" x="0" y="0" flags="0x204"/>
      <component glyphName="dotaccent" x="508" y="336" flags="0x4"/>
    </TTGlyph>
    <TTGlyph name="a" xMin="63" yMin="-96" xMax="1165" yMax="1110">
      <contour>
        <pt x="924" y="-63" on="1"/>
        <pt x="938" y="78" on="1"/>
        <pt x="816" y="0" on="0"/>
        <pt x="581" y="-70" on="0"/>
        <pt x="479" y="-70" on="1"/>
        <pt x="407" y="-70" on="0"/>
        <pt x="272" y="-33" on="0"/>
        <pt x="169" y="44" on="0"/>
        <pt x="106" y="163" on="0"/>
        <pt x="106" y="244" on="1"/>
        <pt x="106" y="325" on="0"/>
        <pt x="154" y="453" on="0"/>
        <pt x="238" y="551" on="0"/>
        <pt x="352" y="621" on="0"/>
        <pt x="483" y="665" on="0"/>
        <pt x="627" y="686" on="0"/>
        <pt x="698" y="686" on="1"/>
        <pt x="764" y="686" on="0"/>
        <pt x="878" y="676" on="0"/>
        <pt x="922" y="668" on="1"/>
        <pt x="909" y="718" on="0"/>
        <pt x="871" y="815" on="0"/>
        <pt x="812" y="892" on="0"/>
        <pt x="726" y="940" on="0"/>
        <pt x="666" y="940" on="1"/>
        <pt x="627" y="940" on="0"/>
        <pt x="527" y="917" on="0"/>
        <pt x="407" y="857" on="0"/>
        <pt x="265" y="752" on="0"/>
        <pt x="184" y="670" on="1"/>
        <pt x="63" y="817" on="1"/>
        <pt x="159" y="907" on="0"/>
        <pt x="335" y="1021" on="0"/>
        <pt x="490" y="1086" on="0"/>
        <pt x="623" y="1110" on="0"/>
        <pt x="676" y="1110" on="1"/>
        <pt x="768" y="1110" on="0"/>
        <pt x="912" y="1047" on="0"/>
        <pt x="1021" y="938" on="0"/>
        <pt x="1096" y="791" on="0"/>
        <pt x="1144" y="622" on="0"/>
        <pt x="1165" y="440" on="0"/>
        <pt x="1165" y="350" on="1"/>
        <pt x="1165" y="254" on="0"/>
        <pt x="1143" y="34" on="0"/>
        <pt x="1120" y="-96" on="1"/>
      </contour>
      <contour>
        <pt x="952" y="301" on="1"/>
        <pt x="954" y="351" on="0"/>
        <pt x="956" y="449" on="0"/>
        <pt x="950" y="502" on="1"/>
        <pt x="901" y="517" on="0"/>
        <pt x="793" y="535" on="0"/>
        <pt x="739" y="535" on="1"/>
        <pt x="649" y="535" on="0"/>
        <pt x="480" y="493" on="0"/>
        <pt x="358" y="413" on="0"/>
        <pt x="297" y="297" on="0"/>
        <pt x="315" y="223" on="1"/>
        <pt x="329" y="163" on="0"/>
        <pt x="410" y="115" on="0"/>
        <pt x="467" y="115" on="1"/>
        <pt x="525" y="115" on="0"/>
        <pt x="660" y="154" on="0"/>
        <pt x="793" y="211" on="0"/>
        <pt x="911" y="275" on="0"/>
      </contour>
    </TTGlyph>
    <TTGlyph name="aacute" xMin="63" yMin="-96" xMax="1165" yMax="1599">
      <component glyphName="a" x="0" y="0" flags="0x204"/>
      <component glyphName="acute" x="489" y="-3" flags="0x4"/>
    </TTGlyph>
    <TTGlyph name="abreve" xMin="63" yMin="-96" xMax="1165" yMax="1579">
      <component glyphName="a" x="0" y="0" flags="0x204"/>
      <component glyphName="breve" x="299" y="0" flags="0x4"/>
    </TTGlyph>
    <TTGlyph name="acircumflex" xMin="63" yMin="-96" xMax="1165" yMax="1608">
      <component glyphName="a" x="0" y="0" flags="0x204"/>
      <component glyphName="circumflex" x="276" y="66" flags="0x4"/>
    </TTGlyph>
    <TTGlyph name="acute" xMin="0" yMin="1188" xMax="379" yMax="1602">
      <contour>
        <pt x="379" y="1491" on="1"/>
        <pt x="127" y="1188" on="1"/>
        <pt x="0" y="1260" on="1"/>
        <pt x="178" y="1602" on="1"/>
      </contour>
    </TTGlyph>
    <TTGlyph name="adieresis" xMin="63" yMin="-96" xMax="1165" yMax="1418">
      <component glyphName="a" x="0" y="0" flags="0x204"/>
      <component glyphName="dieresis" x="250" y="-26" flags="0x4"/>
    </TTGlyph>
    <TTGlyph name="ae" xMin="63" yMin="-139" xMax="2064" yMax="1096">
      <contour>
        <pt x="924" y="-63" on="1"/>
        <pt x="944" y="82" on="1"/>
        <pt x="820" y="1" on="0"/>
        <pt x="582" y="-70" on="0"/>
        <pt x="479" y="-70" on="1"/>
        <pt x="407" y="-70" on="0"/>
        <pt x="272" y="-33" on="0"/>
        <pt x="169" y="44" on="0"/>
        <pt x="106" y="163" on="0"/>
        <pt x="106" y="244" on="1"/>
        <pt x="106" y="325" on="0"/>
        <pt x="154" y="453" on="0"/>
        <pt x="238" y="551" on="0"/>
        <pt x="352" y="621" on="0"/>
        <pt x="483" y="665" on="0"/>
        <pt x="627" y="686" on="0"/>
        <pt x="698" y="686" on="1"/>
        <pt x="771" y="686" on="0"/>
        <pt x="893" y="674" on="0"/>
        <pt x="936" y="666" on="1"/>
        <pt x="922" y="718" on="0"/>
        <pt x="884" y="817" on="0"/>
        <pt x="824" y="893" on="0"/>
        <pt x="737" y="940" on="0"/>
        <pt x="674" y="940" on="1"/>
        <pt x="633" y="940" on="0"/>
        <pt x="531" y="917" on="0"/>
        <pt x="408" y="857" on="0"/>
        <pt x="265" y="752" on="0"/>
        <pt x="184" y="670" on="1"/>
        <pt x="63" y="817" on="1"/>
        <pt x="161" y="905" on="0"/>
        <pt x="344" y="1014" on="0"/>
        <pt x="508" y="1075" on="0"/>
        <pt x="648" y="1096" on="0"/>
        <pt x="702" y="1096" on="1"/>
        <pt x="775" y="1096" on="0"/>
        <pt x="887" y="1061" on="0"/>
        <pt x="977" y="991" on="0"/>
        <pt x="1049" y="885" on="0"/>
        <pt x="1083" y="813" on="1"/>
        <pt x="1121" y="868" on="0"/>
        <pt x="1218" y="958" on="0"/>
        <pt x="1332" y="1021" on="0"/>
        <pt x="1461" y="1055" on="0"/>
        <pt x="1530" y="1055" on="1"/>
        <pt x="1634" y="1055" on="0"/>
        <pt x="1818" y="974" on="0"/>
        <pt x="1960" y="831" on="0"/>
        <pt x="2052" y="637" on="0"/>
        <pt x="2064" y="524" on="1"/>
        <pt x="1198" y="395" on="1"/>
        <pt x="1206" y="324" on="0"/>
        <pt x="1262" y="198" on="0"/>
        <pt x="1349" y="105" on="0"/>
        <pt x="1463" y="51" on="0"/>
        <pt x="1530" y="51" on="1"/>
        <pt x="1583" y="51" on="0"/>
        <pt x="1687" y="84" on="0"/>
        <pt x="1775" y="147" on="0"/>
        <pt x="1841" y="241" on="0"/>
        <pt x="1855" y="303" on="1"/>
        <pt x="2048" y="264" on="1"/>
        <pt x="2020" y="174" on="0"/>
        <pt x="1918" y="25" on="0"/>
        <pt x="1782" y="-81" on="0"/>
        <pt x="1619" y="-139" on="0"/>
        <pt x="1530" y="-139" on="1"/>
        <pt x="1418" y="-139" on="0"/>
        <pt x="1220" y="-50" on="0"/>
        <pt x="1143" y="35" on="1"/>
        <pt x="1141" y="35" on="1"/>
        <pt x="1120" y="-96" on="1"/>
      </contour>
      <contour>
        <pt x="967" y="309" on="1"/>
        <pt x="970" y="354" on="0"/>
        <pt x="971" y="447" on="0"/>
        <pt x="965" y="498" on="1"/>
        <pt x="912" y="516" on="0"/>
        <pt x="796" y="535" on="0"/>
        <pt x="739" y="535" on="1"/>
        <pt x="649" y="535" on="0"/>
        <pt x="480" y="493" on="0"/>
        <pt x="358" y="413" on="0"/>
        <pt x="297" y="297" on="0"/>
        <pt x="315" y="223" on="1"/>
        <pt x="329" y="163" on="0"/>
        <pt x="410" y="115" on="0"/>
        <pt x="467" y="115" on="1"/>
        <pt x="507" y="115" on="0"/>
        <pt x="598" y="135" on="0"/>
        <pt x="691" y="167" on="0"/>
        <pt x="784" y="208" on="0"/>
        <pt x="868" y="251" on="0"/>
        <pt x="941" y="293" on="0"/>
      </contour>
      <contour>
        <pt x="1530" y="883" on="1"/>
        <pt x="1488" y="883" on="0"/>
        <pt x="1388" y="854" on="0"/>
        <pt x="1294" y="784" on="0"/>
        <pt x="1219" y="667" on="0"/>
        <pt x="1204" y="580" on="1"/>
        <pt x="1806" y="653" on="1"/>
        <pt x="1800" y="672" on="1"/>
        <pt x="1762" y="771" on="0"/>
        <pt x="1629" y="883" on="0"/>
      </contour>
      <contour>
        <pt x="981" y="319" on="1"/>
        <pt x="981" y="321" on="0"/>
        <pt x="979" y="321" on="0"/>
        <pt x="979" y="317" on="1"/>
      </contour>
    </TTGlyph>
    <TTGlyph name="aeacute" xMin="63" yMin="-139" xMax="2064" yMax="1529">
      <component glyphName="ae" x="0" y="0" flags="0x204"/>
      <component glyphName="acute" x="1040" y="-73" flags="0x4"/>
    </TTGlyph>
    <TTGlyph name="agrave" xMin="63" yMin="-96" xMax="1165" yMax="1592">
      <component glyphName="a" x="0" y="0" flags="0x204"/>
      <component glyphName="grave" x="270" y="-28" flags="0x4"/>
    </TTGlyph>
    <TTGlyph name="amacron" xMin="63" yMin="-96" xMax="1165" yMax="1438">
      <component glyphName="a" x="0" y="0" flags="0x204"/>
      <component glyphName="macron" x="242" y="0" flags="0x4"/>
    </TTGlyph>
    <TTGlyph name="ampersand" xMin="106" yMin="-111" xMax="1251" yMax="1331">
      <contour>
        <pt x="1251" y="530" on="1"/>
        <pt x="1200" y="422" on="0"/>
        <pt x="1089" y="258" on="0"/>
        <pt x="1032" y="193" on="1"/>
        <pt x="1057" y="162" on="0"/>
        <pt x="1105" y="101" on="0"/>
        <pt x="1147" y="46" on="0"/>
        <pt x="1182" y="2" on="0"/>
        <pt x="1194" y="-12" on="1"/>
        <pt x="1049" y="-111" on="1"/>
        <pt x="909" y="72" on="1"/>
        <pt x="840" y="15" on="0"/>
        <pt x="719" y="-50" on="0"/>
        <pt x="673" y="-67" on="1"/>
        <pt x="619" y="-87" on="0"/>
        <pt x="573" y="-94" on="1"/>
        <pt x="468" y="-105" on="0"/>
        <pt x="296" y="-52" on="0"/>
        <pt x="173" y="51" on="0"/>
        <pt x="106" y="195" on="0"/>
        <pt x="106" y="276" on="1"/>
        <pt x="106" y="352" on="0"/>
        <pt x="162" y="485" on="0"/>
        <pt x="251" y="604" on="0"/>
        <pt x="361" y="708" on="0"/>
        <pt x="416" y="756" on="1"/>
        <pt x="354" y="853" on="0"/>
        <pt x="305" y="1002" on="0"/>
        <pt x="305" y="1059" on="1"/>
        <pt x="305" y="1119" on="0"/>
        <pt x="350" y="1219" on="0"/>
        <pt x="429" y="1291" on="0"/>
        <pt x="535" y="1331" on="0"/>
        <pt x="596" y="1331" on="1"/>
        <pt x="640" y="1331" on="0"/>
        <pt x="727" y="1309" on="0"/>
        <pt x="800" y="1262" on="0"/>
        <pt x="853" y="1188" on="0"/>
        <pt x="864" y="1135" on="1"/>
        <pt x="876" y="1072" on="0"/>
        <pt x="848" y="961" on="0"/>
        <pt x="784" y="860" on="0"/>
        <pt x="691" y="766" on="0"/>
        <pt x="639" y="721" on="1"/>
        <pt x="707" y="619" on="0"/>
        <pt x="852" y="426" on="0"/>
        <pt x="930" y="326" on="1"/>
        <pt x="975" y="381" on="0"/>
        <pt x="1068" y="517" on="0"/>
        <pt x="1116" y="602" on="1"/>
      </contour>
      <contour>
        <pt x="293" y="258" on="1"/>
        <pt x="293" y="214" on="0"/>
        <pt x="331" y="142" on="0"/>
        <pt x="394" y="90" on="0"/>
        <pt x="475" y="61" on="0"/>
        <pt x="518" y="61" on="1"/>
        <pt x="581" y="61" on="0"/>
        <pt x="728" y="125" on="0"/>
        <pt x="813" y="201" on="1"/>
        <pt x="707" y="343" on="0"/>
        <pt x="552" y="559" on="0"/>
        <pt x="514" y="616" on="1"/>
        <pt x="482" y="590" on="0"/>
        <pt x="405" y="510" on="0"/>
        <pt x="338" y="414" on="0"/>
        <pt x="293" y="309" on="0"/>
      </contour>
      <contour>
        <pt x="485" y="1059" on="1"/>
        <pt x="488" y="1017" on="0"/>
        <pt x="522" y="922" on="0"/>
        <pt x="551" y="866" on="1"/>
        <pt x="585" y="894" on="0"/>
        <pt x="639" y="946" on="0"/>
        <pt x="677" y="996" on="0"/>
        <pt x="695" y="1048" on="0"/>
        <pt x="692" y="1077" on="1"/>
        <pt x="689" y="1102" on="0"/>
        <pt x="670" y="1137" on="0"/>
        <pt x="642" y="1160" on="0"/>
        <pt x="608" y="1171" on="0"/>
        <pt x="590" y="1171" on="1"/>
        <pt x="569" y="1171" on="0"/>
        <pt x="530" y="1157" on="0"/>
        <pt x="500" y="1129" on="0"/>
        <pt x="483" y="1087" on="0"/>
      </contour>
    </TTGlyph>
    <TTGlyph name="aogonek" xMin="63" yMin="-565" xMax="1266" yMax="1110">
      <contour>
        <pt x="1266" y="-430" on="1"/>
        <pt x="1234" y="-468" on="0"/>
        <pt x="1170" y="-520" on="0"/>
        <pt x="1110" y="-552" on="0"/>
        <pt x="1052" y="-565" on="0"/>
        <pt x="1026" y="-565" on="1"/>
        <pt x="981" y="-565" on="0"/>
        <pt x="898" y="-535" on="0"/>
        <pt x="834" y="-479" on="0"/>
        <pt x="795" y="-399" on="0"/>
        <pt x="795" y="-350" on="1"/>
        <pt x="795" y="-324" on="0"/>
        <pt x="806" y="-261" on="0"/>
        <pt x="835" y="-189" on="0"/>
        <pt x="885" y="-108" on="0"/>
        <pt x="924" y="-63" on="1"/>
        <pt x="938" y="78" on="1"/>
        <pt x="816" y="0" on="0"/>
        <pt x="581" y="-70" on="0"/>
        <pt x="479" y="-70" on="1"/>
        <pt x="407" y="-70" on="0"/>
        <pt x="272" y="-33" on="0"/>
        <pt x="169" y="44" on="0"/>
        <pt x="106" y="163" on="0"/>
        <pt x="106" y="244" on="1"/>
        <pt x="106" y="325" on="0"/>
        <pt x="154" y="453" on="0"/>
        <pt x="238" y="551" on="0"/>
        <pt x="352" y="621" on="0"/>
        <pt x="483" y="665" on="0"/>
        <pt x="627" y="686" on="0"/>
        <pt x="698" y="686" on="1"/>
        <pt x="764" y="686" on="0"/>
        <pt x="878" y="676" on="0"/>
        <pt x="922" y="668" on="1"/>
        <pt x="909" y="718" on="0"/>
        <pt x="871" y="815" on="0"/>
        <pt x="812" y="892" on="0"/>
        <pt x="726" y="940" on="0"/>
        <pt x="666" y="940" on="1"/>
        <pt x="627" y="940" on="0"/>
        <pt x="527" y="917" on="0"/>
        <pt x="407" y="857" on="0"/>
        <pt x="265" y="752" on="0"/>
        <pt x="184" y="670" on="1"/>
        <pt x="63" y="817" on="1"/>
        <pt x="159" y="907" on="0"/>
        <pt x="335" y="1021" on="0"/>
        <pt x="490" y="1086" on="0"/>
        <pt x="623" y="1110" on="0"/>
        <pt x="676" y="1110" on="1"/>
        <pt x="768" y="1110" on="0"/>
        <pt x="912" y="1047" on="0"/>
        <pt x="1021" y="938" on="0"/>
        <pt x="1096" y="791" on="0"/>
        <pt x="1144" y="622" on="0"/>
        <pt x="1165" y="440" on="0"/>
        <pt x="1165" y="350" on="1"/>
        <pt x="1165" y="254" on="0"/>
        <pt x="1143" y="34" on="0"/>
        <pt x="1120" y="-96" on="1"/>
        <pt x="1083" y="-121" on="0"/>
        <pt x="1031" y="-171" on="0"/>
        <pt x="997" y="-220" on="0"/>
        <pt x="977" y="-265" on="0"/>
        <pt x="972" y="-285" on="1"/>
        <pt x="961" y="-332" on="0"/>
        <pt x="971" y="-375" on="1"/>
        <pt x="977" y="-384" on="0"/>
        <pt x="987" y="-391" on="1"/>
        <pt x="995" y="-397" on="0"/>
        <pt x="1019" y="-406" on="0"/>
        <pt x="1036" y="-406" on="1"/>
        <pt x="1062" y="-406" on="0"/>
        <pt x="1133" y="-368" on="0"/>
        <pt x="1180" y="-317" on="1"/>
      </contour>
      <contour>
        <pt x="952" y="301" on="1"/>
        <pt x="954" y="351" on="0"/>
        <pt x="956" y="449" on="0"/>
        <pt x="950" y="502" on="1"/>
        <pt x="901" y="517" on="0"/>
        <pt x="793" y="535" on="0"/>
        <pt x="739" y="535" on="1"/>
        <pt x="649" y="535" on="0"/>
        <pt x="480" y="493" on="0"/>
        <pt x="358" y="413" on="0"/>
        <pt x="297" y="297" on="0"/>
        <pt x="315" y="223" on="1"/>
        <pt x="329" y="163" on="0"/>
        <pt x="410" y="115" on="0"/>
        <pt x="467" y="115" on="1"/>
        <pt x="525" y="115" on="0"/>
        <pt x="660" y="154" on="0"/>
        <pt x="793" y="211" on="0"/>
        <pt x="911" y="275" on="0"/>
      </contour>
    </TTGlyph>
    <TTGlyph name="approxequal" xMin="150" yMin="238" xMax="1093" yMax="1178">
      <contour>
        <pt x="1092" y="1135" on="1"/>
        <pt x="1093" y="1068" on="0"/>
        <pt x="1070" y="963" on="0"/>
        <pt x="1032" y="882" on="0"/>
        <pt x="983" y="822" on="0"/>
        <pt x="957" y="801" on="1"/>
        <pt x="896" y="752" on="0"/>
        <pt x="819" y="733" on="1"/>
        <pt x="764" y="723" on="0"/>
        <pt x="680" y="749" on="0"/>
        <pt x="615" y="799" on="0"/>
        <pt x="563" y="861" on="0"/>
        <pt x="516" y="913" on="0"/>
        <pt x="471" y="943" on="0"/>
        <pt x="444" y="936" on="1"/>
        <pt x="414" y="925" on="0"/>
        <pt x="392" y="897" on="1"/>
        <pt x="373" y="873" on="0"/>
        <pt x="346" y="783" on="0"/>
        <pt x="352" y="707" on="1"/>
        <pt x="150" y="727" on="1"/>
        <pt x="151" y="796" on="0"/>
        <pt x="174" y="905" on="0"/>
        <pt x="211" y="989" on="0"/>
        <pt x="258" y="1052" on="0"/>
        <pt x="282" y="1074" on="1"/>
        <pt x="339" y="1126" on="0"/>
        <pt x="412" y="1145" on="1"/>
        <pt x="467" y="1156" on="0"/>
        <pt x="547" y="1129" on="0"/>
        <pt x="610" y="1077" on="0"/>
        <pt x="661" y="1012" on="0"/>
        <pt x="714" y="958" on="0"/>
        <pt x="773" y="928" on="0"/>
        <pt x="813" y="936" on="1"/>
        <pt x="835" y="943" on="0"/>
        <pt x="853" y="963" on="1"/>
        <pt x="868" y="980" on="0"/>
        <pt x="893" y="1048" on="0"/>
        <pt x="893" y="1108" on="1"/>
        <pt x="893" y="1123" on="0"/>
        <pt x="891" y="1159" on="0"/>
        <pt x="889" y="1178" on="1"/>
      </contour>
      <contour>
        <pt x="1092" y="666" on="1"/>
        <pt x="1093" y="599" on="0"/>
        <pt x="1070" y="494" on="0"/>
        <pt x="1032" y="413" on="0"/>
        <pt x="983" y="353" on="0"/>
        <pt x="957" y="332" on="1"/>
        <pt x="896" y="283" on="0"/>
        <pt x="819" y="264" on="1"/>
        <pt x="764" y="254" on="0"/>
        <pt x="680" y="280" on="0"/>
        <pt x="615" y="330" on="0"/>
        <pt x="563" y="392" on="0"/>
        <pt x="516" y="444" on="0"/>
        <pt x="471" y="474" on="0"/>
        <pt x="444" y="467" on="1"/>
        <pt x="414" y="456" on="0"/>
        <pt x="392" y="428" on="1"/>
        <pt x="373" y="404" on="0"/>
        <pt x="346" y="314" on="0"/>
        <pt x="352" y="238" on="1"/>
        <pt x="150" y="258" on="1"/>
        <pt x="151" y="327" on="0"/>
        <pt x="174" y="436" on="0"/>
        <pt x="211" y="520" on="0"/>
        <pt x="258" y="583" on="0"/>
        <pt x="282" y="605" on="1"/>
        <pt x="339" y="657" on="0"/>
        <pt x="412" y="676" on="1"/>
        <pt x="467" y="687" on="0"/>
        <pt x="547" y="660" on="0"/>
        <pt x="610" y="608" on="0"/>
        <pt x="661" y="543" on="0"/>
        <pt x="714" y="489" on="0"/>
        <pt x="773" y="459" on="0"/>
        <pt x="813" y="467" on="1"/>
        <pt x="835" y="474" on="0"/>
        <pt x="853" y="494" on="1"/>
        <pt x="868" y="511" on="0"/>
        <pt x="893" y="579" on="0"/>
        <pt x="893" y="639" on="1"/>
        <pt x="893" y="654" on="0"/>
        <pt x="891" y="690" on="0"/>
        <pt x="889" y="709" on="1"/>
      </contour>
    </TTGlyph>
    <TTGlyph name="aring" xMin="63" yMin="-96" xMax="1165" yMax="1698">
      <component glyphName="a" x="0" y="0" flags="0x204"/>
      <component glyphName="ring" x="348" y="96" flags="0x4"/>
    </TTGlyph>
    <TTGlyph name="asciicircum" xMin="102" yMin="426" xMax="844" yMax="1157">
      <contour>
        <pt x="844" y="467" on="1"/>
        <pt x="670" y="426" on="1"/>
        <pt x="506" y="1008" on="1"/>
        <pt x="270" y="449" on="1"/>
        <pt x="102" y="500" on="1"/>
        <pt x="408" y="1157" on="1"/>
        <pt x="649" y="1147" on="1"/>
      </contour>
    </TTGlyph>
    <TTGlyph name="asciitilde" xMin="133" yMin="522" xMax="1076" yMax="993">
      <contour>
        <pt x="1075" y="950" on="1"/>
        <pt x="1076" y="884" on="0"/>
        <pt x="1053" y="779" on="0"/>
        <pt x="1015" y="698" on="0"/>
        <pt x="965" y="638" on="0"/>
        <pt x="940" y="617" on="1"/>
        <pt x="879" y="568" on="0"/>
        <pt x="803" y="549" on="1"/>
        <pt x="748" y="539" on="0"/>
        <pt x="664" y="565" on="0"/>
        <pt x="599" y="615" on="0"/>
        <pt x="547" y="676" on="0"/>
        <pt x="500" y="728" on="0"/>
        <pt x="455" y="758" on="0"/>
        <pt x="428" y="752" on="1"/>
        <pt x="398" y="741" on="0"/>
        <pt x="376" y="713" on="1"/>
        <pt x="367" y="701" on="0"/>
        <pt x="349" y="667" on="0"/>
        <pt x="337" y="620" on="0"/>
        <pt x="333" y="560" on="0"/>
        <pt x="336" y="522" on="1"/>
        <pt x="133" y="543" on="1"/>
        <pt x="134" y="612" on="0"/>
        <pt x="157" y="720" on="0"/>
        <pt x="194" y="805" on="0"/>
        <pt x="241" y="867" on="0"/>
        <pt x="265" y="889" on="1"/>
        <pt x="322" y="941" on="0"/>
        <pt x="395" y="961" on="1"/>
        <pt x="450" y="972" on="0"/>
        <pt x="530" y="945" on="0"/>
        <pt x="593" y="893" on="0"/>
        <pt x="645" y="828" on="0"/>
        <pt x="698" y="774" on="0"/>
        <pt x="758" y="744" on="0"/>
        <pt x="797" y="752" on="1"/>
        <pt x="819" y="759" on="0"/>
        <pt x="837" y="779" on="1"/>
        <pt x="852" y="796" on="0"/>
        <pt x="877" y="864" on="0"/>
        <pt x="877" y="924" on="1"/>
        <pt x="877" y="939" on="0"/>
        <pt x="874" y="975" on="0"/>
        <pt x="872" y="993" on="1"/>
      </contour>
    </TTGlyph>
    <TTGlyph name="asterisk" xMin="86" yMin="545" xMax="969" yMax="1411">
      <contour>
        <pt x="969" y="995" on="1"/>
        <pt x="659" y="922" on="1"/>
        <pt x="936" y="694" on="1"/>
        <pt x="770" y="559" on="1"/>
        <pt x="530" y="850" on="1"/>
        <pt x="381" y="545" on="1"/>
        <pt x="182" y="631" on="1"/>
        <pt x="383" y="926" on="1"/>
        <pt x="86" y="995" on="1"/>
        <pt x="162" y="1182" on="1"/>
        <pt x="426" y="1063" on="1"/>
        <pt x="365" y="1397" on="1"/>
        <pt x="600" y="1411" on="1"/>
        <pt x="582" y="1051" on="1"/>
        <pt x="909" y="1204" on="1"/>
      </contour>
    </TTGlyph>
    <TTGlyph name="at" xMin="99" yMin="-16" xMax="1558" yMax="1373">
      <contour>
        <pt x="1554" y="762" on="1"/>
        <pt x="1550" y="648" on="0"/>
        <pt x="1476" y="482" on="0"/>
        <pt x="1367" y="376" on="0"/>
        <pt x="1239" y="329" on="0"/>
        <pt x="1182" y="334" on="1"/>
        <pt x="1150" y="337" on="0"/>
        <pt x="1088" y="353" on="0"/>
        <pt x="1034" y="381" on="0"/>
        <pt x="989" y="424" on="0"/>
        <pt x="973" y="453" on="1"/>
        <pt x="942" y="425" on="0"/>
        <pt x="876" y="391" on="0"/>
        <pt x="849" y="381" on="1"/>
        <pt x="816" y="370" on="0"/>
        <pt x="786" y="365" on="1"/>
        <pt x="718" y="355" on="0"/>
        <pt x="605" y="387" on="0"/>
        <pt x="522" y="461" on="0"/>
        <pt x="473" y="573" on="0"/>
        <pt x="469" y="643" on="1"/>
        <pt x="465" y="713" on="0"/>
        <pt x="508" y="831" on="0"/>
        <pt x="587" y="918" on="0"/>
        <pt x="699" y="967" on="0"/>
        <pt x="764" y="967" on="1"/>
        <pt x="798" y="966" on="0"/>
        <pt x="831" y="961" on="1"/>
        <pt x="860" y="956" on="0"/>
        <pt x="927" y="936" on="0"/>
        <pt x="958" y="918" on="1"/>
        <pt x="969" y="991" on="1"/>
        <pt x="1128" y="987" on="1"/>
        <pt x="1122" y="877" on="0"/>
        <pt x="1117" y="728" on="0"/>
        <pt x="1116" y="682" on="1"/>
        <pt x="1115" y="628" on="0"/>
        <pt x="1116" y="596" on="1"/>
        <pt x="1114" y="559" on="0"/>
        <pt x="1135" y="517" on="0"/>
        <pt x="1165" y="496" on="0"/>
        <pt x="1200" y="493" on="0"/>
        <pt x="1214" y="496" on="1"/>
        <pt x="1223" y="497" on="0"/>
        <pt x="1255" y="506" on="0"/>
        <pt x="1293" y="528" on="0"/>
        <pt x="1332" y="566" on="0"/>
        <pt x="1364" y="629" on="0"/>
        <pt x="1384" y="721" on="0"/>
        <pt x="1384" y="784" on="1"/>
        <pt x="1384" y="878" on="0"/>
        <pt x="1299" y="1040" on="0"/>
        <pt x="1147" y="1159" on="0"/>
        <pt x="937" y="1224" on="0"/>
        <pt x="813" y="1223" on="1"/>
        <pt x="735" y="1222" on="0"/>
        <pt x="595" y="1171" on="0"/>
        <pt x="474" y="1083" on="0"/>
        <pt x="377" y="966" on="0"/>
        <pt x="309" y="834" on="0"/>
        <pt x="272" y="694" on="0"/>
        <pt x="272" y="627" on="1"/>
        <pt x="272" y="526" on="0"/>
        <pt x="318" y="367" on="0"/>
        <pt x="432" y="247" on="0"/>
        <pt x="624" y="165" on="0"/>
        <pt x="770" y="143" on="1"/>
        <pt x="725" y="-16" on="1"/>
        <pt x="597" y="-7" on="0"/>
        <pt x="407" y="62" on="0"/>
        <pt x="272" y="162" on="0"/>
        <pt x="185" y="282" on="0"/>
        <pt x="160" y="344" on="1"/>
        <pt x="99" y="488" on="0"/>
        <pt x="109" y="666" on="1"/>
        <pt x="123" y="796" on="0"/>
        <pt x="205" y="1001" on="0"/>
        <pt x="324" y="1156" on="0"/>
        <pt x="470" y="1265" on="0"/>
        <pt x="625" y="1335" on="0"/>
        <pt x="777" y="1368" on="0"/>
        <pt x="844" y="1370" on="1"/>
        <pt x="916" y="1373" on="0"/>
        <pt x="1080" y="1344" on="0"/>
        <pt x="1240" y="1280" on="0"/>
        <pt x="1386" y="1180" on="0"/>
        <pt x="1496" y="1043" on="0"/>
        <pt x="1558" y="869" on="0"/>
      </contour>
      <contour>
        <pt x="942" y="612" on="1"/>
        <pt x="942" y="647" on="0"/>
        <pt x="944" y="722" on="0"/>
        <pt x="946" y="762" on="1"/>
        <pt x="920" y="783" on="0"/>
        <pt x="867" y="807" on="0"/>
        <pt x="845" y="812" on="1"/>
        <pt x="819" y="818" on="0"/>
        <pt x="795" y="819" on="1"/>
        <pt x="755" y="819" on="0"/>
        <pt x="697" y="785" on="0"/>
        <pt x="660" y="734" on="0"/>
        <pt x="643" y="676" on="0"/>
        <pt x="643" y="653" on="1"/>
        <pt x="643" y="629" on="0"/>
        <pt x="656" y="580" on="0"/>
        <pt x="687" y="540" on="0"/>
        <pt x="742" y="514" on="0"/>
        <pt x="784" y="514" on="1"/>
        <pt x="808" y="516" on="0"/>
        <pt x="834" y="527" on="1"/>
        <pt x="857" y="536" on="0"/>
        <pt x="913" y="576" on="0"/>
      </contour>
    </TTGlyph>
    <TTGlyph name="atilde" xMin="63" yMin="-96" xMax="1165" yMax="1571">
      <component glyphName="a" x="0" y="0" flags="0x204"/>
      <component glyphName="tilde" x="180" y="0" flags="0x4"/>
    </TTGlyph>
    <TTGlyph name="b" xMin="143" yMin="-68" xMax="1247" yMax="1499">
      <contour>
        <pt x="362" y="1499" on="1"/>
        <pt x="356" y="909" on="1"/>
        <pt x="414" y="965" on="0"/>
        <pt x="539" y="1026" on="0"/>
        <pt x="592" y="1040" on="1"/>
        <pt x="654" y="1057" on="0"/>
        <pt x="713" y="1059" on="1"/>
        <pt x="781" y="1059" on="0"/>
        <pt x="915" y="1020" on="0"/>
        <pt x="1035" y="949" on="0"/>
        <pt x="1136" y="849" on="0"/>
        <pt x="1209" y="726" on="0"/>
        <pt x="1247" y="584" on="0"/>
        <pt x="1245" y="506" on="1"/>
        <pt x="1242" y="420" on="0"/>
        <pt x="1196" y="268" on="0"/>
        <pt x="1121" y="141" on="0"/>
        <pt x="1021" y="39" on="0"/>
        <pt x="908" y="-31" on="0"/>
        <pt x="786" y="-68" on="0"/>
        <pt x="727" y="-68" on="1"/>
        <pt x="666" y="-66" on="0"/>
        <pt x="601" y="-49" on="1"/>
        <pt x="545" y="-35" on="0"/>
        <pt x="411" y="27" on="0"/>
        <pt x="346" y="84" on="1"/>
        <pt x="346" y="-47" on="1"/>
        <pt x="160" y="-51" on="1"/>
        <pt x="143" y="1491" on="1"/>
      </contour>
      <contour>
        <pt x="1030" y="487" on="1"/>
        <pt x="1035" y="562" on="0"/>
        <pt x="988" y="701" on="0"/>
        <pt x="897" y="807" on="0"/>
        <pt x="768" y="869" on="0"/>
        <pt x="692" y="868" on="1"/>
        <pt x="630" y="867" on="0"/>
        <pt x="521" y="827" on="0"/>
        <pt x="434" y="759" on="0"/>
        <pt x="370" y="669" on="0"/>
        <pt x="352" y="618" on="1"/>
        <pt x="350" y="379" on="1"/>
        <pt x="368" y="317" on="0"/>
        <pt x="434" y="222" on="0"/>
        <pt x="521" y="157" on="0"/>
        <pt x="622" y="124" on="0"/>
        <pt x="674" y="123" on="1"/>
        <pt x="747" y="121" on="0"/>
        <pt x="874" y="177" on="0"/>
        <pt x="969" y="276" on="0"/>
        <pt x="1026" y="410" on="0"/>
      </contour>
    </TTGlyph>
    <TTGlyph name="backslash" xMin="63" yMin="-18" xMax="1006" yMax="1425">
      <contour>
        <pt x="1006" y="14" on="1"/>
        <pt x="817" y="-18" on="1"/>
        <pt x="63" y="1395" on="1"/>
        <pt x="279" y="1425" on="1"/>
      </contour>
    </TTGlyph>
    <TTGlyph name="bar" xMin="160" yMin="-264" xMax="395" yMax="1731">
      <contour>
        <pt x="395" y="1731" on="1"/>
        <pt x="358" y="-254" on="1"/>
        <pt x="160" y="-264" on="1"/>
        <pt x="176" y="1731" on="1"/>
      </contour>
    </TTGlyph>
    <TTGlyph name="braceleft" xMin="55" yMin="-340" xMax="756" yMax="1772">
      <contour>
        <pt x="756" y="-274" on="1"/>
        <pt x="690" y="-310" on="0"/>
        <pt x="569" y="-340" on="0"/>
        <pt x="516" y="-340" on="1"/>
        <pt x="428" y="-340" on="0"/>
        <pt x="293" y="-267" on="0"/>
        <pt x="203" y="-157" on="0"/>
        <pt x="162" y="-27" on="0"/>
        <pt x="168" y="31" on="1"/>
        <pt x="175" y="91" on="0"/>
        <pt x="204" y="187" on="0"/>
        <pt x="238" y="269" on="0"/>
        <pt x="272" y="339" on="0"/>
        <pt x="295" y="405" on="0"/>
        <pt x="301" y="471" on="0"/>
        <pt x="291" y="508" on="1"/>
        <pt x="279" y="540" on="0"/>
        <pt x="249" y="566" on="1"/>
        <pt x="223" y="588" on="0"/>
        <pt x="131" y="625" on="0"/>
        <pt x="55" y="625" on="1"/>
        <pt x="55" y="807" on="1"/>
        <pt x="131" y="807" on="0"/>
        <pt x="223" y="843" on="0"/>
        <pt x="249" y="865" on="1"/>
        <pt x="279" y="891" on="0"/>
        <pt x="291" y="924" on="1"/>
        <pt x="301" y="961" on="0"/>
        <pt x="295" y="1027" on="0"/>
        <pt x="272" y="1093" on="0"/>
        <pt x="238" y="1163" on="0"/>
        <pt x="204" y="1244" on="0"/>
        <pt x="175" y="1341" on="0"/>
        <pt x="168" y="1401" on="1"/>
        <pt x="162" y="1458" on="0"/>
        <pt x="203" y="1589" on="0"/>
        <pt x="293" y="1699" on="0"/>
        <pt x="428" y="1772" on="0"/>
        <pt x="516" y="1772" on="1"/>
        <pt x="569" y="1772" on="0"/>
        <pt x="690" y="1741" on="0"/>
        <pt x="756" y="1706" on="1"/>
        <pt x="686" y="1520" on="1"/>
        <pt x="644" y="1551" on="0"/>
        <pt x="572" y="1573" on="0"/>
        <pt x="543" y="1573" on="1"/>
        <pt x="510" y="1573" on="0"/>
        <pt x="452" y="1550" on="0"/>
        <pt x="410" y="1508" on="0"/>
        <pt x="385" y="1450" on="0"/>
        <pt x="385" y="1415" on="1"/>
        <pt x="385" y="1359" on="0"/>
        <pt x="418" y="1255" on="0"/>
        <pt x="459" y="1151" on="0"/>
        <pt x="492" y="1045" on="0"/>
        <pt x="492" y="987" on="1"/>
        <pt x="492" y="952" on="0"/>
        <pt x="475" y="875" on="0"/>
        <pt x="427" y="801" on="0"/>
        <pt x="342" y="736" on="0"/>
        <pt x="274" y="715" on="1"/>
        <pt x="342" y="693" on="0"/>
        <pt x="427" y="629" on="0"/>
        <pt x="475" y="555" on="0"/>
        <pt x="492" y="477" on="0"/>
        <pt x="492" y="442" on="1"/>
        <pt x="492" y="387" on="0"/>
        <pt x="459" y="283" on="0"/>
        <pt x="418" y="180" on="0"/>
        <pt x="385" y="74" on="0"/>
        <pt x="385" y="16" on="1"/>
        <pt x="385" y="-17" on="0"/>
        <pt x="408" y="-74" on="0"/>
        <pt x="450" y="-117" on="0"/>
        <pt x="508" y="-141" on="0"/>
        <pt x="543" y="-141" on="1"/>
        <pt x="572" y="-141" on="0"/>
        <pt x="644" y="-119" on="0"/>
        <pt x="686" y="-88" on="1"/>
      </contour>
    </TTGlyph>
    <TTGlyph name="braceright" xMin="37" yMin="-340" xMax="737" yMax="1772">
      <contour>
        <pt x="737" y="625" on="1"/>
        <pt x="661" y="625" on="0"/>
        <pt x="569" y="588" on="0"/>
        <pt x="544" y="566" on="1"/>
        <pt x="514" y="540" on="0"/>
        <pt x="502" y="508" on="1"/>
        <pt x="492" y="471" on="0"/>
        <pt x="499" y="405" on="0"/>
        <pt x="523" y="339" on="0"/>
        <pt x="556" y="269" on="0"/>
        <pt x="590" y="187" on="0"/>
        <pt x="619" y="91" on="0"/>
        <pt x="625" y="31" on="1"/>
        <pt x="631" y="-27" on="0"/>
        <pt x="590" y="-157" on="0"/>
        <pt x="500" y="-267" on="0"/>
        <pt x="364" y="-340" on="0"/>
        <pt x="276" y="-340" on="1"/>
        <pt x="224" y="-340" on="0"/>
        <pt x="103" y="-310" on="0"/>
        <pt x="37" y="-274" on="1"/>
        <pt x="106" y="-88" on="1"/>
        <pt x="148" y="-119" on="0"/>
        <pt x="221" y="-141" on="0"/>
        <pt x="250" y="-141" on="1"/>
        <pt x="283" y="-141" on="0"/>
        <pt x="341" y="-118" on="0"/>
        <pt x="383" y="-77" on="0"/>
        <pt x="408" y="-19" on="0"/>
        <pt x="408" y="16" on="1"/>
        <pt x="408" y="71" on="0"/>
        <pt x="375" y="176" on="0"/>
        <pt x="334" y="280" on="0"/>
        <pt x="301" y="385" on="0"/>
        <pt x="301" y="442" on="1"/>
        <pt x="301" y="477" on="0"/>
        <pt x="318" y="555" on="0"/>
        <pt x="366" y="629" on="0"/>
        <pt x="450" y="693" on="0"/>
        <pt x="518" y="715" on="1"/>
        <pt x="450" y="736" on="0"/>
        <pt x="366" y="801" on="0"/>
        <pt x="318" y="875" on="0"/>
        <pt x="301" y="952" on="0"/>
        <pt x="301" y="987" on="1"/>
        <pt x="301" y="1042" on="0"/>
        <pt x="334" y="1147" on="0"/>
        <pt x="375" y="1251" on="0"/>
        <pt x="408" y="1358" on="0"/>
        <pt x="408" y="1415" on="1"/>
        <pt x="408" y="1448" on="0"/>
        <pt x="385" y="1506" on="0"/>
        <pt x="343" y="1548" on="0"/>
        <pt x="285" y="1573" on="0"/>
        <pt x="250" y="1573" on="1"/>
        <pt x="221" y="1573" on="0"/>
        <pt x="148" y="1551" on="0"/>
        <pt x="106" y="1520" on="1"/>
        <pt x="37" y="1706" on="1"/>
        <pt x="103" y="1741" on="0"/>
        <pt x="224" y="1772" on="0"/>
        <pt x="276" y="1772" on="1"/>
        <pt x="364" y="1772" on="0"/>
        <pt x="500" y="1699" on="0"/>
        <pt x="590" y="1589" on="0"/>
        <pt x="631" y="1458" on="0"/>
        <pt x="625" y="1401" on="1"/>
        <pt x="619" y="1341" on="0"/>
        <pt x="590" y="1244" on="0"/>
        <pt x="556" y="1163" on="0"/>
        <pt x="523" y="1093" on="0"/>
        <pt x="499" y="1027" on="0"/>
        <pt x="492" y="961" on="0"/>
        <pt x="502" y="924" on="1"/>
        <pt x="514" y="891" on="0"/>
        <pt x="544" y="865" on="1"/>
        <pt x="569" y="843" on="0"/>
        <pt x="661" y="807" on="0"/>
        <pt x="737" y="807" on="1"/>
      </contour>
    </TTGlyph>
    <TTGlyph name="bracketleft" xMin="168" yMin="-268" xMax="680" yMax="1733">
      <contour>
        <pt x="680" y="-268" on="1"/>
        <pt x="168" y="-268" on="1"/>
        <pt x="168" y="1733" on="1"/>
        <pt x="680" y="1733" on="1"/>
        <pt x="680" y="1540" on="1"/>
        <pt x="377" y="1540" on="1"/>
        <pt x="377" y="-82" on="1"/>
        <pt x="680" y="-82" on="1"/>
      </contour>
    </TTGlyph>
    <TTGlyph name="bracketright" xMin="59" yMin="-268" xMax="571" yMax="1733">
      <contour>
        <pt x="571" y="-268" on="1"/>
        <pt x="59" y="-268" on="1"/>
        <pt x="59" y="-82" on="1"/>
        <pt x="362" y="-82" on="1"/>
        <pt x="362" y="1540" on="1"/>
        <pt x="59" y="1540" on="1"/>
        <pt x="59" y="1733" on="1"/>
        <pt x="571" y="1733" on="1"/>
      </contour>
    </TTGlyph>
    <TTGlyph name="breve" xMin="0" yMin="1190" xMax="677" yMax="1579">
      <contour>
        <pt x="676" y="1569" on="1"/>
        <pt x="677" y="1500" on="0"/>
        <pt x="649" y="1394" on="0"/>
        <pt x="603" y="1314" on="0"/>
        <pt x="543" y="1259" on="0"/>
        <pt x="512" y="1241" on="1"/>
        <pt x="439" y="1198" on="0"/>
        <pt x="346" y="1190" on="1"/>
        <pt x="251" y="1192" on="0"/>
        <pt x="175" y="1231" on="1"/>
        <pt x="143" y="1247" on="0"/>
        <pt x="81" y="1299" on="0"/>
        <pt x="32" y="1376" on="0"/>
        <pt x="1" y="1482" on="0"/>
        <pt x="0" y="1552" on="1"/>
        <pt x="178" y="1563" on="1"/>
        <pt x="178" y="1521" on="0"/>
        <pt x="193" y="1459" on="0"/>
        <pt x="216" y="1414" on="0"/>
        <pt x="245" y="1385" on="0"/>
        <pt x="260" y="1376" on="1"/>
        <pt x="295" y="1355" on="0"/>
        <pt x="340" y="1356" on="1"/>
        <pt x="384" y="1362" on="0"/>
        <pt x="417" y="1388" on="1"/>
        <pt x="431" y="1399" on="0"/>
        <pt x="457" y="1431" on="0"/>
        <pt x="475" y="1478" on="0"/>
        <pt x="483" y="1539" on="0"/>
        <pt x="479" y="1579" on="1"/>
      </contour>
    </TTGlyph>
    <TTGlyph name="brokenbar" xMin="164" yMin="-264" xMax="399" yMax="1731">
      <contour>
        <pt x="399" y="1731" on="1"/>
        <pt x="383" y="827" on="1"/>
        <pt x="172" y="827" on="1"/>
        <pt x="180" y="1731" on="1"/>
      </contour>
      <contour>
        <pt x="377" y="575" on="1"/>
        <pt x="362" y="-254" on="1"/>
        <pt x="164" y="-264" on="1"/>
        <pt x="170" y="575" on="1"/>
      </contour>
    </TTGlyph>
    <TTGlyph name="bullet" xMin="176" yMin="485" xMax="571" yMax="883">
      <contour>
        <pt x="571" y="684" on="1"/>
        <pt x="571" y="643" on="0"/>
        <pt x="540" y="571" on="0"/>
        <pt x="487" y="517" on="0"/>
        <pt x="415" y="485" on="0"/>
        <pt x="375" y="485" on="1"/>
        <pt x="333" y="485" on="0"/>
        <pt x="261" y="517" on="0"/>
        <pt x="207" y="571" on="0"/>
        <pt x="176" y="643" on="0"/>
        <pt x="176" y="684" on="1"/>
        <pt x="176" y="725" on="0"/>
        <pt x="207" y="797" on="0"/>
        <pt x="261" y="851" on="0"/>
        <pt x="333" y="883" on="0"/>
        <pt x="375" y="883" on="1"/>
        <pt x="415" y="883" on="0"/>
        <pt x="487" y="851" on="0"/>
        <pt x="540" y="797" on="0"/>
        <pt x="571" y="725" on="0"/>
      </contour>
    </TTGlyph>
    <TTGlyph name="c" xMin="74" yMin="-104" xMax="1184" yMax="1061">
      <contour>
        <pt x="1184" y="750" on="1"/>
        <pt x="1018" y="649" on="1"/>
        <pt x="1016" y="655" on="1"/>
        <pt x="990" y="706" on="0"/>
        <pt x="916" y="787" on="0"/>
        <pt x="824" y="844" on="0"/>
        <pt x="719" y="874" on="0"/>
        <pt x="662" y="874" on="1"/>
        <pt x="580" y="874" on="0"/>
        <pt x="437" y="812" on="0"/>
        <pt x="330" y="704" on="0"/>
        <pt x="268" y="559" on="0"/>
        <pt x="268" y="477" on="1"/>
        <pt x="268" y="396" on="0"/>
        <pt x="330" y="252" on="0"/>
        <pt x="437" y="144" on="0"/>
        <pt x="580" y="82" on="0"/>
        <pt x="662" y="82" on="1"/>
        <pt x="715" y="82" on="0"/>
        <pt x="815" y="110" on="0"/>
        <pt x="904" y="161" on="0"/>
        <pt x="978" y="234" on="0"/>
        <pt x="1004" y="279" on="1"/>
        <pt x="1008" y="285" on="1"/>
        <pt x="1182" y="186" on="1"/>
        <pt x="1180" y="180" on="1"/>
        <pt x="1141" y="115" on="0"/>
        <pt x="1029" y="11" on="0"/>
        <pt x="894" y="-64" on="0"/>
        <pt x="741" y="-104" on="0"/>
        <pt x="662" y="-104" on="1"/>
        <pt x="549" y="-104" on="0"/>
        <pt x="338" y="-16" on="0"/>
        <pt x="173" y="140" on="0"/>
        <pt x="74" y="352" on="0"/>
        <pt x="74" y="477" on="1"/>
        <pt x="74" y="552" on="0"/>
        <pt x="115" y="697" on="0"/>
        <pt x="190" y="827" on="0"/>
        <pt x="297" y="937" on="0"/>
        <pt x="427" y="1016" on="0"/>
        <pt x="579" y="1061" on="0"/>
        <pt x="662" y="1061" on="1"/>
        <pt x="749" y="1061" on="0"/>
        <pt x="906" y="1019" on="0"/>
        <pt x="1040" y="940" on="0"/>
        <pt x="1146" y="826" on="0"/>
        <pt x="1182" y="754" on="1"/>
      </contour>
    </TTGlyph>
    <TTGlyph name="cacute" xMin="74" yMin="-104" xMax="1184" yMax="1574">
      <component glyphName="c" x="0" y="0" flags="0x204"/>
      <component glyphName="acute" x="614" y="-28" flags="0x4"/>
    </TTGlyph>
    <TTGlyph name="caron" xMin="0" yMin="1141" xMax="653" yMax="1587">
      <contour>
        <pt x="653" y="1432" on="1"/>
        <pt x="309" y="1141" on="1"/>
        <pt x="0" y="1475" on="1"/>
        <pt x="139" y="1587" on="1"/>
        <pt x="330" y="1364" on="1"/>
        <pt x="532" y="1546" on="1"/>
      </contour>
    </TTGlyph>
    <TTGlyph name="ccaron" xMin="74" yMin="-104" xMax="1184" yMax="1587">
      <component glyphName="c" x="0" y="0" flags="0x204"/>
      <component glyphName="caron" x="326" y="0" flags="0x4"/>
    </TTGlyph>
    <TTGlyph name="ccedilla" xMin="78" yMin="-590" xMax="1188" yMax="1061">
      <contour>
        <pt x="854" y="-410" on="1"/>
        <pt x="845" y="-461" on="0"/>
        <pt x="796" y="-530" on="0"/>
        <pt x="729" y="-572" on="0"/>
        <pt x="649" y="-590" on="0"/>
        <pt x="610" y="-590" on="1"/>
        <pt x="544" y="-590" on="0"/>
        <pt x="434" y="-543" on="0"/>
        <pt x="375" y="-506" on="1"/>
        <pt x="432" y="-377" on="1"/>
        <pt x="466" y="-406" on="0"/>
        <pt x="531" y="-437" on="0"/>
        <pt x="557" y="-445" on="1"/>
        <pt x="587" y="-454" on="0"/>
        <pt x="614" y="-455" on="1"/>
        <pt x="655" y="-455" on="0"/>
        <pt x="700" y="-403" on="0"/>
        <pt x="700" y="-369" on="1"/>
        <pt x="700" y="-343" on="0"/>
        <pt x="670" y="-293" on="0"/>
        <pt x="635" y="-276" on="1"/>
        <pt x="608" y="-265" on="0"/>
        <pt x="577" y="-257" on="1"/>
        <pt x="551" y="-250" on="0"/>
        <pt x="484" y="-244" on="0"/>
        <pt x="449" y="-250" on="1"/>
        <pt x="522" y="-84" on="1"/>
        <pt x="432" y="-60" on="0"/>
        <pt x="270" y="43" on="0"/>
        <pt x="149" y="189" on="0"/>
        <pt x="78" y="373" on="0"/>
        <pt x="78" y="477" on="1"/>
        <pt x="78" y="552" on="0"/>
        <pt x="119" y="697" on="0"/>
        <pt x="194" y="827" on="0"/>
        <pt x="301" y="937" on="0"/>
        <pt x="431" y="1016" on="0"/>
        <pt x="583" y="1061" on="0"/>
        <pt x="666" y="1061" on="1"/>
        <pt x="753" y="1061" on="0"/>
        <pt x="910" y="1019" on="0"/>
        <pt x="1044" y="940" on="0"/>
        <pt x="1151" y="826" on="0"/>
        <pt x="1186" y="754" on="1"/>
        <pt x="1188" y="750" on="1"/>
        <pt x="1022" y="649" on="1"/>
        <pt x="1020" y="655" on="1"/>
        <pt x="994" y="706" on="0"/>
        <pt x="920" y="787" on="0"/>
        <pt x="828" y="844" on="0"/>
        <pt x="723" y="874" on="0"/>
        <pt x="666" y="874" on="1"/>
        <pt x="585" y="874" on="0"/>
        <pt x="441" y="812" on="0"/>
        <pt x="334" y="704" on="0"/>
        <pt x="272" y="559" on="0"/>
        <pt x="272" y="477" on="1"/>
        <pt x="272" y="396" on="0"/>
        <pt x="334" y="252" on="0"/>
        <pt x="441" y="144" on="0"/>
        <pt x="585" y="82" on="0"/>
        <pt x="666" y="82" on="1"/>
        <pt x="719" y="82" on="0"/>
        <pt x="819" y="110" on="0"/>
        <pt x="908" y="161" on="0"/>
        <pt x="982" y="234" on="0"/>
        <pt x="1008" y="279" on="1"/>
        <pt x="1012" y="285" on="1"/>
        <pt x="1186" y="186" on="1"/>
        <pt x="1184" y="180" on="1"/>
        <pt x="1145" y="115" on="0"/>
        <pt x="1034" y="11" on="0"/>
        <pt x="899" y="-64" on="0"/>
        <pt x="746" y="-104" on="0"/>
        <pt x="666" y="-104" on="1"/>
        <pt x="656" y="-104" on="0"/>
        <pt x="639" y="-104" on="0"/>
        <pt x="631" y="-102" on="1"/>
        <pt x="612" y="-154" on="1"/>
        <pt x="664" y="-157" on="0"/>
        <pt x="740" y="-182" on="0"/>
        <pt x="794" y="-219" on="0"/>
        <pt x="828" y="-265" on="0"/>
        <pt x="838" y="-288" on="1"/>
        <pt x="861" y="-343" on="0"/>
      </contour>
    </TTGlyph>
    <TTGlyph name="ccircumflex" xMin="74" yMin="-104" xMax="1184" yMax="1542">
      <component glyphName="c" x="0" y="0" flags="0x204"/>
      <component glyphName="circumflex" x="289" y="0" flags="0x4"/>
    </TTGlyph>
    <TTGlyph name="cdotaccent" xMin="74" yMin="-104" xMax="1184" yMax="1377">
      <component glyphName="c" x="0" y="0" flags="0x204"/>
      <component glyphName="dotaccent" x="526" y="-67" flags="0x4"/>
    </TTGlyph>
    <TTGlyph name="cedilla" xMin="0" yMin="-590" xMax="485" yMax="51">
      <contour>
        <pt x="479" y="-410" on="1"/>
        <pt x="471" y="-461" on="0"/>
        <pt x="422" y="-530" on="0"/>
        <pt x="354" y="-572" on="0"/>
        <pt x="275" y="-590" on="0"/>
        <pt x="236" y="-590" on="1"/>
        <pt x="169" y="-590" on="0"/>
        <pt x="59" y="-543" on="0"/>
        <pt x="0" y="-506" on="1"/>
        <pt x="57" y="-377" on="1"/>
        <pt x="91" y="-406" on="0"/>
        <pt x="156" y="-437" on="0"/>
        <pt x="182" y="-445" on="1"/>
        <pt x="212" y="-454" on="0"/>
        <pt x="240" y="-455" on="1"/>
        <pt x="280" y="-455" on="0"/>
        <pt x="326" y="-403" on="0"/>
        <pt x="326" y="-369" on="1"/>
        <pt x="326" y="-328" on="0"/>
        <pt x="271" y="-277" on="0"/>
        <pt x="193" y="-251" on="0"/>
        <pt x="106" y="-246" on="0"/>
        <pt x="74" y="-250" on="1"/>
        <pt x="211" y="51" on="1"/>
        <pt x="303" y="29" on="1"/>
        <pt x="238" y="-154" on="1"/>
        <pt x="290" y="-157" on="0"/>
        <pt x="366" y="-182" on="0"/>
        <pt x="420" y="-219" on="0"/>
        <pt x="453" y="-265" on="0"/>
        <pt x="463" y="-288" on="1"/>
        <pt x="485" y="-343" on="0"/>
      </contour>
    </TTGlyph>
    <TTGlyph name="cent" xMin="80" yMin="-299" xMax="825" yMax="1579">
      <contour>
        <pt x="600" y="1579" on="1"/>
        <pt x="567" y="1055" on="1"/>
        <pt x="646" y="1041" on="0"/>
        <pt x="779" y="959" on="0"/>
        <pt x="825" y="897" on="1"/>
        <pt x="694" y="772" on="1"/>
        <pt x="679" y="794" on="0"/>
        <pt x="635" y="837" on="0"/>
        <pt x="583" y="872" on="0"/>
        <pt x="525" y="893" on="0"/>
        <pt x="496" y="893" on="1"/>
        <pt x="450" y="893" on="0"/>
        <pt x="369" y="860" on="0"/>
        <pt x="309" y="797" on="0"/>
        <pt x="274" y="705" on="0"/>
        <pt x="274" y="645" on="1"/>
        <pt x="274" y="588" on="0"/>
        <pt x="309" y="497" on="0"/>
        <pt x="369" y="433" on="0"/>
        <pt x="450" y="399" on="0"/>
        <pt x="496" y="399" on="1"/>
        <pt x="525" y="399" on="0"/>
        <pt x="585" y="419" on="0"/>
        <pt x="641" y="452" on="0"/>
        <pt x="687" y="495" on="0"/>
        <pt x="702" y="518" on="1"/>
        <pt x="825" y="391" on="1"/>
        <pt x="777" y="331" on="0"/>
        <pt x="649" y="251" on="0"/>
        <pt x="573" y="236" on="1"/>
        <pt x="604" y="-293" on="1"/>
        <pt x="412" y="-299" on="1"/>
        <pt x="436" y="233" on="1"/>
        <pt x="361" y="244" on="0"/>
        <pt x="231" y="316" on="0"/>
        <pt x="135" y="425" on="0"/>
        <pt x="80" y="566" on="0"/>
        <pt x="80" y="645" on="1"/>
        <pt x="80" y="722" on="0"/>
        <pt x="132" y="859" on="0"/>
        <pt x="224" y="968" on="0"/>
        <pt x="349" y="1042" on="0"/>
        <pt x="422" y="1055" on="1"/>
        <pt x="387" y="1573" on="1"/>
      </contour>
    </TTGlyph>
    <TTGlyph name="circumflex" xMin="0" yMin="1116" xMax="662" yMax="1542">
      <contour>
        <pt x="662" y="1253" on="1"/>
        <pt x="551" y="1126" on="1"/>
        <pt x="324" y="1325" on="1"/>
        <pt x="139" y="1116" on="1"/>
        <pt x="0" y="1204" on="1"/>
        <pt x="313" y="1542" on="1"/>
      </contour>
    </TTGlyph>
    <TTGlyph name="colon" xMin="129" yMin="-70" xMax="385" yMax="862">
      <contour>
        <pt x="385" y="57" on="1"/>
        <pt x="385" y="31" on="0"/>
        <pt x="365" y="-15" on="0"/>
        <pt x="330" y="-50" on="0"/>
        <pt x="284" y="-70" on="0"/>
        <pt x="258" y="-70" on="1"/>
        <pt x="231" y="-70" on="0"/>
        <pt x="184" y="-50" on="0"/>
        <pt x="149" y="-15" on="0"/>
        <pt x="129" y="31" on="0"/>
        <pt x="129" y="57" on="1"/>
        <pt x="129" y="84" on="0"/>
        <pt x="149" y="131" on="0"/>
        <pt x="184" y="166" on="0"/>
        <pt x="231" y="186" on="0"/>
        <pt x="258" y="186" on="1"/>
        <pt x="284" y="186" on="0"/>
        <pt x="330" y="166" on="0"/>
        <pt x="365" y="131" on="0"/>
        <pt x="385" y="84" on="0"/>
      </contour>
      <contour>
        <pt x="385" y="733" on="1"/>
        <pt x="385" y="707" on="0"/>
        <pt x="365" y="661" on="0"/>
        <pt x="330" y="626" on="0"/>
        <pt x="284" y="606" on="0"/>
        <pt x="258" y="606" on="1"/>
        <pt x="231" y="606" on="0"/>
        <pt x="184" y="626" on="0"/>
        <pt x="149" y="661" on="0"/>
        <pt x="129" y="707" on="0"/>
        <pt x="129" y="733" on="1"/>
        <pt x="129" y="760" on="0"/>
        <pt x="149" y="807" on="0"/>
        <pt x="184" y="842" on="0"/>
        <pt x="231" y="862" on="0"/>
        <pt x="258" y="862" on="1"/>
        <pt x="284" y="862" on="0"/>
        <pt x="330" y="842" on="0"/>
        <pt x="365" y="807" on="0"/>
        <pt x="385" y="760" on="0"/>
      </contour>
    </TTGlyph>
    <TTGlyph name="comma" xMin="121" yMin="-274" xMax="383" yMax="186">
      <contour>
        <pt x="383" y="57" on="1"/>
        <pt x="381" y="1" on="0"/>
        <pt x="364" y="-56" on="1"/>
        <pt x="350" y="-105" on="0"/>
        <pt x="289" y="-222" on="0"/>
        <pt x="233" y="-274" on="1"/>
        <pt x="121" y="-236" on="1"/>
        <pt x="136" y="-216" on="0"/>
        <pt x="150" y="-189" on="1"/>
        <pt x="162" y="-166" on="0"/>
        <pt x="187" y="-100" on="0"/>
        <pt x="195" y="-55" on="1"/>
        <pt x="164" y="-38" on="0"/>
        <pt x="127" y="20" on="0"/>
        <pt x="127" y="57" on="1"/>
        <pt x="127" y="84" on="0"/>
        <pt x="147" y="131" on="0"/>
        <pt x="181" y="166" on="0"/>
        <pt x="228" y="186" on="0"/>
        <pt x="254" y="186" on="1"/>
        <pt x="281" y="186" on="0"/>
        <pt x="328" y="166" on="0"/>
        <pt x="363" y="131" on="0"/>
        <pt x="383" y="84" on="0"/>
      </contour>
    </TTGlyph>
    <TTGlyph name="copyright" xMin="113" yMin="283" xMax="940" yMax="1128">
      <contour>
        <pt x="754" y="565" on="1"/>
        <pt x="713" y="506" on="0"/>
        <pt x="596" y="436" on="0"/>
        <pt x="530" y="436" on="1"/>
        <pt x="476" y="436" on="0"/>
        <pt x="382" y="478" on="0"/>
        <pt x="312" y="550" on="0"/>
        <pt x="272" y="647" on="0"/>
        <pt x="272" y="702" on="1"/>
        <pt x="272" y="757" on="0"/>
        <pt x="312" y="853" on="0"/>
        <pt x="382" y="925" on="0"/>
        <pt x="476" y="967" on="0"/>
        <pt x="530" y="967" on="1"/>
        <pt x="592" y="967" on="0"/>
        <pt x="705" y="905" on="0"/>
        <pt x="743" y="852" on="1"/>
        <pt x="664" y="788" on="1"/>
        <pt x="638" y="823" on="0"/>
        <pt x="568" y="862" on="0"/>
        <pt x="530" y="862" on="1"/>
        <pt x="498" y="862" on="0"/>
        <pt x="443" y="837" on="0"/>
        <pt x="401" y="794" on="0"/>
        <pt x="377" y="735" on="0"/>
        <pt x="377" y="702" on="1"/>
        <pt x="377" y="668" on="0"/>
        <pt x="401" y="609" on="0"/>
        <pt x="443" y="566" on="0"/>
        <pt x="498" y="541" on="0"/>
        <pt x="530" y="541" on="1"/>
        <pt x="571" y="541" on="0"/>
        <pt x="643" y="585" on="0"/>
        <pt x="668" y="623" on="1"/>
      </contour>
      <contour>
        <pt x="940" y="705" on="1"/>
        <pt x="940" y="618" on="0"/>
        <pt x="875" y="464" on="0"/>
        <pt x="762" y="350" on="0"/>
        <pt x="610" y="283" on="0"/>
        <pt x="524" y="283" on="1"/>
        <pt x="439" y="283" on="0"/>
        <pt x="289" y="350" on="0"/>
        <pt x="178" y="464" on="0"/>
        <pt x="113" y="618" on="0"/>
        <pt x="113" y="705" on="1"/>
        <pt x="113" y="793" on="0"/>
        <pt x="178" y="947" on="0"/>
        <pt x="289" y="1062" on="0"/>
        <pt x="439" y="1128" on="0"/>
        <pt x="524" y="1128" on="1"/>
        <pt x="610" y="1128" on="0"/>
        <pt x="762" y="1062" on="0"/>
        <pt x="875" y="947" on="0"/>
        <pt x="940" y="793" on="0"/>
      </contour>
      <contour>
        <pt x="829" y="705" on="1"/>
        <pt x="829" y="770" on="0"/>
        <pt x="781" y="885" on="0"/>
        <pt x="699" y="970" on="0"/>
        <pt x="588" y="1020" on="0"/>
        <pt x="524" y="1020" on="1"/>
        <pt x="461" y="1020" on="0"/>
        <pt x="351" y="970" on="0"/>
        <pt x="268" y="885" on="0"/>
        <pt x="221" y="770" on="0"/>
        <pt x="221" y="705" on="1"/>
        <pt x="221" y="640" on="0"/>
        <pt x="268" y="526" on="0"/>
        <pt x="351" y="440" on="0"/>
        <pt x="461" y="391" on="0"/>
        <pt x="524" y="391" on="1"/>
        <pt x="588" y="391" on="0"/>
        <pt x="699" y="440" on="0"/>
        <pt x="781" y="526" on="0"/>
        <pt x="829" y="640" on="0"/>
      </contour>
    </TTGlyph>
    <TTGlyph name="currency" xMin="72" yMin="479" xMax="774" yMax="1188">
      <contour>
        <pt x="555" y="836" on="1"/>
        <pt x="555" y="860" on="0"/>
        <pt x="537" y="903" on="0"/>
        <pt x="505" y="934" on="0"/>
        <pt x="463" y="952" on="0"/>
        <pt x="438" y="952" on="1"/>
        <pt x="414" y="952" on="0"/>
        <pt x="370" y="934" on="0"/>
        <pt x="338" y="903" on="0"/>
        <pt x="319" y="860" on="0"/>
        <pt x="319" y="836" on="1"/>
        <pt x="319" y="811" on="0"/>
        <pt x="338" y="768" on="0"/>
        <pt x="370" y="736" on="0"/>
        <pt x="414" y="717" on="0"/>
        <pt x="438" y="717" on="1"/>
        <pt x="463" y="717" on="0"/>
        <pt x="505" y="736" on="0"/>
        <pt x="537" y="768" on="0"/>
        <pt x="555" y="811" on="0"/>
      </contour>
      <contour>
        <pt x="770" y="1024" on="1"/>
        <pt x="684" y="942" on="1"/>
        <pt x="693" y="919" on="0"/>
        <pt x="705" y="868" on="0"/>
        <pt x="705" y="842" on="1"/>
        <pt x="705" y="781" on="0"/>
        <pt x="680" y="729" on="1"/>
        <pt x="774" y="641" on="1"/>
        <pt x="647" y="512" on="1"/>
        <pt x="551" y="600" on="1"/>
        <pt x="525" y="588" on="0"/>
        <pt x="469" y="575" on="0"/>
        <pt x="438" y="575" on="1"/>
        <pt x="377" y="575" on="0"/>
        <pt x="324" y="600" on="1"/>
        <pt x="197" y="479" on="1"/>
        <pt x="72" y="610" on="1"/>
        <pt x="197" y="729" on="1"/>
        <pt x="172" y="778" on="0"/>
        <pt x="172" y="842" on="1"/>
        <pt x="172" y="895" on="0"/>
        <pt x="190" y="942" on="1"/>
        <pt x="72" y="1057" on="1"/>
        <pt x="195" y="1188" on="1"/>
        <pt x="309" y="1077" on="1"/>
        <pt x="338" y="1093" on="0"/>
        <pt x="403" y="1110" on="0"/>
        <pt x="438" y="1110" on="1"/>
        <pt x="472" y="1110" on="0"/>
        <pt x="536" y="1093" on="0"/>
        <pt x="565" y="1077" on="1"/>
        <pt x="651" y="1159" on="1"/>
      </contour>
    </TTGlyph>
    <TTGlyph name="d" xMin="78" yMin="-61" xMax="1202" yMax="1448">
      <contour>
        <pt x="1202" y="1434" on="1"/>
        <pt x="1198" y="-41" on="1"/>
        <pt x="993" y="-41" on="1"/>
        <pt x="995" y="86" on="1"/>
        <pt x="965" y="58" on="0"/>
        <pt x="902" y="16" on="0"/>
        <pt x="839" y="-15" on="0"/>
        <pt x="779" y="-36" on="0"/>
        <pt x="752" y="-43" on="1"/>
        <pt x="689" y="-59" on="0"/>
        <pt x="627" y="-61" on="1"/>
        <pt x="511" y="-61" on="0"/>
        <pt x="311" y="20" on="0"/>
        <pt x="163" y="171" on="0"/>
        <pt x="78" y="387" on="0"/>
        <pt x="78" y="522" on="1"/>
        <pt x="78" y="658" on="0"/>
        <pt x="172" y="871" on="0"/>
        <pt x="325" y="1017" on="0"/>
        <pt x="518" y="1094" on="0"/>
        <pt x="616" y="1094" on="1"/>
        <pt x="683" y="1093" on="0"/>
        <pt x="752" y="1076" on="1"/>
        <pt x="811" y="1062" on="0"/>
        <pt x="947" y="997" on="0"/>
        <pt x="1006" y="936" on="1"/>
        <pt x="1014" y="1448" on="1"/>
      </contour>
      <contour>
        <pt x="627" y="123" on="1"/>
        <pt x="689" y="123" on="0"/>
        <pt x="807" y="163" on="0"/>
        <pt x="906" y="236" on="0"/>
        <pt x="980" y="338" on="0"/>
        <pt x="999" y="399" on="1"/>
        <pt x="1001" y="612" on="1"/>
        <pt x="983" y="676" on="0"/>
        <pt x="907" y="783" on="0"/>
        <pt x="805" y="859" on="0"/>
        <pt x="684" y="901" on="0"/>
        <pt x="621" y="901" on="1"/>
        <pt x="547" y="901" on="0"/>
        <pt x="423" y="840" on="0"/>
        <pt x="333" y="734" on="0"/>
        <pt x="283" y="590" on="0"/>
        <pt x="283" y="506" on="1"/>
        <pt x="283" y="422" on="0"/>
        <pt x="334" y="282" on="0"/>
        <pt x="425" y="180" on="0"/>
        <pt x="552" y="123" on="0"/>
      </contour>
    </TTGlyph>
    <TTGlyph name="dagger" xMin="84" yMin="-264" xMax="827" yMax="1731">
      <contour>
        <pt x="571" y="1731" on="1"/>
        <pt x="563" y="1360" on="1"/>
        <pt x="827" y="1362" on="1"/>
        <pt x="823" y="1169" on="1"/>
        <pt x="559" y="1167" on="1"/>
        <pt x="532" y="-254" on="1"/>
        <pt x="336" y="-264" on="1"/>
        <pt x="346" y="1165" on="1"/>
        <pt x="84" y="1163" on="1"/>
        <pt x="84" y="1356" on="1"/>
        <pt x="348" y="1358" on="1"/>
        <pt x="352" y="1731" on="1"/>
      </contour>
    </TTGlyph>
    <TTGlyph name="daggerdbl" xMin="98" yMin="-264" xMax="842" yMax="1731">
      <contour>
        <pt x="354" y="233" on="1"/>
        <pt x="360" y="1165" on="1"/>
        <pt x="98" y="1163" on="1"/>
        <pt x="98" y="1356" on="1"/>
        <pt x="362" y="1358" on="1"/>
        <pt x="367" y="1731" on="1"/>
        <pt x="586" y="1731" on="1"/>
        <pt x="578" y="1360" on="1"/>
        <pt x="842" y="1362" on="1"/>
        <pt x="838" y="1169" on="1"/>
        <pt x="573" y="1167" on="1"/>
        <pt x="557" y="236" on="1"/>
        <pt x="842" y="238" on="1"/>
        <pt x="838" y="45" on="1"/>
        <pt x="553" y="43" on="1"/>
        <pt x="547" y="-254" on="1"/>
        <pt x="350" y="-264" on="1"/>
        <pt x="352" y="41" on="1"/>
        <pt x="98" y="41" on="1"/>
        <pt x="98" y="233" on="1"/>
      </contour>
    </TTGlyph>
    <TTGlyph name="dcaron" xMin="78" yMin="-61" xMax="1590" yMax="1518">
      <component glyphName="d" x="0" y="0" flags="0x4"/>
      <component glyphName="uni0315" x="1354" y="0" flags="0x4"/>
    </TTGlyph>
    <TTGlyph name="dcroat" xMin="78" yMin="-61" xMax="1409" yMax="1448">
      <contour>
        <pt x="1202" y="1434" on="1"/>
        <pt x="1202" y="1354" on="1"/>
        <pt x="1409" y="1362" on="1"/>
        <pt x="1409" y="1194" on="1"/>
        <pt x="1200" y="1186" on="1"/>
        <pt x="1198" y="-41" on="1"/>
        <pt x="993" y="-41" on="1"/>
        <pt x="995" y="86" on="1"/>
        <pt x="965" y="58" on="0"/>
        <pt x="902" y="16" on="0"/>
        <pt x="839" y="-15" on="0"/>
        <pt x="779" y="-36" on="0"/>
        <pt x="752" y="-43" on="1"/>
        <pt x="689" y="-59" on="0"/>
        <pt x="627" y="-61" on="1"/>
        <pt x="511" y="-61" on="0"/>
        <pt x="311" y="20" on="0"/>
        <pt x="163" y="171" on="0"/>
        <pt x="78" y="387" on="0"/>
        <pt x="78" y="522" on="1"/>
        <pt x="78" y="658" on="0"/>
        <pt x="172" y="871" on="0"/>
        <pt x="325" y="1017" on="0"/>
        <pt x="518" y="1094" on="0"/>
        <pt x="616" y="1094" on="1"/>
        <pt x="683" y="1093" on="0"/>
        <pt x="752" y="1076" on="1"/>
        <pt x="811" y="1062" on="0"/>
        <pt x="947" y="997" on="0"/>
        <pt x="1006" y="936" on="1"/>
        <pt x="1010" y="1180" on="1"/>
        <pt x="782" y="1171" on="1"/>
        <pt x="776" y="1339" on="1"/>
        <pt x="1012" y="1348" on="1"/>
        <pt x="1014" y="1448" on="1"/>
      </contour>
      <contour>
        <pt x="627" y="123" on="1"/>
        <pt x="689" y="123" on="0"/>
        <pt x="807" y="163" on="0"/>
        <pt x="906" y="236" on="0"/>
        <pt x="980" y="338" on="0"/>
        <pt x="999" y="399" on="1"/>
        <pt x="1001" y="612" on="1"/>
        <pt x="983" y="676" on="0"/>
        <pt x="907" y="783" on="0"/>
        <pt x="805" y="859" on="0"/>
        <pt x="684" y="901" on="0"/>
        <pt x="621" y="901" on="1"/>
        <pt x="547" y="901" on="0"/>
        <pt x="423" y="840" on="0"/>
        <pt x="333" y="734" on="0"/>
        <pt x="283" y="590" on="0"/>
        <pt x="283" y="506" on="1"/>
        <pt x="283" y="422" on="0"/>
        <pt x="334" y="282" on="0"/>
        <pt x="425" y="180" on="0"/>
        <pt x="552" y="123" on="0"/>
      </contour>
    </TTGlyph>
    <TTGlyph name="degree" xMin="94" yMin="903" xMax="627" yMax="1438">
      <contour>
        <pt x="627" y="1169" on="1"/>
        <pt x="627" y="1115" on="0"/>
        <pt x="585" y="1018" on="0"/>
        <pt x="513" y="945" on="0"/>
        <pt x="415" y="903" on="0"/>
        <pt x="360" y="903" on="1"/>
        <pt x="305" y="903" on="0"/>
        <pt x="208" y="945" on="0"/>
        <pt x="136" y="1018" on="0"/>
        <pt x="94" y="1115" on="0"/>
        <pt x="94" y="1169" on="1"/>
        <pt x="94" y="1224" on="0"/>
        <pt x="136" y="1322" on="0"/>
        <pt x="208" y="1396" on="0"/>
        <pt x="305" y="1438" on="0"/>
        <pt x="360" y="1438" on="1"/>
        <pt x="415" y="1438" on="0"/>
        <pt x="513" y="1396" on="0"/>
        <pt x="585" y="1322" on="0"/>
        <pt x="627" y="1224" on="0"/>
      </contour>
      <contour>
        <pt x="477" y="1163" on="1"/>
        <pt x="477" y="1188" on="0"/>
        <pt x="459" y="1230" on="0"/>
        <pt x="427" y="1262" on="0"/>
        <pt x="385" y="1280" on="0"/>
        <pt x="360" y="1280" on="1"/>
        <pt x="336" y="1280" on="0"/>
        <pt x="293" y="1262" on="0"/>
        <pt x="261" y="1230" on="0"/>
        <pt x="242" y="1188" on="0"/>
        <pt x="242" y="1163" on="1"/>
        <pt x="242" y="1139" on="0"/>
        <pt x="261" y="1095" on="0"/>
        <pt x="293" y="1063" on="0"/>
        <pt x="336" y="1044" on="0"/>
        <pt x="360" y="1044" on="1"/>
        <pt x="385" y="1044" on="0"/>
        <pt x="427" y="1063" on="0"/>
        <pt x="459" y="1095" on="0"/>
        <pt x="477" y="1139" on="0"/>
      </contour>
    </TTGlyph>
    <TTGlyph name="dieresis" xMin="0" yMin="1208" xMax="727" yMax="1444">
      <contour>
        <pt x="727" y="1327" on="1"/>
        <pt x="727" y="1303" on="0"/>
        <pt x="709" y="1259" on="0"/>
        <pt x="677" y="1227" on="0"/>
        <pt x="635" y="1208" on="0"/>
        <pt x="610" y="1208" on="1"/>
        <pt x="586" y="1208" on="0"/>
        <pt x="543" y="1227" on="0"/>
        <pt x="511" y="1259" on="0"/>
        <pt x="492" y="1303" on="0"/>
        <pt x="492" y="1327" on="1"/>
        <pt x="492" y="1352" on="0"/>
        <pt x="511" y="1394" on="0"/>
        <pt x="543" y="1426" on="0"/>
        <pt x="586" y="1444" on="0"/>
        <pt x="610" y="1444" on="1"/>
        <pt x="635" y="1444" on="0"/>
        <pt x="677" y="1426" on="0"/>
        <pt x="709" y="1394" on="0"/>
        <pt x="727" y="1352" on="0"/>
      </contour>
      <contour>
        <pt x="236" y="1327" on="1"/>
        <pt x="236" y="1303" on="0"/>
        <pt x="217" y="1259" on="0"/>
        <pt x="185" y="1227" on="0"/>
        <pt x="141" y="1208" on="0"/>
        <pt x="117" y="1208" on="1"/>
        <pt x="93" y="1208" on="0"/>
        <pt x="50" y="1227" on="0"/>
        <pt x="19" y="1259" on="0"/>
        <pt x="0" y="1303" on="0"/>
        <pt x="0" y="1327" on="1"/>
        <pt x="0" y="1352" on="0"/>
        <pt x="19" y="1394" on="0"/>
        <pt x="50" y="1426" on="0"/>
        <pt x="93" y="1444" on="0"/>
        <pt x="117" y="1444" on="1"/>
        <pt x="141" y="1444" on="0"/>
        <pt x="185" y="1426" on="0"/>
        <pt x="217" y="1394" on="0"/>
        <pt x="236" y="1352" on="0"/>
      </contour>
    </TTGlyph>
    <TTGlyph name="divide" xMin="119" yMin="203" xMax="915" yMax="1159">
      <contour>
        <pt x="915" y="600" on="1"/>
        <pt x="125" y="578" on="1"/>
        <pt x="119" y="786" on="1"/>
        <pt x="915" y="809" on="1"/>
      </contour>
      <contour>
        <pt x="645" y="330" on="1"/>
        <pt x="645" y="304" on="0"/>
        <pt x="625" y="257" on="0"/>
        <pt x="590" y="223" on="0"/>
        <pt x="544" y="203" on="0"/>
        <pt x="518" y="203" on="1"/>
        <pt x="491" y="203" on="0"/>
        <pt x="444" y="223" on="0"/>
        <pt x="409" y="257" on="0"/>
        <pt x="389" y="304" on="0"/>
        <pt x="389" y="330" on="1"/>
        <pt x="389" y="357" on="0"/>
        <pt x="409" y="404" on="0"/>
        <pt x="444" y="439" on="0"/>
        <pt x="491" y="459" on="0"/>
        <pt x="518" y="459" on="1"/>
        <pt x="544" y="459" on="0"/>
        <pt x="590" y="439" on="0"/>
        <pt x="625" y="404" on="0"/>
        <pt x="645" y="357" on="0"/>
      </contour>
      <contour>
        <pt x="655" y="1030" on="1"/>
        <pt x="655" y="1004" on="0"/>
        <pt x="635" y="958" on="0"/>
        <pt x="600" y="923" on="0"/>
        <pt x="554" y="903" on="0"/>
        <pt x="528" y="903" on="1"/>
        <pt x="501" y="903" on="0"/>
        <pt x="454" y="923" on="0"/>
        <pt x="419" y="958" on="0"/>
        <pt x="399" y="1004" on="0"/>
        <pt x="399" y="1030" on="1"/>
        <pt x="399" y="1057" on="0"/>
        <pt x="419" y="1104" on="0"/>
        <pt x="454" y="1139" on="0"/>
        <pt x="501" y="1159" on="0"/>
        <pt x="528" y="1159" on="1"/>
        <pt x="554" y="1159" on="0"/>
        <pt x="600" y="1139" on="0"/>
        <pt x="635" y="1104" on="0"/>
        <pt x="655" y="1057" on="0"/>
      </contour>
    </TTGlyph>
    <TTGlyph name="dollar" xMin="78" yMin="-299" xMax="825" yMax="1579">
      <contour>
        <pt x="575" y="1579" on="1"/>
        <pt x="549" y="1151" on="1"/>
        <pt x="606" y="1145" on="0"/>
        <pt x="696" y="1115" on="0"/>
        <pt x="761" y="1082" on="0"/>
        <pt x="799" y="1055" on="0"/>
        <pt x="803" y="1051" on="1"/>
        <pt x="745" y="879" on="1"/>
        <pt x="740" y="883" on="0"/>
        <pt x="693" y="910" on="0"/>
        <pt x="624" y="941" on="0"/>
        <pt x="541" y="967" on="0"/>
        <pt x="500" y="969" on="1"/>
        <pt x="393" y="975" on="0"/>
        <pt x="276" y="913" on="0"/>
        <pt x="276" y="850" on="1"/>
        <pt x="276" y="819" on="0"/>
        <pt x="302" y="784" on="0"/>
        <pt x="367" y="762" on="0"/>
        <pt x="479" y="745" on="0"/>
        <pt x="565" y="733" on="1"/>
        <pt x="643" y="721" on="0"/>
        <pt x="743" y="668" on="0"/>
        <pt x="802" y="598" on="0"/>
        <pt x="825" y="515" on="0"/>
        <pt x="825" y="473" on="1"/>
        <pt x="825" y="438" on="0"/>
        <pt x="819" y="408" on="1"/>
        <pt x="804" y="314" on="0"/>
        <pt x="665" y="194" on="0"/>
        <pt x="551" y="178" on="1"/>
        <pt x="578" y="-293" on="1"/>
        <pt x="385" y="-299" on="1"/>
        <pt x="408" y="176" on="1"/>
        <pt x="337" y="184" on="0"/>
        <pt x="220" y="228" on="0"/>
        <pt x="134" y="278" on="0"/>
        <pt x="82" y="320" on="0"/>
        <pt x="78" y="326" on="1"/>
        <pt x="158" y="467" on="1"/>
        <pt x="192" y="449" on="0"/>
        <pt x="272" y="405" on="0"/>
        <pt x="361" y="367" on="0"/>
        <pt x="457" y="342" on="0"/>
        <pt x="508" y="342" on="1"/>
        <pt x="565" y="342" on="0"/>
        <pt x="638" y="384" on="0"/>
        <pt x="649" y="422" on="1"/>
        <pt x="657" y="459" on="0"/>
        <pt x="625" y="511" on="0"/>
        <pt x="568" y="542" on="0"/>
        <pt x="496" y="557" on="0"/>
        <pt x="465" y="559" on="1"/>
        <pt x="127" y="574" on="0"/>
        <pt x="109" y="793" on="1"/>
        <pt x="102" y="862" on="0"/>
        <pt x="135" y="980" on="0"/>
        <pt x="208" y="1072" on="0"/>
        <pt x="318" y="1134" on="0"/>
        <pt x="389" y="1147" on="1"/>
        <pt x="362" y="1573" on="1"/>
      </contour>
    </TTGlyph>
    <TTGlyph name="dotaccent" xMin="0" yMin="1208" xMax="236" yMax="1444">
      <contour>
        <pt x="236" y="1327" on="1"/>
        <pt x="236" y="1303" on="0"/>
        <pt x="217" y="1259" on="0"/>
        <pt x="185" y="1227" on="0"/>
        <pt x="141" y="1208" on="0"/>
        <pt x="117" y="1208" on="1"/>
        <pt x="93" y="1208" on="0"/>
        <pt x="50" y="1227" on="0"/>
        <pt x="19" y="1259" on="0"/>
        <pt x="0" y="1303" on="0"/>
        <pt x="0" y="1327" on="1"/>
        <pt x="0" y="1352" on="0"/>
        <pt x="19" y="1394" on="0"/>
        <pt x="50" y="1426" on="0"/>
        <pt x="93" y="1444" on="0"/>
        <pt x="117" y="1444" on="1"/>
        <pt x="141" y="1444" on="0"/>
        <pt x="185" y="1426" on="0"/>
        <pt x="217" y="1394" on="0"/>
        <pt x="236" y="1352" on="0"/>
      </contour>
    </TTGlyph>
    <TTGlyph name="dotlessi" xMin="147" yMin="-27" xMax="371" yMax="981">
      <contour>
        <pt x="371" y="981" on="1"/>
        <pt x="368" y="838" on="0"/>
        <pt x="363" y="599" on="0"/>
        <pt x="359" y="403" on="0"/>
        <pt x="356" y="248" on="0"/>
        <pt x="355" y="190" on="1"/>
        <pt x="352" y="52" on="0"/>
        <pt x="352" y="-27" on="1"/>
        <pt x="147" y="-27" on="1"/>
        <pt x="149" y="81" on="0"/>
        <pt x="152" y="230" on="1"/>
        <pt x="154" y="358" on="0"/>
        <pt x="161" y="728" on="0"/>
        <pt x="164" y="973" on="1"/>
      </contour>
    </TTGlyph>
    <TTGlyph name="dotlessj" xMin="-174" yMin="-589" xMax="365" yMax="985">
      <contour>
        <pt x="365" y="977" on="1"/>
        <pt x="363" y="823" on="0"/>
        <pt x="360" y="572" on="0"/>
        <pt x="359" y="369" on="0"/>
        <pt x="357" y="213" on="0"/>
        <pt x="357" y="155" on="1"/>
        <pt x="356" y="19" on="0"/>
        <pt x="356" y="-53" on="1"/>
        <pt x="355" y="-106" on="0"/>
        <pt x="340" y="-227" on="0"/>
        <pt x="298" y="-346" on="0"/>
        <pt x="225" y="-456" on="0"/>
        <pt x="107" y="-540" on="0"/>
        <pt x="-60" y="-589" on="0"/>
        <pt x="-174" y="-588" on="1"/>
        <pt x="-162" y="-362" on="1"/>
        <pt x="-105" y="-368" on="0"/>
        <pt x="-18" y="-347" on="0"/>
        <pt x="47" y="-305" on="0"/>
        <pt x="93" y="-248" on="0"/>
        <pt x="108" y="-217" on="1"/>
        <pt x="143" y="-145" on="0"/>
        <pt x="150" y="-49" on="1"/>
        <pt x="152" y="58" on="0"/>
        <pt x="154" y="209" on="1"/>
        <pt x="156" y="339" on="0"/>
        <pt x="158" y="725" on="0"/>
        <pt x="158" y="985" on="1"/>
      </contour>
    </TTGlyph>
    <TTGlyph name="e" xMin="76" yMin="-98" xMax="1159" yMax="1055">
      <contour>
        <pt x="625" y="92" on="1"/>
        <pt x="678" y="92" on="0"/>
        <pt x="782" y="125" on="0"/>
        <pt x="870" y="188" on="0"/>
        <pt x="935" y="282" on="0"/>
        <pt x="950" y="344" on="1"/>
        <pt x="1143" y="305" on="1"/>
        <pt x="1115" y="214" on="0"/>
        <pt x="1013" y="66" on="0"/>
        <pt x="877" y="-40" on="0"/>
        <pt x="714" y="-98" on="0"/>
        <pt x="625" y="-98" on="1"/>
        <pt x="493" y="-98" on="0"/>
        <pt x="289" y="-18" on="0"/>
        <pt x="149" y="128" on="0"/>
        <pt x="76" y="334" on="0"/>
        <pt x="76" y="461" on="1"/>
        <pt x="76" y="586" on="0"/>
        <pt x="161" y="803" on="0"/>
        <pt x="309" y="963" on="0"/>
        <pt x="509" y="1055" on="0"/>
        <pt x="625" y="1055" on="1"/>
        <pt x="729" y="1055" on="0"/>
        <pt x="913" y="974" on="0"/>
        <pt x="1055" y="831" on="0"/>
        <pt x="1147" y="637" on="0"/>
        <pt x="1159" y="524" on="1"/>
        <pt x="293" y="395" on="1"/>
        <pt x="300" y="324" on="0"/>
        <pt x="356" y="211" on="0"/>
        <pt x="443" y="133" on="0"/>
        <pt x="558" y="92" on="0"/>
      </contour>
      <contour>
        <pt x="901" y="653" on="1"/>
        <pt x="895" y="672" on="1"/>
        <pt x="857" y="771" on="0"/>
        <pt x="724" y="883" on="0"/>
        <pt x="625" y="883" on="1"/>
        <pt x="583" y="883" on="0"/>
        <pt x="483" y="854" on="0"/>
        <pt x="389" y="784" on="0"/>
        <pt x="314" y="667" on="0"/>
        <pt x="299" y="580" on="1"/>
      </contour>
    </TTGlyph>
    <TTGlyph name="eacute" xMin="76" yMin="-98" xMax="1159" yMax="1515">
      <component glyphName="e" x="0" y="0" flags="0x204"/>
      <component glyphName="acute" x="465" y="-87" flags="0x4"/>
    </TTGlyph>
    <TTGlyph name="ebreve" xMin="76" yMin="-98" xMax="1159" yMax="1537">
      <component glyphName="e" x="0" y="0" flags="0x204"/>
      <component glyphName="breve" x="266" y="-42" flags="0x4"/>
    </TTGlyph>
    <TTGlyph name="ecaron" xMin="76" yMin="-98" xMax="1159" yMax="1587">
      <component glyphName="e" x="0" y="0" flags="0x204"/>
      <component glyphName="caron" x="281" y="0" flags="0x4"/>
    </TTGlyph>
    <TTGlyph name="ecircumflex" xMin="76" yMin="-98" xMax="1159" yMax="1537">
      <component glyphName="e" x="0" y="0" flags="0x204"/>
      <component glyphName="circumflex" x="238" y="-5" flags="0x4"/>
    </TTGlyph>
    <TTGlyph name="edieresis" xMin="76" yMin="-98" xMax="1159" yMax="1369">
      <component glyphName="e" x="0" y="0" flags="0x204"/>
      <component glyphName="dieresis" x="188" y="-75" flags="0x4"/>
    </TTGlyph>
    <TTGlyph name="edotaccent" xMin="76" yMin="-98" xMax="1159" yMax="1382">
      <component glyphName="e" x="0" y="0" flags="0x204"/>
      <component glyphName="dotaccent" x="479" y="-62" flags="0x4"/>
    </TTGlyph>
    <TTGlyph name="egrave" xMin="76" yMin="-98" xMax="1159" yMax="1533">
      <component glyphName="e" x="0" y="0" flags="0x204"/>
      <component glyphName="grave" x="223" y="-87" flags="0x4"/>
    </TTGlyph>
    <TTGlyph name="eight" xMin="96" yMin="-51" xMax="1040" yMax="1446">
      <contour>
        <pt x="1040" y="385" on="1"/>
        <pt x="1040" y="294" on="0"/>
        <pt x="966" y="135" on="0"/>
        <pt x="838" y="17" on="0"/>
        <pt x="666" y="-51" on="0"/>
        <pt x="569" y="-51" on="1"/>
        <pt x="471" y="-51" on="0"/>
        <pt x="298" y="17" on="0"/>
        <pt x="170" y="135" on="0"/>
        <pt x="96" y="294" on="0"/>
        <pt x="96" y="385" on="1"/>
        <pt x="96" y="444" on="0"/>
        <pt x="128" y="554" on="0"/>
        <pt x="186" y="649" on="0"/>
        <pt x="268" y="729" on="0"/>
        <pt x="319" y="758" on="1"/>
        <pt x="250" y="812" on="0"/>
        <pt x="170" y="966" on="0"/>
        <pt x="170" y="1057" on="1"/>
        <pt x="170" y="1138" on="0"/>
        <pt x="236" y="1279" on="0"/>
        <pt x="350" y="1385" on="0"/>
        <pt x="503" y="1446" on="0"/>
        <pt x="590" y="1446" on="1"/>
        <pt x="677" y="1446" on="0"/>
        <pt x="830" y="1385" on="0"/>
        <pt x="944" y="1279" on="0"/>
        <pt x="1010" y="1138" on="0"/>
        <pt x="1010" y="1057" on="1"/>
        <pt x="1010" y="1009" on="0"/>
        <pt x="986" y="918" on="0"/>
        <pt x="941" y="838" on="0"/>
        <pt x="878" y="769" on="0"/>
        <pt x="840" y="743" on="1"/>
        <pt x="885" y="713" on="0"/>
        <pt x="959" y="635" on="0"/>
        <pt x="1012" y="544" on="0"/>
        <pt x="1040" y="440" on="0"/>
      </contour>
      <contour>
        <pt x="840" y="397" on="1"/>
        <pt x="840" y="452" on="0"/>
        <pt x="798" y="547" on="0"/>
        <pt x="725" y="618" on="0"/>
        <pt x="627" y="659" on="0"/>
        <pt x="571" y="659" on="1"/>
        <pt x="514" y="659" on="0"/>
        <pt x="415" y="618" on="0"/>
        <pt x="342" y="547" on="0"/>
        <pt x="299" y="452" on="0"/>
        <pt x="299" y="397" on="1"/>
        <pt x="299" y="343" on="0"/>
        <pt x="342" y="247" on="0"/>
        <pt x="415" y="175" on="0"/>
        <pt x="514" y="133" on="0"/>
        <pt x="571" y="133" on="1"/>
        <pt x="627" y="133" on="0"/>
        <pt x="725" y="175" on="0"/>
        <pt x="798" y="247" on="0"/>
        <pt x="840" y="343" on="0"/>
      </contour>
      <contour>
        <pt x="817" y="1049" on="1"/>
        <pt x="817" y="1096" on="0"/>
        <pt x="779" y="1179" on="0"/>
        <pt x="713" y="1242" on="0"/>
        <pt x="625" y="1278" on="0"/>
        <pt x="575" y="1278" on="1"/>
        <pt x="526" y="1278" on="0"/>
        <pt x="447" y="1242" on="0"/>
        <pt x="392" y="1179" on="0"/>
        <pt x="362" y="1096" on="0"/>
        <pt x="362" y="1049" on="1"/>
        <pt x="362" y="1004" on="0"/>
        <pt x="388" y="926" on="0"/>
        <pt x="440" y="866" on="0"/>
        <pt x="518" y="828" on="0"/>
        <pt x="569" y="823" on="1"/>
        <pt x="614" y="823" on="0"/>
        <pt x="703" y="853" on="0"/>
        <pt x="774" y="911" on="0"/>
        <pt x="817" y="995" on="0"/>
      </contour>
    </TTGlyph>
    <TTGlyph name="ellipsis" xMin="127" yMin="-70" xMax="1403" yMax="186">
      <contour>
        <pt x="383" y="57" on="1"/>
        <pt x="383" y="31" on="0"/>
        <pt x="363" y="-15" on="0"/>
        <pt x="328" y="-50" on="0"/>
        <pt x="282" y="-70" on="0"/>
        <pt x="256" y="-70" on="1"/>
        <pt x="229" y="-70" on="0"/>
        <pt x="182" y="-50" on="0"/>
        <pt x="147" y="-15" on="0"/>
        <pt x="127" y="31" on="0"/>
        <pt x="127" y="57" on="1"/>
        <pt x="127" y="84" on="0"/>
        <pt x="147" y="131" on="0"/>
        <pt x="182" y="166" on="0"/>
        <pt x="229" y="186" on="0"/>
        <pt x="256" y="186" on="1"/>
        <pt x="282" y="186" on="0"/>
        <pt x="328" y="166" on="0"/>
        <pt x="363" y="131" on="0"/>
        <pt x="383" y="84" on="0"/>
      </contour>
      <contour>
        <pt x="893" y="57" on="1"/>
        <pt x="893" y="31" on="0"/>
        <pt x="873" y="-15" on="0"/>
        <pt x="838" y="-50" on="0"/>
        <pt x="792" y="-70" on="0"/>
        <pt x="766" y="-70" on="1"/>
        <pt x="739" y="-70" on="0"/>
        <pt x="692" y="-50" on="0"/>
        <pt x="657" y="-15" on="0"/>
        <pt x="637" y="31" on="0"/>
        <pt x="637" y="57" on="1"/>
        <pt x="637" y="84" on="0"/>
        <pt x="657" y="131" on="0"/>
        <pt x="692" y="166" on="0"/>
        <pt x="739" y="186" on="0"/>
        <pt x="766" y="186" on="1"/>
        <pt x="792" y="186" on="0"/>
        <pt x="838" y="166" on="0"/>
        <pt x="873" y="131" on="0"/>
        <pt x="893" y="84" on="0"/>
      </contour>
      <contour>
        <pt x="1403" y="57" on="1"/>
        <pt x="1403" y="31" on="0"/>
        <pt x="1383" y="-15" on="0"/>
        <pt x="1348" y="-50" on="0"/>
        <pt x="1302" y="-70" on="0"/>
        <pt x="1276" y="-70" on="1"/>
        <pt x="1249" y="-70" on="0"/>
        <pt x="1202" y="-50" on="0"/>
        <pt x="1167" y="-15" on="0"/>
        <pt x="1147" y="31" on="0"/>
        <pt x="1147" y="57" on="1"/>
        <pt x="1147" y="84" on="0"/>
        <pt x="1167" y="131" on="0"/>
        <pt x="1202" y="166" on="0"/>
        <pt x="1249" y="186" on="0"/>
        <pt x="1276" y="186" on="1"/>
        <pt x="1302" y="186" on="0"/>
        <pt x="1348" y="166" on="0"/>
        <pt x="1383" y="131" on="0"/>
        <pt x="1403" y="84" on="0"/>
      </contour>
    </TTGlyph>
    <TTGlyph name="emacron" xMin="76" yMin="-98" xMax="1159" yMax="1371">
      <component glyphName="e" x="0" y="0" flags="0x204"/>
      <component glyphName="macron" x="211" y="-67" flags="0x4"/>
    </TTGlyph>
    <TTGlyph name="emdash" xMin="135" yMin="578" xMax="1366" yMax="788">
      <contour>
        <pt x="1366" y="578" on="1"/>
        <pt x="135" y="578" on="1"/>
        <pt x="135" y="788" on="1"/>
        <pt x="1366" y="788" on="1"/>
      </contour>
    </TTGlyph>
    <TTGlyph name="endash" xMin="135" yMin="578" xMax="956" yMax="788">
      <contour>
        <pt x="956" y="578" on="1"/>
        <pt x="135" y="578" on="1"/>
        <pt x="135" y="788" on="1"/>
        <pt x="956" y="788" on="1"/>
      </contour>
    </TTGlyph>
    <TTGlyph name="eng" xMin="137" yMin="-589" xMax="1128" yMax="1047">
      <contour>
        <pt x="174" y="-74" on="1"/>
        <pt x="168" y="98" on="0"/>
        <pt x="158" y="377" on="0"/>
        <pt x="150" y="597" on="0"/>
        <pt x="145" y="765" on="0"/>
        <pt x="143" y="826" on="1"/>
        <pt x="139" y="969" on="0"/>
        <pt x="137" y="1038" on="1"/>
        <pt x="365" y="1042" on="1"/>
        <pt x="369" y="754" on="1"/>
        <pt x="402" y="811" on="0"/>
        <pt x="486" y="912" on="0"/>
        <pt x="584" y="990" on="0"/>
        <pt x="695" y="1038" on="0"/>
        <pt x="756" y="1042" on="1"/>
        <pt x="832" y="1047" on="0"/>
        <pt x="945" y="1011" on="0"/>
        <pt x="1025" y="947" on="0"/>
        <pt x="1077" y="860" on="0"/>
        <pt x="1107" y="767" on="0"/>
        <pt x="1120" y="675" on="0"/>
        <pt x="1122" y="637" on="1"/>
        <pt x="1128" y="468" on="0"/>
        <pt x="1121" y="129" on="0"/>
        <pt x="1118" y="-53" on="1"/>
        <pt x="1117" y="-106" on="0"/>
        <pt x="1101" y="-227" on="0"/>
        <pt x="1059" y="-346" on="0"/>
        <pt x="986" y="-456" on="0"/>
        <pt x="869" y="-540" on="0"/>
        <pt x="702" y="-589" on="0"/>
        <pt x="588" y="-588" on="1"/>
        <pt x="600" y="-362" on="1"/>
        <pt x="666" y="-369" on="0"/>
        <pt x="763" y="-339" on="0"/>
        <pt x="832" y="-283" on="0"/>
        <pt x="876" y="-211" on="0"/>
        <pt x="902" y="-140" on="0"/>
        <pt x="912" y="-79" on="0"/>
        <pt x="913" y="-63" on="1"/>
        <pt x="924" y="98" on="0"/>
        <pt x="928" y="420" on="0"/>
        <pt x="926" y="584" on="1"/>
        <pt x="926" y="602" on="0"/>
        <pt x="920" y="659" on="0"/>
        <pt x="903" y="723" on="0"/>
        <pt x="873" y="786" on="0"/>
        <pt x="826" y="833" on="0"/>
        <pt x="757" y="857" on="0"/>
        <pt x="711" y="850" on="1"/>
        <pt x="632" y="838" on="0"/>
        <pt x="469" y="631" on="0"/>
        <pt x="375" y="432" on="1"/>
        <pt x="379" y="271" on="0"/>
        <pt x="384" y="80" on="0"/>
        <pt x="386" y="31" on="1"/>
        <pt x="388" y="-27" on="0"/>
        <pt x="389" y="-47" on="1"/>
      </contour>
    </TTGlyph>
    <TTGlyph name="eogonek" xMin="76" yMin="-492" xMax="1174" yMax="1055">
      <contour>
        <pt x="1174" y="-356" on="1"/>
        <pt x="1109" y="-433" on="0"/>
        <pt x="986" y="-492" on="0"/>
        <pt x="934" y="-492" on="1"/>
        <pt x="889" y="-492" on="0"/>
        <pt x="806" y="-462" on="0"/>
        <pt x="741" y="-405" on="0"/>
        <pt x="702" y="-326" on="0"/>
        <pt x="702" y="-276" on="1"/>
        <pt x="702" y="-246" on="0"/>
        <pt x="718" y="-170" on="0"/>
        <pt x="739" y="-125" on="1"/>
        <pt x="711" y="-131" on="0"/>
        <pt x="654" y="-139" on="0"/>
        <pt x="625" y="-139" on="1"/>
        <pt x="513" y="-139" on="0"/>
        <pt x="315" y="-50" on="0"/>
        <pt x="238" y="35" on="1"/>
        <pt x="159" y="120" on="0"/>
        <pt x="76" y="339" on="0"/>
        <pt x="76" y="461" on="1"/>
        <pt x="76" y="586" on="0"/>
        <pt x="161" y="803" on="0"/>
        <pt x="309" y="963" on="0"/>
        <pt x="509" y="1055" on="0"/>
        <pt x="625" y="1055" on="1"/>
        <pt x="729" y="1055" on="0"/>
        <pt x="913" y="974" on="0"/>
        <pt x="1055" y="831" on="0"/>
        <pt x="1147" y="637" on="0"/>
        <pt x="1159" y="524" on="1"/>
        <pt x="293" y="395" on="1"/>
        <pt x="300" y="324" on="0"/>
        <pt x="356" y="198" on="0"/>
        <pt x="443" y="105" on="0"/>
        <pt x="558" y="51" on="0"/>
        <pt x="625" y="51" on="1"/>
        <pt x="678" y="51" on="0"/>
        <pt x="782" y="84" on="0"/>
        <pt x="870" y="147" on="0"/>
        <pt x="935" y="241" on="0"/>
        <pt x="950" y="303" on="1"/>
        <pt x="1143" y="264" on="1"/>
        <pt x="1117" y="179" on="0"/>
        <pt x="1027" y="41" on="0"/>
        <pt x="967" y="-10" on="1"/>
        <pt x="911" y="-88" on="0"/>
        <pt x="869" y="-198" on="0"/>
        <pt x="867" y="-233" on="1"/>
        <pt x="864" y="-274" on="0"/>
        <pt x="879" y="-301" on="1"/>
        <pt x="885" y="-310" on="0"/>
        <pt x="895" y="-317" on="1"/>
        <pt x="903" y="-323" on="0"/>
        <pt x="927" y="-332" on="0"/>
        <pt x="944" y="-332" on="1"/>
        <pt x="970" y="-332" on="0"/>
        <pt x="1041" y="-295" on="0"/>
        <pt x="1087" y="-244" on="1"/>
      </contour>
      <contour>
        <pt x="901" y="653" on="1"/>
        <pt x="895" y="672" on="1"/>
        <pt x="857" y="771" on="0"/>
        <pt x="724" y="883" on="0"/>
        <pt x="625" y="883" on="1"/>
        <pt x="583" y="883" on="0"/>
        <pt x="483" y="854" on="0"/>
        <pt x="389" y="784" on="0"/>
        <pt x="314" y="667" on="0"/>
        <pt x="299" y="580" on="1"/>
      </contour>
    </TTGlyph>
    <TTGlyph name="equal" xMin="135" yMin="367" xMax="932" yMax="993">
      <contour>
        <pt x="932" y="805" on="1"/>
        <pt x="141" y="782" on="1"/>
        <pt x="135" y="971" on="1"/>
        <pt x="932" y="993" on="1"/>
      </contour>
      <contour>
        <pt x="932" y="571" on="1"/>
        <pt x="928" y="377" on="1"/>
        <pt x="145" y="367" on="1"/>
        <pt x="145" y="575" on="1"/>
      </contour>
    </TTGlyph>
    <TTGlyph name="eth" xMin="78" yMin="-102" xMax="1149" yMax="1636">
      <contour>
        <pt x="1001" y="1466" on="1"/>
        <pt x="750" y="1329" on="1"/>
        <pt x="788" y="1279" on="0"/>
        <pt x="877" y="1155" on="0"/>
        <pt x="965" y="1014" on="0"/>
        <pt x="1046" y="863" on="0"/>
        <pt x="1109" y="708" on="0"/>
        <pt x="1148" y="556" on="0"/>
        <pt x="1149" y="485" on="1"/>
        <pt x="1149" y="359" on="0"/>
        <pt x="1065" y="145" on="0"/>
        <pt x="919" y="-13" on="0"/>
        <pt x="723" y="-102" on="0"/>
        <pt x="612" y="-102" on="1"/>
        <pt x="501" y="-102" on="0"/>
        <pt x="307" y="-18" on="0"/>
        <pt x="162" y="137" on="0"/>
        <pt x="78" y="353" on="0"/>
        <pt x="78" y="485" on="1"/>
        <pt x="78" y="618" on="0"/>
        <pt x="162" y="835" on="0"/>
        <pt x="307" y="989" on="0"/>
        <pt x="501" y="1073" on="0"/>
        <pt x="612" y="1073" on="1"/>
        <pt x="635" y="1073" on="0"/>
        <pt x="684" y="1070" on="0"/>
        <pt x="707" y="1065" on="1"/>
        <pt x="676" y="1110" on="0"/>
        <pt x="612" y="1195" on="0"/>
        <pt x="578" y="1237" on="1"/>
        <pt x="307" y="1090" on="1"/>
        <pt x="217" y="1253" on="1"/>
        <pt x="453" y="1382" on="1"/>
        <pt x="425" y="1413" on="0"/>
        <pt x="378" y="1464" on="0"/>
        <pt x="361" y="1482" on="1"/>
        <pt x="341" y="1503" on="0"/>
        <pt x="324" y="1520" on="1"/>
        <pt x="479" y="1636" on="1"/>
        <pt x="519" y="1594" on="0"/>
        <pt x="593" y="1515" on="0"/>
        <pt x="627" y="1477" on="1"/>
        <pt x="918" y="1634" on="1"/>
      </contour>
      <contour>
        <pt x="946" y="485" on="1"/>
        <pt x="946" y="560" on="0"/>
        <pt x="910" y="707" on="0"/>
        <pt x="830" y="824" on="0"/>
        <pt x="703" y="897" on="0"/>
        <pt x="612" y="897" on="1"/>
        <pt x="524" y="897" on="0"/>
        <pt x="398" y="824" on="0"/>
        <pt x="318" y="707" on="0"/>
        <pt x="281" y="560" on="0"/>
        <pt x="281" y="485" on="1"/>
        <pt x="281" y="411" on="0"/>
        <pt x="322" y="265" on="0"/>
        <pt x="404" y="149" on="0"/>
        <pt x="528" y="76" on="0"/>
        <pt x="612" y="76" on="1"/>
        <pt x="699" y="76" on="0"/>
        <pt x="825" y="149" on="0"/>
        <pt x="907" y="265" on="0"/>
        <pt x="946" y="411" on="0"/>
      </contour>
    </TTGlyph>
    <TTGlyph name="exclam" xMin="156" yMin="-80" xMax="399" yMax="1532">
      <contour>
        <pt x="399" y="1532" on="1"/>
        <pt x="348" y="299" on="1"/>
        <pt x="193" y="295" on="1"/>
        <pt x="156" y="1524" on="1"/>
      </contour>
      <contour>
        <pt x="383" y="31" on="1"/>
        <pt x="383" y="8" on="0"/>
        <pt x="365" y="-33" on="0"/>
        <pt x="334" y="-63" on="0"/>
        <pt x="293" y="-80" on="0"/>
        <pt x="270" y="-80" on="1"/>
        <pt x="247" y="-80" on="0"/>
        <pt x="207" y="-63" on="0"/>
        <pt x="177" y="-33" on="0"/>
        <pt x="160" y="8" on="0"/>
        <pt x="160" y="31" on="1"/>
        <pt x="160" y="54" on="0"/>
        <pt x="177" y="95" on="0"/>
        <pt x="207" y="125" on="0"/>
        <pt x="247" y="143" on="0"/>
        <pt x="270" y="143" on="1"/>
        <pt x="293" y="143" on="0"/>
        <pt x="334" y="125" on="0"/>
        <pt x="365" y="95" on="0"/>
        <pt x="383" y="54" on="0"/>
      </contour>
    </TTGlyph>
    <TTGlyph name="exclamdown" xMin="145" yMin="-408" xMax="389" yMax="1204">
      <contour>
        <pt x="145" y="-408" on="1"/>
        <pt x="197" y="825" on="1"/>
        <pt x="352" y="829" on="1"/>
        <pt x="389" y="-399" on="1"/>
      </contour>
      <contour>
        <pt x="162" y="1094" on="1"/>
        <pt x="162" y="1117" on="0"/>
        <pt x="180" y="1157" on="0"/>
        <pt x="210" y="1187" on="0"/>
        <pt x="251" y="1204" on="0"/>
        <pt x="274" y="1204" on="1"/>
        <pt x="297" y="1204" on="0"/>
        <pt x="338" y="1187" on="0"/>
        <pt x="368" y="1157" on="0"/>
        <pt x="385" y="1117" on="0"/>
        <pt x="385" y="1094" on="1"/>
        <pt x="385" y="1071" on="0"/>
        <pt x="368" y="1030" on="0"/>
        <pt x="338" y="999" on="0"/>
        <pt x="297" y="981" on="0"/>
        <pt x="274" y="981" on="1"/>
        <pt x="251" y="981" on="0"/>
        <pt x="210" y="999" on="0"/>
        <pt x="180" y="1030" on="0"/>
        <pt x="162" y="1071" on="0"/>
      </contour>
    </TTGlyph>
    <TTGlyph name="f" xMin="43" yMin="-80" xMax="1051" yMax="1554">
      <contour>
        <pt x="281" y="1014" on="1"/>
        <pt x="292" y="1119" on="0"/>
        <pt x="355" y="1314" on="0"/>
        <pt x="470" y="1464" on="0"/>
        <pt x="644" y="1554" on="0"/>
        <pt x="766" y="1554" on="1"/>
        <pt x="832" y="1554" on="0"/>
        <pt x="979" y="1509" on="0"/>
        <pt x="1051" y="1446" on="1"/>
        <pt x="952" y="1278" on="1"/>
        <pt x="898" y="1316" on="0"/>
        <pt x="796" y="1347" on="0"/>
        <pt x="756" y="1351" on="1"/>
        <pt x="709" y="1355" on="0"/>
        <pt x="668" y="1348" on="1"/>
        <pt x="628" y="1338" on="0"/>
        <pt x="566" y="1295" on="0"/>
        <pt x="520" y="1217" on="0"/>
        <pt x="490" y="1098" on="0"/>
        <pt x="481" y="1012" on="1"/>
        <pt x="905" y="1010" on="1"/>
        <pt x="883" y="813" on="1"/>
        <pt x="469" y="819" on="1"/>
        <pt x="469" y="731" on="1"/>
        <pt x="468" y="599" on="0"/>
        <pt x="468" y="461" on="1"/>
        <pt x="468" y="402" on="0"/>
        <pt x="467" y="269" on="0"/>
        <pt x="467" y="131" on="0"/>
        <pt x="466" y="-10" on="0"/>
        <pt x="465" y="-76" on="1"/>
        <pt x="258" y="-80" on="1"/>
        <pt x="261" y="138" on="0"/>
        <pt x="265" y="450" on="0"/>
        <pt x="267" y="553" on="1"/>
        <pt x="269" y="673" on="0"/>
        <pt x="270" y="752" on="1"/>
        <pt x="270" y="821" on="1"/>
        <pt x="43" y="825" on="1"/>
        <pt x="43" y="1016" on="1"/>
      </contour>
    </TTGlyph>
    <TTGlyph name="fi" xMin="43" yMin="-80" xMax="1364" yMax="1554">
      <contour>
        <pt x="281" y="1014" on="1"/>
        <pt x="292" y="1119" on="0"/>
        <pt x="355" y="1314" on="0"/>
        <pt x="470" y="1464" on="0"/>
        <pt x="644" y="1554" on="0"/>
        <pt x="766" y="1554" on="1"/>
        <pt x="832" y="1554" on="0"/>
        <pt x="979" y="1509" on="0"/>
        <pt x="1051" y="1446" on="1"/>
        <pt x="952" y="1278" on="1"/>
        <pt x="898" y="1316" on="0"/>
        <pt x="796" y="1347" on="0"/>
        <pt x="756" y="1351" on="1"/>
        <pt x="709" y="1355" on="0"/>
        <pt x="668" y="1348" on="1"/>
        <pt x="628" y="1338" on="0"/>
        <pt x="566" y="1295" on="0"/>
        <pt x="520" y="1217" on="0"/>
        <pt x="490" y="1098" on="0"/>
        <pt x="481" y="1012" on="1"/>
        <pt x="1315" y="1012" on="1"/>
        <pt x="1308" y="725" on="0"/>
        <pt x="1301" y="329" on="0"/>
        <pt x="1300" y="206" on="1"/>
        <pt x="1298" y="62" on="0"/>
        <pt x="1298" y="-27" on="1"/>
        <pt x="1094" y="-27" on="1"/>
        <pt x="1095" y="63" on="0"/>
        <pt x="1098" y="188" on="1"/>
        <pt x="1100" y="295" on="0"/>
        <pt x="1105" y="606" on="0"/>
        <pt x="1108" y="813" on="1"/>
        <pt x="469" y="819" on="1"/>
        <pt x="469" y="731" on="1"/>
        <pt x="468" y="599" on="0"/>
        <pt x="468" y="461" on="1"/>
        <pt x="468" y="402" on="0"/>
        <pt x="467" y="269" on="0"/>
        <pt x="467" y="131" on="0"/>
        <pt x="466" y="-10" on="0"/>
        <pt x="465" y="-76" on="1"/>
        <pt x="258" y="-80" on="1"/>
        <pt x="261" y="138" on="0"/>
        <pt x="265" y="450" on="0"/>
        <pt x="267" y="553" on="1"/>
        <pt x="269" y="673" on="0"/>
        <pt x="270" y="752" on="1"/>
        <pt x="270" y="821" on="1"/>
        <pt x="43" y="825" on="1"/>
        <pt x="43" y="1016" on="1"/>
      </contour>
      <contour>
        <pt x="1364" y="1333" on="1"/>
        <pt x="1364" y="1304" on="0"/>
        <pt x="1342" y="1252" on="0"/>
        <pt x="1303" y="1214" on="0"/>
        <pt x="1251" y="1192" on="0"/>
        <pt x="1221" y="1192" on="1"/>
        <pt x="1192" y="1192" on="0"/>
        <pt x="1140" y="1214" on="0"/>
        <pt x="1101" y="1252" on="0"/>
        <pt x="1079" y="1304" on="0"/>
        <pt x="1079" y="1333" on="1"/>
        <pt x="1079" y="1363" on="0"/>
        <pt x="1101" y="1415" on="0"/>
        <pt x="1140" y="1454" on="0"/>
        <pt x="1192" y="1477" on="0"/>
        <pt x="1221" y="1477" on="1"/>
        <pt x="1251" y="1477" on="0"/>
        <pt x="1303" y="1454" on="0"/>
        <pt x="1342" y="1415" on="0"/>
        <pt x="1364" y="1363" on="0"/>
      </contour>
    </TTGlyph>
    <TTGlyph name="five" xMin="74" yMin="-35" xMax="1125" yMax="1423">
      <contour>
        <pt x="1122" y="461" on="1"/>
        <pt x="1118" y="345" on="0"/>
        <pt x="1034" y="162" on="0"/>
        <pt x="887" y="34" on="0"/>
        <pt x="683" y="-34" on="0"/>
        <pt x="559" y="-35" on="1"/>
        <pt x="464" y="-31" on="0"/>
        <pt x="374" y="0" on="1"/>
        <pt x="336" y="13" on="0"/>
        <pt x="254" y="54" on="0"/>
        <pt x="175" y="113" on="0"/>
        <pt x="102" y="194" on="0"/>
        <pt x="74" y="248" on="1"/>
        <pt x="221" y="348" on="1"/>
        <pt x="275" y="274" on="0"/>
        <pt x="396" y="191" on="0"/>
        <pt x="448" y="172" on="1"/>
        <pt x="508" y="149" on="0"/>
        <pt x="567" y="145" on="1"/>
        <pt x="652" y="143" on="0"/>
        <pt x="788" y="198" on="0"/>
        <pt x="884" y="291" on="0"/>
        <pt x="936" y="409" on="0"/>
        <pt x="936" y="471" on="1"/>
        <pt x="936" y="532" on="0"/>
        <pt x="887" y="645" on="0"/>
        <pt x="800" y="733" on="0"/>
        <pt x="681" y="788" on="0"/>
        <pt x="610" y="791" on="1"/>
        <pt x="566" y="791" on="0"/>
        <pt x="515" y="780" on="1"/>
        <pt x="471" y="771" on="0"/>
        <pt x="358" y="728" on="0"/>
        <pt x="295" y="688" on="1"/>
        <pt x="135" y="801" on="1"/>
        <pt x="301" y="1423" on="1"/>
        <pt x="1042" y="1417" on="1"/>
        <pt x="1032" y="1217" on="1"/>
        <pt x="418" y="1223" on="1"/>
        <pt x="326" y="899" on="1"/>
        <pt x="384" y="925" on="0"/>
        <pt x="501" y="947" on="0"/>
        <pt x="548" y="951" on="1"/>
        <pt x="603" y="955" on="0"/>
        <pt x="653" y="952" on="1"/>
        <pt x="744" y="944" on="0"/>
        <pt x="915" y="878" on="0"/>
        <pt x="1047" y="758" on="0"/>
        <pt x="1125" y="581" on="0"/>
      </contour>
    </TTGlyph>
    <TTGlyph name="fl" xMin="43" yMin="-80" xMax="1475" yMax="1739">
      <contour>
        <pt x="1448" y="-49" on="1"/>
        <pt x="1377" y="-48" on="0"/>
        <pt x="1268" y="-2" on="0"/>
        <pt x="1186" y="71" on="0"/>
        <pt x="1127" y="165" on="0"/>
        <pt x="1107" y="213" on="1"/>
        <pt x="1060" y="327" on="0"/>
        <pt x="1047" y="471" on="1"/>
        <pt x="1061" y="1149" on="1"/>
        <pt x="1040" y="1187" on="0"/>
        <pt x="974" y="1266" on="0"/>
        <pt x="878" y="1327" on="0"/>
        <pt x="751" y="1358" on="0"/>
        <pt x="668" y="1348" on="1"/>
        <pt x="628" y="1338" on="0"/>
        <pt x="566" y="1295" on="0"/>
        <pt x="520" y="1217" on="0"/>
        <pt x="490" y="1098" on="0"/>
        <pt x="481" y="1012" on="1"/>
        <pt x="905" y="1010" on="1"/>
        <pt x="883" y="813" on="1"/>
        <pt x="469" y="819" on="1"/>
        <pt x="469" y="731" on="1"/>
        <pt x="468" y="599" on="0"/>
        <pt x="468" y="461" on="1"/>
        <pt x="468" y="402" on="0"/>
        <pt x="467" y="269" on="0"/>
        <pt x="467" y="131" on="0"/>
        <pt x="466" y="-10" on="0"/>
        <pt x="465" y="-76" on="1"/>
        <pt x="258" y="-80" on="1"/>
        <pt x="261" y="138" on="0"/>
        <pt x="265" y="450" on="0"/>
        <pt x="267" y="553" on="1"/>
        <pt x="269" y="673" on="0"/>
        <pt x="270" y="752" on="1"/>
        <pt x="270" y="821" on="1"/>
        <pt x="43" y="825" on="1"/>
        <pt x="43" y="1016" on="1"/>
        <pt x="281" y="1014" on="1"/>
        <pt x="292" y="1119" on="0"/>
        <pt x="355" y="1314" on="0"/>
        <pt x="470" y="1464" on="0"/>
        <pt x="644" y="1554" on="0"/>
        <pt x="766" y="1554" on="1"/>
        <pt x="789" y="1554" on="0"/>
        <pt x="859" y="1542" on="0"/>
        <pt x="940" y="1515" on="0"/>
        <pt x="1027" y="1468" on="0"/>
        <pt x="1067" y="1434" on="1"/>
        <pt x="1073" y="1739" on="1"/>
        <pt x="1282" y="1739" on="1"/>
        <pt x="1277" y="1561" on="0"/>
        <pt x="1268" y="1264" on="0"/>
        <pt x="1262" y="1021" on="0"/>
        <pt x="1257" y="829" on="0"/>
        <pt x="1255" y="756" on="1"/>
        <pt x="1251" y="584" on="0"/>
        <pt x="1249" y="485" on="1"/>
        <pt x="1251" y="392" on="0"/>
        <pt x="1276" y="319" on="1"/>
        <pt x="1286" y="288" on="0"/>
        <pt x="1319" y="228" on="0"/>
        <pt x="1367" y="180" on="0"/>
        <pt x="1432" y="151" on="0"/>
        <pt x="1475" y="150" on="1"/>
      </contour>
    </TTGlyph>
    <TTGlyph name="florin" xMin="-141" yMin="-604" xMax="1225" yMax="1554">
      <contour>
        <pt x="455" y="1014" on="1"/>
        <pt x="466" y="1119" on="0"/>
        <pt x="529" y="1314" on="0"/>
        <pt x="644" y="1464" on="0"/>
        <pt x="818" y="1554" on="0"/>
        <pt x="940" y="1554" on="1"/>
        <pt x="1006" y="1554" on="0"/>
        <pt x="1153" y="1509" on="0"/>
        <pt x="1225" y="1446" on="1"/>
        <pt x="1126" y="1278" on="1"/>
        <pt x="1072" y="1316" on="0"/>
        <pt x="970" y="1347" on="0"/>
        <pt x="930" y="1351" on="1"/>
        <pt x="883" y="1355" on="0"/>
        <pt x="842" y="1348" on="1"/>
        <pt x="802" y="1338" on="0"/>
        <pt x="740" y="1295" on="0"/>
        <pt x="694" y="1217" on="0"/>
        <pt x="664" y="1098" on="0"/>
        <pt x="655" y="1012" on="1"/>
        <pt x="1079" y="1010" on="1"/>
        <pt x="1057" y="813" on="1"/>
        <pt x="643" y="819" on="1"/>
        <pt x="643" y="786" on="0"/>
        <pt x="643" y="684" on="0"/>
        <pt x="642" y="534" on="0"/>
        <pt x="640" y="332" on="0"/>
        <pt x="639" y="199" on="1"/>
        <pt x="637" y="114" on="0"/>
        <pt x="626" y="-71" on="0"/>
        <pt x="592" y="-250" on="0"/>
        <pt x="528" y="-410" on="0"/>
        <pt x="419" y="-532" on="0"/>
        <pt x="257" y="-604" on="0"/>
        <pt x="143" y="-604" on="1"/>
        <pt x="77" y="-604" on="0"/>
        <pt x="-70" y="-559" on="0"/>
        <pt x="-141" y="-496" on="1"/>
        <pt x="-43" y="-328" on="1"/>
        <pt x="11" y="-366" on="0"/>
        <pt x="113" y="-398" on="0"/>
        <pt x="153" y="-401" on="1"/>
        <pt x="200" y="-405" on="0"/>
        <pt x="242" y="-397" on="1"/>
        <pt x="306" y="-369" on="0"/>
        <pt x="385" y="-246" on="0"/>
        <pt x="429" y="-72" on="0"/>
        <pt x="445" y="148" on="0"/>
        <pt x="447" y="400" on="0"/>
        <pt x="443" y="677" on="0"/>
        <pt x="444" y="821" on="1"/>
        <pt x="217" y="825" on="1"/>
        <pt x="217" y="1016" on="1"/>
      </contour>
    </TTGlyph>
    <TTGlyph name="four" xMin="43" yMin="-37" xMax="1151" yMax="1446">
      <contour>
        <pt x="1067" y="1446" on="1"/>
        <pt x="1051" y="731" on="1"/>
        <pt x="1151" y="735" on="1"/>
        <pt x="1149" y="561" on="1"/>
        <pt x="1047" y="557" on="1"/>
        <pt x="1032" y="-35" on="1"/>
        <pt x="831" y="-37" on="1"/>
        <pt x="846" y="547" on="1"/>
        <pt x="96" y="514" on="1"/>
        <pt x="43" y="647" on="1"/>
        <pt x="389" y="1417" on="1"/>
        <pt x="584" y="1382" on="1"/>
        <pt x="281" y="696" on="1"/>
        <pt x="850" y="721" on="1"/>
        <pt x="870" y="1442" on="1"/>
      </contour>
    </TTGlyph>
    <TTGlyph name="fraction" xMin="14" yMin="-18" xMax="956" yMax="1425">
      <contour>
        <pt x="956" y="1395" on="1"/>
        <pt x="160" y="-18" on="1"/>
        <pt x="14" y="14" on="1"/>
        <pt x="782" y="1425" on="1"/>
      </contour>
    </TTGlyph>
    <TTGlyph name="g" xMin="78" yMin="-610" xMax="1204" yMax="1114">
      <contour>
        <pt x="1204" y="1108" on="1"/>
        <pt x="1198" y="-41" on="1"/>
        <pt x="1197" y="-106" on="0"/>
        <pt x="1165" y="-235" on="0"/>
        <pt x="1102" y="-356" on="0"/>
        <pt x="1009" y="-463" on="0"/>
        <pt x="888" y="-546" on="0"/>
        <pt x="738" y="-599" on="0"/>
        <pt x="649" y="-606" on="1"/>
        <pt x="528" y="-610" on="0"/>
        <pt x="421" y="-581" on="1"/>
        <pt x="375" y="-569" on="0"/>
        <pt x="280" y="-527" on="0"/>
        <pt x="192" y="-462" on="0"/>
        <pt x="118" y="-371" on="0"/>
        <pt x="94" y="-309" on="1"/>
        <pt x="287" y="-225" on="1"/>
        <pt x="306" y="-268" on="0"/>
        <pt x="360" y="-330" on="0"/>
        <pt x="422" y="-372" on="0"/>
        <pt x="487" y="-398" on="0"/>
        <pt x="518" y="-404" on="1"/>
        <pt x="591" y="-420" on="0"/>
        <pt x="672" y="-410" on="1"/>
        <pt x="742" y="-396" on="0"/>
        <pt x="845" y="-338" on="0"/>
        <pt x="917" y="-267" on="0"/>
        <pt x="962" y="-188" on="0"/>
        <pt x="988" y="-116" on="0"/>
        <pt x="997" y="-57" on="0"/>
        <pt x="997" y="-41" on="1"/>
        <pt x="997" y="90" on="1"/>
        <pt x="937" y="33" on="0"/>
        <pt x="808" y="-28" on="0"/>
        <pt x="753" y="-42" on="1"/>
        <pt x="689" y="-59" on="0"/>
        <pt x="627" y="-61" on="1"/>
        <pt x="511" y="-61" on="0"/>
        <pt x="311" y="20" on="0"/>
        <pt x="163" y="171" on="0"/>
        <pt x="78" y="387" on="0"/>
        <pt x="78" y="522" on="1"/>
        <pt x="78" y="658" on="0"/>
        <pt x="172" y="871" on="0"/>
        <pt x="325" y="1017" on="0"/>
        <pt x="518" y="1094" on="0"/>
        <pt x="616" y="1094" on="1"/>
        <pt x="684" y="1086" on="0"/>
        <pt x="753" y="1064" on="1"/>
        <pt x="812" y="1045" on="0"/>
        <pt x="948" y="975" on="0"/>
        <pt x="1006" y="915" on="1"/>
        <pt x="1008" y="1114" on="1"/>
      </contour>
      <contour>
        <pt x="627" y="131" on="1"/>
        <pt x="693" y="131" on="0"/>
        <pt x="817" y="177" on="0"/>
        <pt x="918" y="260" on="0"/>
        <pt x="988" y="375" on="0"/>
        <pt x="1001" y="444" on="1"/>
        <pt x="1001" y="575" on="1"/>
        <pt x="990" y="646" on="0"/>
        <pt x="918" y="763" on="0"/>
        <pt x="814" y="847" on="0"/>
        <pt x="687" y="893" on="0"/>
        <pt x="621" y="893" on="1"/>
        <pt x="549" y="893" on="0"/>
        <pt x="427" y="834" on="0"/>
        <pt x="340" y="730" on="0"/>
        <pt x="291" y="588" on="0"/>
        <pt x="291" y="506" on="1"/>
        <pt x="291" y="424" on="0"/>
        <pt x="341" y="286" on="0"/>
        <pt x="430" y="187" on="0"/>
        <pt x="553" y="131" on="0"/>
      </contour>
    </TTGlyph>
    <TTGlyph name="gbreve" xMin="78" yMin="-610" xMax="1204" yMax="1566">
      <component glyphName="g" x="0" y="0" flags="0x204"/>
      <component glyphName="breve" x="264" y="-13" flags="0x4"/>
    </TTGlyph>
    <TTGlyph name="gcircumflex" xMin="78" yMin="-610" xMax="1204" yMax="1550">
      <component glyphName="g" x="0" y="0" flags="0x204"/>
      <component glyphName="circumflex" x="281" y="8" flags="0x4"/>
    </TTGlyph>
    <TTGlyph name="gcommaaccent" xMin="78" yMin="-610" xMax="1204" yMax="1551">
      <component glyphName="g" x="0" y="0" flags="0x204"/>
      <component glyphName="uni0312" x="336" y="29" flags="0x4"/>
    </TTGlyph>
    <TTGlyph name="gdotaccent" xMin="78" yMin="-610" xMax="1204" yMax="1420">
      <component glyphName="g" x="0" y="0" flags="0x204"/>
      <component glyphName="dotaccent" x="473" y="-24" flags="0x4"/>
    </TTGlyph>
    <TTGlyph name="germandbls" xMin="43" yMin="-129" xMax="1644" yMax="1546">
      <contour>
        <pt x="281" y="1012" on="1"/>
        <pt x="291" y="1118" on="0"/>
        <pt x="350" y="1312" on="0"/>
        <pt x="462" y="1459" on="0"/>
        <pt x="632" y="1546" on="0"/>
        <pt x="754" y="1546" on="1"/>
        <pt x="829" y="1546" on="0"/>
        <pt x="971" y="1493" on="0"/>
        <pt x="1080" y="1396" on="0"/>
        <pt x="1147" y="1261" on="0"/>
        <pt x="1147" y="1180" on="1"/>
        <pt x="1147" y="1122" on="0"/>
        <pt x="1106" y="1020" on="0"/>
        <pt x="1045" y="930" on="0"/>
        <pt x="974" y="851" on="0"/>
        <pt x="913" y="779" on="0"/>
        <pt x="872" y="714" on="0"/>
        <pt x="872" y="684" on="1"/>
        <pt x="872" y="644" on="0"/>
        <pt x="902" y="594" on="0"/>
        <pt x="957" y="565" on="0"/>
        <pt x="1033" y="551" on="0"/>
        <pt x="1126" y="542" on="0"/>
        <pt x="1233" y="533" on="0"/>
        <pt x="1290" y="524" on="1"/>
        <pt x="1389" y="508" on="0"/>
        <pt x="1530" y="433" on="0"/>
        <pt x="1615" y="331" on="0"/>
        <pt x="1644" y="207" on="0"/>
        <pt x="1632" y="143" on="1"/>
        <pt x="1621" y="82" on="0"/>
        <pt x="1551" y="-17" on="0"/>
        <pt x="1437" y="-88" on="0"/>
        <pt x="1278" y="-128" on="0"/>
        <pt x="1178" y="-129" on="1"/>
        <pt x="1086" y="-128" on="0"/>
        <pt x="992" y="-110" on="1"/>
        <pt x="952" y="-103" on="0"/>
        <pt x="862" y="-78" on="0"/>
        <pt x="770" y="-42" on="0"/>
        <pt x="679" y="8" on="0"/>
        <pt x="637" y="41" on="1"/>
        <pt x="733" y="193" on="1"/>
        <pt x="788" y="164" on="0"/>
        <pt x="903" y="110" on="0"/>
        <pt x="1023" y="69" on="0"/>
        <pt x="1150" y="45" on="0"/>
        <pt x="1217" y="45" on="1"/>
        <pt x="1272" y="45" on="0"/>
        <pt x="1348" y="66" on="0"/>
        <pt x="1397" y="97" on="0"/>
        <pt x="1424" y="136" on="0"/>
        <pt x="1430" y="154" on="1"/>
        <pt x="1437" y="178" on="0"/>
        <pt x="1424" y="240" on="0"/>
        <pt x="1365" y="297" on="0"/>
        <pt x="1249" y="338" on="0"/>
        <pt x="1155" y="342" on="1"/>
        <pt x="1065" y="346" on="0"/>
        <pt x="899" y="375" on="0"/>
        <pt x="769" y="437" on="0"/>
        <pt x="684" y="538" on="0"/>
        <pt x="674" y="614" on="1"/>
        <pt x="666" y="677" on="0"/>
        <pt x="699" y="781" on="0"/>
        <pt x="758" y="870" on="0"/>
        <pt x="831" y="949" on="0"/>
        <pt x="896" y="1027" on="0"/>
        <pt x="940" y="1109" on="0"/>
        <pt x="940" y="1157" on="1"/>
        <pt x="940" y="1199" on="0"/>
        <pt x="908" y="1272" on="0"/>
        <pt x="851" y="1326" on="0"/>
        <pt x="774" y="1356" on="0"/>
        <pt x="729" y="1356" on="1"/>
        <pt x="660" y="1356" on="0"/>
        <pt x="568" y="1294" on="0"/>
        <pt x="511" y="1191" on="0"/>
        <pt x="483" y="1059" on="0"/>
        <pt x="471" y="920" on="0"/>
        <pt x="470" y="785" on="0"/>
        <pt x="469" y="731" on="1"/>
        <pt x="468" y="599" on="0"/>
        <pt x="468" y="461" on="1"/>
        <pt x="468" y="402" on="0"/>
        <pt x="467" y="269" on="0"/>
        <pt x="467" y="131" on="0"/>
        <pt x="466" y="-10" on="0"/>
        <pt x="465" y="-76" on="1"/>
        <pt x="258" y="-80" on="1"/>
        <pt x="261" y="138" on="0"/>
        <pt x="265" y="450" on="0"/>
        <pt x="267" y="553" on="1"/>
        <pt x="269" y="673" on="0"/>
        <pt x="270" y="752" on="1"/>
        <pt x="270" y="817" on="1"/>
        <pt x="43" y="825" on="1"/>
        <pt x="43" y="1016" on="1"/>
      </contour>
    </TTGlyph>
    <TTGlyph name="grave" xMin="0" yMin="1188" xMax="397" yMax="1620">
      <contour>
        <pt x="397" y="1260" on="1"/>
        <pt x="270" y="1188" on="1"/>
        <pt x="0" y="1456" on="1"/>
        <pt x="188" y="1620" on="1"/>
      </contour>
    </TTGlyph>
    <TTGlyph name="greater" xMin="100" yMin="10" xMax="1006" yMax="1315">
      <contour>
        <pt x="1006" y="657" on="1"/>
        <pt x="223" y="10" on="1"/>
        <pt x="100" y="193" on="1"/>
        <pt x="721" y="668" on="1"/>
        <pt x="143" y="1155" on="1"/>
        <pt x="272" y="1315" on="1"/>
      </contour>
    </TTGlyph>
    <TTGlyph name="guillemotleft" xMin="66" yMin="63" xMax="1235" yMax="963">
      <contour>
        <pt x="1235" y="221" on="1"/>
        <pt x="1100" y="63" on="1"/>
        <pt x="557" y="514" on="1"/>
        <pt x="1057" y="963" on="1"/>
        <pt x="1186" y="815" on="1"/>
        <pt x="840" y="524" on="1"/>
      </contour>
      <contour>
        <pt x="743" y="221" on="1"/>
        <pt x="608" y="63" on="1"/>
        <pt x="66" y="514" on="1"/>
        <pt x="565" y="963" on="1"/>
        <pt x="694" y="815" on="1"/>
        <pt x="348" y="524" on="1"/>
      </contour>
    </TTGlyph>
    <TTGlyph name="guillemotright" xMin="76" yMin="63" xMax="1245" yMax="963">
      <contour>
        <pt x="1245" y="514" on="1"/>
        <pt x="702" y="63" on="1"/>
        <pt x="567" y="221" on="1"/>
        <pt x="963" y="524" on="1"/>
        <pt x="618" y="815" on="1"/>
        <pt x="745" y="963" on="1"/>
      </contour>
      <contour>
        <pt x="754" y="514" on="1"/>
        <pt x="211" y="63" on="1"/>
        <pt x="76" y="221" on="1"/>
        <pt x="471" y="524" on="1"/>
        <pt x="127" y="815" on="1"/>
        <pt x="254" y="963" on="1"/>
      </contour>
    </TTGlyph>
    <TTGlyph name="guilsinglleft" xMin="66" yMin="63" xMax="743" yMax="963">
      <contour>
        <pt x="743" y="221" on="1"/>
        <pt x="608" y="63" on="1"/>
        <pt x="66" y="514" on="1"/>
        <pt x="565" y="963" on="1"/>
        <pt x="694" y="815" on="1"/>
        <pt x="348" y="524" on="1"/>
      </contour>
    </TTGlyph>
    <TTGlyph name="guilsinglright" xMin="76" yMin="63" xMax="754" yMax="963">
      <contour>
        <pt x="754" y="514" on="1"/>
        <pt x="211" y="63" on="1"/>
        <pt x="76" y="221" on="1"/>
        <pt x="471" y="524" on="1"/>
        <pt x="127" y="815" on="1"/>
        <pt x="254" y="963" on="1"/>
      </contour>
    </TTGlyph>
</ttFont>
